<svg width="56" height="47" viewBox="0 0 56 47" fill="none" xmlns="http://www.w3.org/2000/svg">
<g clip-path="url(#clip0_46_266)">
<path opacity="0.997" fill-rule="evenodd" clip-rule="evenodd" d="M38.5844 32.6525C38.5927 32.528 38.5592 32.4146 38.484 32.3123C38.2194 31.7032 37.9747 31.0862 37.7499 30.4613C37.7555 30.3942 37.7259 30.3484 37.6609 30.3239C36.1694 27.3 33.9772 24.8939 31.0842 23.1056C30.0465 22.46 29.0009 21.8272 27.9475 21.2073C26.4643 20.1997 24.9466 19.2476 23.3945 18.3513C22.4932 17.9128 21.5641 17.5448 20.6073 17.2472C19.1542 16.8226 17.6945 16.4235 16.2284 16.0499C17.244 17.0256 18.1313 18.1014 18.8903 19.2773C19.1581 19.5791 19.4514 19.8542 19.7704 20.1026C19.9594 20.2886 19.9667 20.4815 19.7926 20.6812C19.6269 20.8474 19.4377 20.9802 19.225 21.0796C18.8089 21.1946 18.3913 21.303 17.972 21.4048C18.0045 21.6556 17.8987 21.8243 17.6546 21.9111C17.246 22.0331 16.8915 21.9379 16.5911 21.6252C16.4372 21.6023 16.2953 21.5493 16.1653 21.4662C16.1573 21.3842 16.1426 21.3037 16.1212 21.2245C15.0304 20.0435 14.0153 18.8053 13.0762 17.51C11.5761 15.6487 9.81377 14.0798 7.78911 12.803C7.75535 12.7438 7.74174 12.6802 7.74792 12.612C7.66587 12.62 7.58533 12.6347 7.50632 12.6562C7.47406 12.6187 7.45145 12.576 7.43812 12.5278C7.55887 12.1266 7.78412 11.795 8.11469 11.5332C8.60779 11.1263 9.13757 10.7777 9.70364 10.487C11.049 9.89486 12.3843 9.28354 13.7096 8.65312C15.4598 7.68093 17.2313 6.74655 19.024 5.84993C19.7859 5.52403 20.5597 5.23949 21.3457 4.99635C21.4906 4.99366 21.6217 5.0337 21.7389 5.11657C21.6974 5.35374 21.5607 5.51745 21.3291 5.60775C21.642 5.92612 21.968 6.24005 22.3072 6.54955C22.5286 6.78848 22.7326 7.04148 22.9192 7.30856C23.3754 7.50952 23.4501 7.81392 23.1431 8.22176C23.0273 8.32819 22.9038 8.42334 22.7726 8.50723C20.4648 9.70104 18.1362 10.8568 15.7869 11.9746C15.6023 12.0592 15.4321 12.1672 15.2762 12.2985C15.9941 12.4988 16.726 12.6745 17.4718 12.8256C19.677 13.457 21.8321 14.2305 23.9372 15.1462C27.3325 16.6048 30.6099 18.2916 33.7695 20.2068C36.6438 21.9599 39.2294 24.0657 41.5263 26.5242C42.8542 27.9661 43.9666 29.5515 44.8636 31.2803C46.0866 33.9622 46.4364 36.7607 45.9129 39.6758C45.661 40.5718 45.3088 41.426 44.8562 42.2383C44.6521 42.5358 44.4307 42.8196 44.192 43.0898C43.484 43.7745 42.7766 44.4588 42.0695 45.1429C41.8606 45.2259 41.6517 45.3089 41.4427 45.3919C41.0302 45.0786 40.5878 44.8052 40.1155 44.5716C39.0588 44.0756 37.9798 43.6346 36.8788 43.2487C36.9496 43.1171 36.9927 42.9791 37.0081 42.8345C36.8092 42.7239 36.6037 42.6269 36.3919 42.5437C36.4725 42.2855 36.6429 42.1199 36.9031 42.0468C37.1031 42.1493 37.3085 42.2462 37.5193 42.3376C38.07 40.9916 38.6115 39.6417 39.1437 38.288C39.3616 36.3576 39.1752 34.4791 38.5844 32.6525ZM41.0625 43.8669C40.246 43.4694 39.4183 43.0956 38.5795 42.7457C38.4247 42.6459 38.27 42.5461 38.1152 42.4463C38.8725 41.394 39.3975 40.235 39.6903 38.9693C39.9516 37.2196 39.9824 35.4679 39.7827 33.7141C39.5961 32.6894 39.2898 31.6994 38.8641 30.7443C38.8564 30.6377 38.811 30.5521 38.7277 30.4875C38.7318 30.4398 38.716 30.4 38.6803 30.3681C38.6572 30.2224 38.5959 30.0969 38.4966 29.9918C38.5007 29.9441 38.4849 29.9043 38.4492 29.8724C38.4415 29.7658 38.3961 29.6803 38.3128 29.6156C38.3051 29.509 38.2597 29.4234 38.1764 29.3588C37.779 28.5702 37.3101 27.8234 36.7697 27.1185C36.7364 27.0354 36.6849 26.9637 36.6153 26.9034C36.6161 26.8623 36.5944 26.8364 36.55 26.8257C36.5331 26.7319 36.4817 26.6602 36.3955 26.6106C36.0974 26.193 35.7766 25.7906 35.4331 25.4034C35.3422 25.2429 35.2193 25.1073 35.0646 24.9969C35.009 24.8955 34.9297 24.8118 34.8268 24.7458C34.4969 24.3803 34.1262 24.0553 33.7146 23.7709C33.6372 23.6747 33.5381 23.5989 33.4172 23.5435C33.3398 23.4474 33.2406 23.3715 33.1197 23.3161C33.0318 23.2083 32.9188 23.1265 32.7806 23.0708C32.7031 22.9746 32.604 22.8988 32.4831 22.8434C32.3405 22.7278 32.1857 22.628 32.0189 22.5441C31.8078 22.3724 31.5757 22.2227 31.3226 22.0951C30.1369 21.3536 28.9306 20.635 27.7037 19.9391C27.3829 19.7125 27.0456 19.5009 26.6919 19.3045C26.678 19.2985 26.6641 19.2925 26.6502 19.2865C26.3844 19.0853 26.1027 18.8978 25.8052 18.7238C25.7913 18.7178 25.7774 18.7118 25.7635 18.7058C25.3345 18.3945 24.8753 18.122 24.3855 17.8883C23.5917 17.5126 22.7857 17.1648 21.9678 16.8447C21.7486 16.7587 21.5312 16.6896 21.3155 16.6374C21.3017 16.6314 21.2877 16.6254 21.2739 16.6194C20.5976 16.3637 19.9145 16.1513 19.2247 15.9823C19.1691 15.9583 19.1135 15.9343 19.0579 15.9103C18.7472 15.8062 18.4374 15.7219 18.1285 15.6576C17.816 15.5362 17.4984 15.4321 17.1754 15.3452C16.9129 15.2446 16.6508 15.1644 16.3891 15.1048C16.3474 15.0868 16.3057 15.0688 16.2641 15.0508C15.8753 14.8944 15.4821 14.7742 15.0845 14.6901C14.9863 14.6424 14.8919 14.6512 14.8013 14.7163C14.6889 14.8501 14.5743 14.9821 14.4573 15.1122C14.4544 15.3244 14.5574 15.4678 14.7661 15.5424C14.809 15.6356 14.8744 15.7133 14.9622 15.7755C15.1076 16.0226 15.2669 16.2646 15.4401 16.5014C16.0971 17.335 16.7635 18.1587 17.4394 18.9727C17.4338 19.0399 17.4634 19.0857 17.5284 19.1101C17.5451 19.1619 17.5748 19.2077 17.6175 19.2475C17.9278 19.7111 18.2903 20.1315 18.705 20.5087C18.6591 20.5384 18.6134 20.5681 18.5676 20.5979C18.2883 20.6473 18.0139 20.7103 17.7442 20.7868C17.5872 20.7748 17.4482 20.7149 17.3274 20.6069C17.1713 20.3688 16.9831 20.1556 16.7628 19.9673C16.5237 19.641 16.2623 19.3302 15.9784 19.0349C15.9137 18.9158 15.8265 18.8123 15.717 18.7241C15.0857 17.9316 14.4321 17.1546 13.7561 16.3931C13.6719 16.2724 13.5708 16.1628 13.4529 16.0643C13.4649 16.0365 13.4571 16.0166 13.4292 16.0046C13.4125 15.9528 13.3829 15.907 13.3402 15.8672C13.3263 15.8612 13.3124 15.8552 13.2985 15.8492C13.243 15.7478 13.1637 15.6641 13.0607 15.5981C12.8752 15.3484 12.6593 15.1232 12.4128 14.9225C12.1924 14.6718 11.9426 14.4485 11.6634 14.2527C11.3813 13.9635 11.056 13.7241 10.6877 13.5346C10.6321 13.5106 10.5765 13.4866 10.5209 13.4626C10.2174 13.2714 9.89595 13.0996 9.55652 12.9473C9.34696 12.8016 9.12874 12.6579 8.90189 12.5163C8.82386 12.483 8.74821 12.4668 8.67546 12.4681C8.59209 12.4321 8.56842 12.3724 8.60443 12.2889C8.70378 12.1722 8.8055 12.0511 8.90954 11.9258C8.97657 11.9045 9.0285 11.861 9.06493 11.7949C9.15806 11.7519 9.23575 11.6865 9.29802 11.5986C9.36514 11.6042 9.41095 11.5744 9.43541 11.5094C9.51854 11.4761 9.59024 11.4245 9.65049 11.3548C9.71761 11.3604 9.76342 11.3307 9.78788 11.2657C9.91989 11.2078 10.0374 11.1265 10.1403 11.0219C10.2075 11.0275 10.2533 10.9978 10.2777 10.9328C10.3835 10.8969 10.4751 10.8375 10.5525 10.7545C10.7524 10.6749 10.9435 10.5759 11.1257 10.4575C11.2129 10.4575 11.2786 10.4198 11.3228 10.3447C11.3705 10.3488 11.4103 10.3329 11.4422 10.2972C11.5682 10.2818 11.6737 10.2284 11.7586 10.1369C12.0347 10.046 12.2993 9.9293 12.5526 9.78679C12.6198 9.79236 12.6656 9.76265 12.69 9.69764C12.8173 9.67007 12.9367 9.62263 13.0482 9.55531C13.1153 9.56087 13.1611 9.53116 13.1855 9.46615C14.1948 9.05364 15.1641 8.56479 16.0934 7.99952C16.1605 8.00509 16.2063 7.97537 16.2307 7.91036C16.6217 7.73183 17.0039 7.53389 17.3772 7.31651C17.4644 7.31643 17.5301 7.27878 17.5743 7.20363C17.7003 7.18821 17.8058 7.13477 17.8907 7.04331C17.9384 7.04741 17.9782 7.03159 18.0101 6.99587C18.1166 6.98816 18.2022 6.94265 18.2669 6.85927C18.4519 6.82038 18.6171 6.74322 18.7624 6.62778C19.2355 6.45124 19.707 6.27535 20.177 6.10017C20.2705 6.07456 20.3639 6.04889 20.4574 6.02328C20.8819 6.50245 21.3248 6.96578 21.786 7.41329C21.7977 7.44608 21.7996 7.4799 21.7917 7.51471C21.7127 7.56797 21.638 7.62644 21.5676 7.69016C21.5005 7.6846 21.4547 7.71431 21.4302 7.77932C21.3825 7.77522 21.3427 7.79104 21.3108 7.82676C21.1848 7.84219 21.0793 7.89562 20.9944 7.98709C20.7079 8.07787 20.4294 8.18858 20.1587 8.31919C20.0545 8.30292 19.9611 8.32855 19.8783 8.39608C18.7437 8.80663 17.6305 9.26634 16.5384 9.77521C16.2039 9.97127 15.8764 10.1763 15.5559 10.3903C15.5041 10.4071 15.4583 10.4368 15.4185 10.4795C14.9605 10.7767 14.5026 11.0739 14.0446 11.3711C13.9775 11.3655 13.9317 11.3952 13.9073 11.4602C13.8029 11.5122 13.6974 11.5656 13.5908 11.6205C13.5237 11.615 13.4779 11.6447 13.4534 11.7097C13.1734 11.7807 12.9157 11.9003 12.6803 12.0688C12.6011 12.2055 12.5789 12.3527 12.6134 12.5101C13.3637 12.7801 14.1313 12.9877 14.9161 13.1328C15.2111 13.2375 15.507 13.3158 15.8038 13.3675C15.9023 13.42 16.0055 13.4481 16.1136 13.4518C16.2928 13.5184 16.4715 13.5626 16.6498 13.5843C22.2738 15.3004 27.5754 17.7207 32.5544 20.8452C32.6491 20.9434 32.7622 21.0252 32.8935 21.0906C33.4255 21.4585 33.9611 21.8216 34.5002 22.18C34.5777 22.2762 34.6768 22.352 34.7977 22.4074C34.8254 22.4656 34.875 22.5035 34.9464 22.5211C35.0048 22.6167 35.0901 22.6865 35.2022 22.7304C36.6054 24.1327 38.0384 25.5101 39.5012 26.8624C39.5708 26.9976 39.6718 27.1072 39.8043 27.1912C39.9998 27.4657 40.2177 27.7247 40.458 27.9682C40.4524 28.0354 40.482 28.0812 40.547 28.1056C41.1645 28.9239 41.7603 29.7585 42.3345 30.6092C42.3289 30.6764 42.3586 30.7222 42.4235 30.7466C42.4115 30.7745 42.4194 30.7943 42.4472 30.8063C42.4856 30.9902 42.5626 31.1554 42.6783 31.302C42.6742 31.3497 42.69 31.3895 42.7257 31.4214C42.7174 31.5459 42.7509 31.6594 42.8261 31.7617C42.9519 32.1949 43.0977 32.6208 43.2637 33.0392C43.2473 33.1435 43.2729 33.237 43.3404 33.3198C43.3362 33.3675 43.352 33.4073 43.3877 33.4392C43.3572 33.5016 43.367 33.5553 43.4171 33.6003C43.413 33.648 43.4287 33.6879 43.4644 33.7197C43.4339 33.7821 43.4437 33.8358 43.4938 33.8809C43.5005 34.003 43.5339 34.1164 43.5942 34.2211C43.5636 34.2835 43.5734 34.3372 43.6235 34.3823C43.5992 34.466 43.6168 34.5396 43.6766 34.6031C43.6515 34.6414 43.6535 34.6752 43.6822 34.7045C43.6517 34.7669 43.6615 34.8206 43.7116 34.8656C43.7117 34.9896 43.7253 35.1109 43.7523 35.2296C43.7217 35.292 43.7315 35.3457 43.7816 35.3907C43.7623 35.5301 43.7699 35.6653 43.8043 35.7964C43.7738 35.8588 43.7836 35.9125 43.8337 35.9576C43.8623 36.7111 43.8909 37.4658 43.9196 38.2216C43.9196 38.7062 43.8924 39.1893 43.838 39.6709C43.3926 41.0103 42.9039 42.3334 42.3719 43.6403C42.2387 43.7571 42.1241 43.889 42.0279 44.0362C41.9578 44.0727 41.8891 44.1172 41.8219 44.17C41.5631 44.083 41.31 43.982 41.0625 43.8669ZM43.3678 42.5361C44.0662 41.29 44.4526 39.9557 44.5269 38.5332C44.5626 36.7427 44.4096 34.9777 44.068 33.238C44.6335 34.7312 44.8626 36.2817 44.7553 37.8895C44.6833 38.8365 44.5733 39.7788 44.4253 40.7162C44.2188 41.4155 43.8663 42.0221 43.3678 42.5361ZM17.32 10.6569C17.332 10.6291 17.344 10.6013 17.356 10.5735C17.8754 10.3209 18.4047 10.0875 18.9439 9.87328C18.4283 10.183 17.887 10.4442 17.32 10.6569ZM18.9439 9.87328C19.049 9.7738 19.1744 9.71242 19.3201 9.68924C19.215 9.78872 19.0896 9.85009 18.9439 9.87328Z" fill="#263849"/>
<path opacity="0.144" fill-rule="evenodd" clip-rule="evenodd" d="M41.0625 43.8669C41.31 43.982 41.5631 44.083 41.8219 44.17C41.8891 44.1172 41.9578 44.0727 42.0279 44.0362C41.9916 44.1236 41.9308 44.1881 41.8455 44.2297C41.5592 44.1467 41.2983 44.0258 41.0625 43.8669Z" fill="#E7E714"/>
<path opacity="0.18" fill-rule="evenodd" clip-rule="evenodd" d="M38.5794 42.7457C38.3908 42.6804 38.2162 42.5885 38.0556 42.4701C38.0716 42.447 38.0915 42.4391 38.1152 42.4464C38.27 42.5461 38.4247 42.6459 38.5794 42.7457Z" fill="#FCFC00"/>
<path opacity="0.01" fill-rule="evenodd" clip-rule="evenodd" d="M40.9062 52.707C42.7052 48.3864 44.5598 44.0898 46.4699 39.8172C44.6153 44.1138 42.7607 48.4104 40.9062 52.707Z" fill="#6E3E1B"/>
<path opacity="0.192" fill-rule="evenodd" clip-rule="evenodd" d="M43.8337 35.9577C43.7836 35.9126 43.7738 35.8589 43.8043 35.7965C43.8544 35.8416 43.8642 35.8953 43.8337 35.9577Z" fill="#C7C72C"/>
<path opacity="0.263" fill-rule="evenodd" clip-rule="evenodd" d="M43.7816 35.3908C43.7315 35.3457 43.7217 35.292 43.7523 35.2296C43.8024 35.2747 43.8122 35.3284 43.7816 35.3908Z" fill="#BCBB30"/>
<path opacity="0.235" fill-rule="evenodd" clip-rule="evenodd" d="M43.7116 34.8657C43.6615 34.8207 43.6517 34.767 43.6822 34.7046C43.7323 34.7497 43.7421 34.8034 43.7116 34.8657Z" fill="#C9C829"/>
<path opacity="0.616" fill-rule="evenodd" clip-rule="evenodd" d="M38.5844 32.6526C38.5091 32.5503 38.4757 32.4369 38.484 32.3123C38.5592 32.4146 38.5927 32.5281 38.5844 32.6526Z" fill="#CCCC27"/>
<path opacity="0.643" fill-rule="evenodd" clip-rule="evenodd" d="M43.6765 34.6031C43.6168 34.5397 43.5992 34.466 43.6235 34.3823C43.6832 34.4458 43.7009 34.5194 43.6765 34.6031Z" fill="#BFBE31"/>
<path opacity="0.776" fill-rule="evenodd" clip-rule="evenodd" d="M43.6235 34.3823C43.5734 34.3373 43.5636 34.2836 43.5942 34.2212C43.6443 34.2662 43.6541 34.32 43.6235 34.3823Z" fill="#ABAA26"/>
<path opacity="0.408" fill-rule="evenodd" clip-rule="evenodd" d="M43.4938 33.8809C43.4437 33.8359 43.4339 33.7821 43.4644 33.7198C43.5145 33.7648 43.5243 33.8185 43.4938 33.8809Z" fill="#BBBB31"/>
<path opacity="0.537" fill-rule="evenodd" clip-rule="evenodd" d="M43.4171 33.6004C43.367 33.5553 43.3572 33.5016 43.3877 33.4392C43.4378 33.4843 43.4476 33.538 43.4171 33.6004Z" fill="#B4B337"/>
<path opacity="0.906" fill-rule="evenodd" clip-rule="evenodd" d="M43.3404 33.3198C43.2729 33.237 43.2473 33.1435 43.2637 33.0393C43.3311 33.1221 43.3567 33.2156 43.3404 33.3198Z" fill="#B7B733"/>
<path opacity="0.01" fill-rule="evenodd" clip-rule="evenodd" d="M37.7499 30.4614C37.6849 30.437 37.6553 30.3912 37.6609 30.324C37.7258 30.3485 37.7555 30.3943 37.7499 30.4614Z" fill="#A4A31B"/>
<path opacity="0.671" fill-rule="evenodd" clip-rule="evenodd" d="M38.8641 30.7444C38.7808 30.6797 38.7353 30.5941 38.7277 30.4876C38.811 30.5522 38.8564 30.6378 38.8641 30.7444Z" fill="#ADAC3A"/>
<path fill-rule="evenodd" clip-rule="evenodd" d="M44.0623 33.1366C43.9563 33.0588 43.9238 32.9623 43.9648 32.8471C44.0082 32.9419 44.0408 33.0384 44.0623 33.1366Z" fill="#9F9F37"/>
<path opacity="0.992" fill-rule="evenodd" clip-rule="evenodd" d="M38.6803 30.3682C38.5809 30.2631 38.5196 30.1376 38.4965 29.9919C38.5959 30.097 38.6572 30.2225 38.6803 30.3682Z" fill="#9E9D3E"/>
<path opacity="0.886" fill-rule="evenodd" clip-rule="evenodd" d="M38.4492 29.8724C38.3659 29.8078 38.3204 29.7222 38.3128 29.6156C38.3961 29.6803 38.4415 29.7659 38.4492 29.8724Z" fill="#B0AF38"/>
<path opacity="0.375" fill-rule="evenodd" clip-rule="evenodd" d="M17.3274 20.6069C17.4482 20.7149 17.5872 20.7749 17.7442 20.7868C17.6879 20.8585 17.6143 20.8762 17.5235 20.84C17.4351 20.7771 17.3698 20.6994 17.3274 20.6069Z" fill="#E5E51F"/>
<path fill-rule="evenodd" clip-rule="evenodd" d="M17.3274 20.6069C17.0871 20.4369 16.8989 20.2237 16.7628 19.9673C16.9831 20.1556 17.1713 20.3689 17.3274 20.6069Z" fill="#C0BF32"/>
<path opacity="0.522" fill-rule="evenodd" clip-rule="evenodd" d="M42.8261 31.7617C42.7509 31.6594 42.7174 31.546 42.7257 31.4215C42.8009 31.5238 42.8344 31.6372 42.8261 31.7617Z" fill="#BABA2B"/>
<path opacity="0.965" fill-rule="evenodd" clip-rule="evenodd" d="M38.3128 29.6156C38.2295 29.5509 38.1841 29.4654 38.1764 29.3588C38.2597 29.4234 38.3052 29.509 38.3128 29.6156Z" fill="#ADAD39"/>
<path opacity="0.573" fill-rule="evenodd" clip-rule="evenodd" d="M42.6783 31.302C42.5626 31.1554 42.4856 30.9902 42.4472 30.8064C42.5892 30.943 42.6663 31.1082 42.6783 31.302Z" fill="#DBDB1E"/>
<path opacity="0.314" fill-rule="evenodd" clip-rule="evenodd" d="M18.5676 20.598C18.6134 20.5682 18.6592 20.5385 18.705 20.5088C18.7381 20.5166 18.7629 20.5356 18.7793 20.5656C18.7122 20.6099 18.6416 20.6207 18.5676 20.598Z" fill="#D2D222"/>
<path opacity="0.01" fill-rule="evenodd" clip-rule="evenodd" d="M42.4236 30.7467C42.3586 30.7223 42.3289 30.6765 42.3345 30.6093C42.3995 30.6337 42.4292 30.6796 42.4236 30.7467Z" fill="#E3E318"/>
<path fill-rule="evenodd" clip-rule="evenodd" d="M15.9784 19.0349C15.8253 18.9791 15.7381 18.8755 15.717 18.7241C15.8265 18.8123 15.9137 18.9158 15.9784 19.0349Z" fill="#878547"/>
<path opacity="0.01" fill-rule="evenodd" clip-rule="evenodd" d="M17.6175 19.2476C17.5748 19.2078 17.5451 19.162 17.5284 19.1102C17.6023 19.1314 17.632 19.1772 17.6175 19.2476Z" fill="#D4D42D"/>
<path opacity="0.106" fill-rule="evenodd" clip-rule="evenodd" d="M17.5284 19.1101C17.4635 19.0857 17.4338 19.0399 17.4394 18.9727C17.5043 18.9971 17.534 19.043 17.5284 19.1101Z" fill="#D1D121"/>
<path fill-rule="evenodd" clip-rule="evenodd" d="M36.7697 27.1186C36.6613 27.0846 36.6098 27.0129 36.6153 26.9035C36.6849 26.9637 36.7364 27.0354 36.7697 27.1186Z" fill="#9E9C42"/>
<path opacity="0.922" fill-rule="evenodd" clip-rule="evenodd" d="M36.55 26.8258C36.4537 26.7797 36.4023 26.708 36.3956 26.6107C36.4817 26.6602 36.5332 26.732 36.55 26.8258Z" fill="#9F9F3E"/>
<path opacity="0.125" fill-rule="evenodd" clip-rule="evenodd" d="M40.547 28.1057C40.482 28.0813 40.4524 28.0355 40.458 27.9683C40.5229 27.9928 40.5526 28.0386 40.547 28.1057Z" fill="#D1D123"/>
<path fill-rule="evenodd" clip-rule="evenodd" d="M13.7561 16.3932C13.6033 16.3272 13.5023 16.2176 13.4529 16.0644C13.5708 16.1629 13.6719 16.2725 13.7561 16.3932Z" fill="#9B993F"/>
<path opacity="0.251" fill-rule="evenodd" clip-rule="evenodd" d="M13.4292 16.0046C13.3554 15.9833 13.3257 15.9375 13.3402 15.8672C13.3829 15.907 13.4125 15.9528 13.4292 16.0046Z" fill="#E6E617"/>
<path fill-rule="evenodd" clip-rule="evenodd" d="M13.2985 15.8492C13.1678 15.8093 13.0886 15.7256 13.0607 15.5981C13.1637 15.664 13.243 15.7478 13.2985 15.8492Z" fill="#ADAC37"/>
<path opacity="0.302" fill-rule="evenodd" clip-rule="evenodd" d="M39.8043 27.1913C39.6719 27.1073 39.5708 26.9977 39.5012 26.8625C39.6337 26.9465 39.7347 27.0561 39.8043 27.1913Z" fill="#C7C624"/>
<path opacity="0.545" fill-rule="evenodd" clip-rule="evenodd" d="M35.4331 25.4034C35.2589 25.309 35.136 25.1735 35.0646 24.9969C35.2193 25.1074 35.3421 25.2429 35.4331 25.4034Z" fill="#AFAE38"/>
<path fill-rule="evenodd" clip-rule="evenodd" d="M35.0646 24.9969C34.9339 24.957 34.8546 24.8733 34.8268 24.7458C34.9297 24.8118 35.009 24.8955 35.0646 24.9969Z" fill="#A4A33A"/>
<path fill-rule="evenodd" clip-rule="evenodd" d="M34.8268 24.7458C34.4281 24.4472 34.0574 24.1222 33.7146 23.7709C34.1262 24.0554 34.4969 24.3803 34.8268 24.7458Z" fill="#A7A639"/>
<path opacity="0.992" fill-rule="evenodd" clip-rule="evenodd" d="M12.4128 14.9226C12.1282 14.7325 11.8784 14.5091 11.6634 14.2528C11.9426 14.4486 12.1924 14.6719 12.4128 14.9226Z" fill="#9A993D"/>
<path opacity="0.161" fill-rule="evenodd" clip-rule="evenodd" d="M14.9622 15.7755C14.8744 15.7133 14.809 15.6356 14.7661 15.5424C14.8747 15.5874 14.9401 15.6651 14.9622 15.7755Z" fill="#D5D51C"/>
<path opacity="0.922" fill-rule="evenodd" clip-rule="evenodd" d="M33.4172 23.5435C33.2886 23.4982 33.1895 23.4225 33.1197 23.3161C33.2406 23.3715 33.3398 23.4474 33.4172 23.5435Z" fill="#95953C"/>
<path opacity="0.943" fill-rule="evenodd" clip-rule="evenodd" d="M11.6635 14.2527C11.3438 14.0381 11.0234 13.8256 10.7024 13.6151C10.6861 13.5892 10.6812 13.5623 10.6877 13.5346C11.056 13.7241 11.3813 13.9635 11.6635 14.2527Z" fill="#9F9E3B"/>
<path fill-rule="evenodd" clip-rule="evenodd" d="M10.5209 13.4626C10.198 13.3315 9.88144 13.1866 9.57118 13.0279C9.4963 12.9858 9.43585 12.935 9.38977 12.8754C9.44533 12.8994 9.50094 12.9234 9.5565 12.9474C9.89594 13.0996 10.2174 13.2714 10.5209 13.4626Z" fill="#7D7C49"/>
<path opacity="0.361" fill-rule="evenodd" clip-rule="evenodd" d="M32.7806 23.0709C32.652 23.0256 32.5528 22.9498 32.4831 22.8435C32.604 22.8989 32.7031 22.9747 32.7806 23.0709Z" fill="#A6A536"/>
<path opacity="0.957" fill-rule="evenodd" clip-rule="evenodd" d="M9.55652 12.9474C9.50095 12.9234 9.44535 12.8994 9.38978 12.8754C9.16687 12.7166 8.92877 12.5808 8.67547 12.4681C8.74821 12.4669 8.82386 12.483 8.9019 12.5164C9.12874 12.6579 9.34697 12.8016 9.55652 12.9474Z" fill="#AFAE36"/>
<path fill-rule="evenodd" clip-rule="evenodd" d="M32.0189 22.5441C31.7169 22.4114 31.4431 22.2437 31.1975 22.0411C31.2392 22.0591 31.2809 22.0771 31.3226 22.0951C31.5757 22.2227 31.8078 22.3724 32.0189 22.5441Z" fill="#888745"/>
<path fill-rule="evenodd" clip-rule="evenodd" d="M31.3226 22.0951C31.2809 22.0771 31.2392 22.0591 31.1975 22.0411C30.01 21.3663 28.8454 20.6657 27.7036 19.9392C28.9306 20.635 30.1369 21.3537 31.3226 22.0951Z" fill="#A8A737"/>
<path opacity="0.631" fill-rule="evenodd" clip-rule="evenodd" d="M15.0845 14.6902C15.4821 14.7742 15.8753 14.8945 16.264 15.0509C15.8656 14.9708 15.4724 14.8506 15.0845 14.6902Z" fill="#A1A039"/>
<path opacity="0.753" fill-rule="evenodd" clip-rule="evenodd" d="M16.3891 15.1048C16.6508 15.1644 16.9129 15.2446 17.1755 15.3452C16.9079 15.3264 16.6458 15.2463 16.3891 15.1048Z" fill="#B0B036"/>
<path fill-rule="evenodd" clip-rule="evenodd" d="M27.7037 19.9392C27.3802 19.7701 27.0618 19.5913 26.7483 19.4031C26.7151 19.375 26.6963 19.3422 26.6919 19.3045C27.0456 19.501 27.3829 19.7126 27.7037 19.9392Z" fill="#C2C22D"/>
<path opacity="0.306" fill-rule="evenodd" clip-rule="evenodd" d="M8.90955 11.9258C8.93215 11.8425 8.98408 11.799 9.06494 11.7949C9.02851 11.861 8.97658 11.9046 8.90955 11.9258Z" fill="#DEDE1D"/>
<path fill-rule="evenodd" clip-rule="evenodd" d="M26.6502 19.2865C26.355 19.1579 26.0782 18.9972 25.8198 18.8044C25.8036 18.7784 25.7987 18.7515 25.8052 18.7238C26.1027 18.8978 26.3844 19.0854 26.6502 19.2865Z" fill="#A9A83B"/>
<path fill-rule="evenodd" clip-rule="evenodd" d="M18.1285 15.6576C18.4374 15.722 18.7472 15.8062 19.0579 15.9104C18.9891 15.9562 18.9146 15.957 18.8343 15.9128C18.5915 15.8485 18.3563 15.7635 18.1285 15.6576Z" fill="#AFAE38"/>
<path opacity="0.635" fill-rule="evenodd" clip-rule="evenodd" d="M19.2246 15.9823C19.9145 16.1514 20.5976 16.3637 21.2738 16.6194C20.5853 16.4452 19.9022 16.2328 19.2246 15.9823Z" fill="#A1A03A"/>
<path opacity="0.894" fill-rule="evenodd" clip-rule="evenodd" d="M35.2022 22.7305C35.0901 22.6865 35.0048 22.6168 34.9465 22.5211C35.0586 22.5651 35.1439 22.6348 35.2022 22.7305Z" fill="#96952D"/>
<path opacity="0.357" fill-rule="evenodd" clip-rule="evenodd" d="M9.298 11.5987C9.32245 11.5337 9.36826 11.504 9.43538 11.5095C9.41093 11.5745 9.36512 11.6042 9.298 11.5987Z" fill="#BFBF2D"/>
<path opacity="0.131" fill-rule="evenodd" clip-rule="evenodd" d="M34.7977 22.4075C34.6768 22.3521 34.5777 22.2763 34.5002 22.1801C34.6288 22.2254 34.728 22.3012 34.7977 22.4075Z" fill="#CACA26"/>
<path opacity="0.898" fill-rule="evenodd" clip-rule="evenodd" d="M25.7635 18.7058C24.3394 17.8925 22.8567 17.2031 21.3156 16.6374C21.5312 16.6896 21.7486 16.7587 21.9678 16.8448C22.7857 17.1648 23.5917 17.5127 24.3856 17.8883C24.8753 18.122 25.3346 18.3945 25.7635 18.7058Z" fill="#968D47"/>
<path opacity="0.231" fill-rule="evenodd" clip-rule="evenodd" d="M9.65048 11.3549C9.67493 11.2899 9.72074 11.2602 9.78786 11.2658C9.76341 11.3308 9.7176 11.3605 9.65048 11.3549Z" fill="#B4B333"/>
<path opacity="0.973" fill-rule="evenodd" clip-rule="evenodd" d="M32.8935 21.0906C32.7622 21.0252 32.6491 20.9434 32.5544 20.8452C32.6983 20.8932 32.8113 20.975 32.8935 21.0906Z" fill="#8E8C35"/>
<path fill-rule="evenodd" clip-rule="evenodd" d="M14.9161 13.1328C15.2173 13.1681 15.5132 13.2463 15.8038 13.3675C15.507 13.3157 15.2111 13.2375 14.9161 13.1328Z" fill="#9C9B3A"/>
<path opacity="0.314" fill-rule="evenodd" clip-rule="evenodd" d="M10.1403 11.022C10.1648 10.957 10.2106 10.9273 10.2777 10.9329C10.2533 10.9979 10.2075 11.0276 10.1403 11.022Z" fill="#BCBC31"/>
<path opacity="0.992" fill-rule="evenodd" clip-rule="evenodd" d="M16.1136 13.4518C16.2977 13.4503 16.4764 13.4945 16.6498 13.5843C16.4715 13.5626 16.2928 13.5184 16.1136 13.4518Z" fill="#A3A23B"/>
<path opacity="0.38" fill-rule="evenodd" clip-rule="evenodd" d="M10.2777 10.9328C10.3407 10.8265 10.4323 10.767 10.5525 10.7545C10.4751 10.8375 10.3835 10.8969 10.2777 10.9328Z" fill="#D6D620"/>
<path opacity="0.01" fill-rule="evenodd" clip-rule="evenodd" d="M13.4534 11.7098C13.4779 11.6448 13.5237 11.615 13.5908 11.6206C13.5664 11.6856 13.5205 11.7153 13.4534 11.7098Z" fill="#D8D824"/>
<path opacity="0.671" fill-rule="evenodd" clip-rule="evenodd" d="M11.1257 10.4576C11.1699 10.3825 11.2356 10.3448 11.3228 10.3447C11.2786 10.4199 11.2129 10.4575 11.1257 10.4576Z" fill="#C4C42B"/>
<path opacity="0.01" fill-rule="evenodd" clip-rule="evenodd" d="M13.9073 11.4603C13.9317 11.3952 13.9775 11.3655 14.0446 11.3711C14.0202 11.4361 13.9744 11.4658 13.9073 11.4603Z" fill="#E1E11C"/>
<path opacity="0.694" fill-rule="evenodd" clip-rule="evenodd" d="M11.4422 10.2972C11.5271 10.2058 11.6326 10.1523 11.7586 10.1369C11.6737 10.2284 11.5682 10.2818 11.4422 10.2972Z" fill="#B4B337"/>
<path opacity="0.604" fill-rule="evenodd" clip-rule="evenodd" d="M12.5526 9.78679C12.5771 9.72178 12.6229 9.69207 12.69 9.69764C12.6656 9.76265 12.6198 9.79236 12.5526 9.78679Z" fill="#B5B439"/>
<path opacity="0.537" fill-rule="evenodd" clip-rule="evenodd" d="M13.0481 9.55535C13.0726 9.49034 13.1184 9.46062 13.1855 9.46619C13.1611 9.5312 13.1153 9.56091 13.0481 9.55535Z" fill="#BBBA33"/>
<path opacity="0.267" fill-rule="evenodd" clip-rule="evenodd" d="M15.4185 10.4795C15.4583 10.4368 15.5041 10.4071 15.5559 10.3904C15.5346 10.4643 15.4888 10.494 15.4185 10.4795Z" fill="#E8E716"/>
<path opacity="0.871" fill-rule="evenodd" clip-rule="evenodd" d="M17.302 10.6986C17.2436 10.742 17.2188 10.723 17.2276 10.6418C17.2568 10.59 17.2996 10.5673 17.356 10.5735C17.344 10.6013 17.332 10.6291 17.32 10.6569C17.2584 10.6468 17.2524 10.6608 17.302 10.6986Z" fill="#C8C824"/>
<path opacity="0.678" fill-rule="evenodd" clip-rule="evenodd" d="M16.0933 7.99956C16.1178 7.93455 16.1636 7.90484 16.2307 7.9104C16.2063 7.97542 16.1605 8.00513 16.0933 7.99956Z" fill="#BCBB34"/>
<path opacity="0.055" fill-rule="evenodd" clip-rule="evenodd" d="M19.7199 9.56489C19.6868 9.55706 19.662 9.53809 19.6456 9.50805C19.755 9.46457 19.8644 9.42106 19.9739 9.37758C19.9896 9.41741 19.9777 9.44519 19.9378 9.46101C19.8588 9.48652 19.7862 9.52114 19.7199 9.56489Z" fill="#B4B42E"/>
<path opacity="0.576" fill-rule="evenodd" clip-rule="evenodd" d="M17.3772 7.3165C17.4214 7.24136 17.4871 7.20371 17.5743 7.20363C17.53 7.27877 17.4643 7.31642 17.3772 7.3165Z" fill="#B9B934"/>
<path opacity="0.01" fill-rule="evenodd" clip-rule="evenodd" d="M19.8783 8.39612C19.9611 8.32858 20.0545 8.30295 20.1587 8.31923C20.0759 8.38676 19.9825 8.41239 19.8783 8.39612Z" fill="#EAEA14"/>
<path opacity="0.592" fill-rule="evenodd" clip-rule="evenodd" d="M17.5743 7.20374C17.6592 7.11227 17.7647 7.05884 17.8907 7.04341C17.8058 7.13488 17.7003 7.18831 17.5743 7.20374Z" fill="#C0BF30"/>
<path opacity="0.424" fill-rule="evenodd" clip-rule="evenodd" d="M18.0101 6.9959C18.0748 6.91252 18.1603 6.86701 18.2669 6.8593C18.2022 6.94268 18.1166 6.98819 18.0101 6.9959Z" fill="#CAC929"/>
<path opacity="0.01" fill-rule="evenodd" clip-rule="evenodd" d="M20.9944 7.98718C21.0793 7.89572 21.1848 7.84229 21.3109 7.82686C21.2259 7.91832 21.1204 7.97176 20.9944 7.98718Z" fill="#F5F507"/>
<path opacity="0.557" fill-rule="evenodd" clip-rule="evenodd" d="M18.2669 6.85935C18.4121 6.74391 18.5773 6.66675 18.7624 6.62787C18.6171 6.74331 18.4519 6.82047 18.2669 6.85935Z" fill="#D1D122"/>
<path opacity="0.01" fill-rule="evenodd" clip-rule="evenodd" d="M21.4302 7.77935C21.4547 7.71434 21.5005 7.68462 21.5676 7.69019C21.5432 7.7552 21.4974 7.78491 21.4302 7.77935Z" fill="#D7D725"/>
<path opacity="0.612" fill-rule="evenodd" clip-rule="evenodd" d="M20.177 6.10022C20.264 5.9831 20.3575 5.95745 20.4574 6.02333C20.3639 6.04894 20.2704 6.07461 20.177 6.10022Z" fill="#A9A83D"/>
</g>
<defs>
<clipPath id="clip0_46_266">
<rect width="46.9585" height="30.1724" fill="white" transform="translate(43.5546 46.5237) rotate(-156.653)"/>
</clipPath>
</defs>
</svg>
