<svg width="185" height="126" viewBox="0 0 185 126" fill="none" xmlns="http://www.w3.org/2000/svg">
<g opacity="0.2" clip-path="url(#clip0_171_59)">
<path opacity="0.227" fill-rule="evenodd" clip-rule="evenodd" d="M30.6942 4.51562C31.0495 4.79661 31.0495 4.79661 30.6942 4.51562Z" fill="#263849"/>
<path opacity="0.638" fill-rule="evenodd" clip-rule="evenodd" d="M21.584 3.55009C30.7993 6.38297 40.0646 9.08756 49.3801 11.6638C62.6561 15.8643 76.0141 19.7827 89.4536 23.4195C94.6592 25.2057 99.8899 26.9153 105.146 28.5482C105.828 29.0806 105.913 29.6672 105.4 30.3082C101.979 32.2946 98.5664 34.2743 95.1635 36.2469C98.0746 38.6632 100.986 41.0799 103.897 43.4962C100.822 41.5014 97.7992 39.3719 94.829 37.1084C93.6101 39.2914 92.5695 41.5577 91.7067 43.9073C96.0358 46.6356 100.164 49.6674 104.09 53.0028C104.02 53.0915 103.95 53.1806 103.88 53.2693C99.9064 50.1573 95.8077 47.2349 91.5829 44.5023C89.7663 49.3004 87.7527 54.0024 85.5429 58.6083C94.6897 58.5417 102.912 61.2879 110.209 66.8465C111.782 68.396 113.069 70.1641 114.071 72.1507C122.337 72.145 129.516 74.9326 135.608 80.5134C137.933 83.0146 139.778 85.8298 141.144 88.9593C141.625 90.5123 141.97 92.0845 142.179 93.6753C146.96 96.8758 151.381 100.486 155.443 104.506C159.418 109.783 162.631 115.47 165.083 121.565C165.423 122.303 165.477 123.039 165.245 123.772C162.667 117.68 159.474 111.895 155.667 106.415C151.699 102.006 147.23 98.1277 142.26 94.7784C141.748 96.0051 141.331 97.2631 141.009 98.5527C139.522 100.726 138.035 102.9 136.548 105.073C132.447 108.273 128.355 108.301 124.271 105.156C121.813 101.155 122.041 97.323 124.957 93.6596C128.221 91.1769 131.902 90.3913 136 91.3027C137.671 91.9609 139.375 92.4709 141.113 92.8326C139.518 86.3497 135.923 81.2562 130.328 77.552C125.658 74.6797 120.595 73.1601 115.137 72.9933C114.918 73.0511 114.699 73.1092 114.48 73.167C115.946 78.2806 114.201 81.6936 109.245 83.4057C104.388 82.7867 103.097 80.2937 105.371 75.9263C107.416 73.8607 109.899 72.619 112.819 72.2005C111.012 68.4574 108.163 65.7435 104.272 64.0587C98.1 60.489 91.4954 59.1661 84.4586 60.0896C81.1777 56.2266 77.8306 52.4262 74.4171 48.6883C73.5186 49.2772 72.6201 49.8661 71.7216 50.455C71.0863 50.7265 70.4706 50.702 69.8748 50.3809C58.9511 40.0688 47.6869 30.0682 36.0823 20.3794C31.1576 15.2153 25.9718 10.3077 20.5246 5.65734C19.8193 5.02106 19.7551 4.33544 20.3322 3.59988C20.7781 4.13715 21.1953 4.12065 21.584 3.55009ZM28.2901 7.11859C29.2948 6.9736 30.2967 7.13033 31.2958 7.58908C31.0611 7.81024 30.7823 7.90738 30.4592 7.88049C29.7861 7.48525 29.0631 7.23108 28.2901 7.11859ZM34.7108 9.07585C34.5555 9.61368 34.3366 9.67146 34.0539 9.24948C34.2392 9.04039 34.4582 8.98261 34.7108 9.07585ZM44.7012 11.7762C44.3349 12.3713 44.5624 12.522 45.383 12.2285C45.4293 12.6279 45.6358 12.8779 46.0028 12.9782C46.2879 13.4057 46.6847 13.4883 47.1928 13.2259C47.1308 13.5234 47.0689 13.8209 47.007 14.1184C47.9208 14.0643 48.7964 13.8329 49.6345 13.4238C49.5251 13.7275 49.5125 14.0353 49.5975 14.3472C50.0804 14.5024 50.6173 14.4071 51.2087 14.0619C51.2744 14.4769 51.2415 14.884 51.1098 15.2827C51.5397 15.393 51.9568 15.3765 52.3616 15.233C52.6327 15.5678 52.5811 15.8156 52.2068 15.9767C52.3452 16.0573 52.4837 16.1376 52.6221 16.2183C53.2139 15.9563 53.8211 15.7723 54.444 15.6664C53.8823 16.3773 54.0392 16.6166 54.9151 16.3852C54.8219 16.6377 54.8796 16.8567 55.0887 17.0421C56.1189 16.6197 57.1352 16.2105 58.1376 15.8145C57.4617 16.3868 56.7326 16.9072 55.9502 17.3766C56.3495 17.5575 56.7667 17.541 57.202 17.3268C57.8761 16.635 58.6531 16.3827 59.5321 16.5704C58.8474 16.7509 58.2586 17.0939 57.766 17.5994C57.8445 17.7191 57.9232 17.8391 58.0016 17.9588C58.4053 17.6921 58.8435 17.5763 59.3154 17.6115C59.4703 17.9244 59.7472 18.0853 60.1459 18.0948C60.5496 18.6469 61.0742 18.8594 61.7201 18.7328C61.7617 18.9923 61.8691 19.2217 62.0425 19.4207C62.7293 19.1465 63.4068 18.8738 64.075 18.6023C64.3461 18.9371 64.2945 19.1849 63.9202 19.346C64.0586 19.4266 64.1971 19.507 64.3355 19.5876C64.8103 19.4028 65.2978 19.2976 65.798 19.2713C66.0842 19.6763 66.4189 20.0564 66.8021 20.4114C67.8184 20.0023 68.8347 19.5931 69.851 19.1839C69.9397 19.2542 70.0288 19.3242 70.1175 19.3945C69.3541 19.7353 68.6457 20.1568 67.992 20.6591C68.0786 20.9248 68.2564 21.0652 68.5251 21.0805C68.1983 21.2654 67.8492 21.4513 67.4778 21.6384C67.6162 21.719 67.7547 21.7994 67.8931 21.88C68.754 21.6952 69.5803 21.4534 70.3719 21.1545C70.0056 21.7496 70.2331 21.9003 71.0537 21.6068C71.3692 22.0052 71.3858 22.4224 71.1034 22.8586C71.7809 22.5859 72.4585 22.313 73.136 22.0403C73.1731 22.3584 73.2106 22.6765 73.2477 22.9946C73.6196 22.8259 74.0081 22.6997 74.4127 22.6164C74.833 23.0251 75.3288 23.1283 75.9001 22.926C75.8069 23.1785 75.8647 23.3975 76.0738 23.5829C76.4775 23.3162 76.9157 23.2004 77.3875 23.2356C76.8917 23.6898 76.3422 24.0928 75.7393 24.4444C75.497 24.6885 75.4948 24.9465 75.7332 25.219C75.3841 25.4049 75.035 25.5911 74.686 25.777C74.7644 25.8966 74.8431 26.0167 74.9215 26.1364C76.1153 25.5217 77.3506 25.0548 78.6272 24.7351C78.6115 24.9004 78.6899 25.0201 78.8628 25.0945C80.0866 24.5786 81.1484 24.6963 82.0483 25.4473C82.5629 25.3679 83.0214 25.1529 83.4239 24.8025C83.8375 25.5829 83.5752 26.0975 82.6371 26.3458C82.8933 26.6061 83.1908 26.668 83.5296 26.5315C83.854 26.2747 84.2031 26.0888 84.5768 25.9736C84.4836 26.2261 84.5414 26.4451 84.7505 26.6305C85.7194 26.7201 86.7212 26.8771 87.7562 27.101C87.3968 27.3365 87.0374 27.5721 86.678 27.8076C86.7667 27.8779 86.8558 27.948 86.9445 28.0183C87.9747 27.5959 88.991 27.1867 89.9934 26.7907C88.1891 28.8072 88.4743 29.1769 90.8488 27.8999C91.0018 28.1651 91.2289 28.3161 91.5306 28.3522C91.4374 28.6047 91.4951 28.8237 91.7042 29.0091C92.0499 28.8659 92.3887 28.7297 92.7205 28.5999C92.6358 28.8116 92.6441 29.0204 92.7454 29.2258C93.0918 29.3718 93.538 29.4646 94.084 29.5044C93.9908 29.7569 94.0486 29.976 94.2577 30.1613C94.8925 29.7416 95.57 29.4689 96.2902 29.3429C95.9942 29.5678 95.8826 29.8549 95.9557 30.2044C96.6694 29.861 97.3966 29.5984 98.137 29.417C98.0438 29.6695 98.1016 29.8885 98.3107 30.0739C98.8723 29.8345 99.4011 29.5308 99.897 29.1626C100.05 29.4279 100.277 29.5788 100.579 29.6149C100.996 29.9076 101.451 30.2093 101.942 30.5195C99.5778 32.2424 97.0245 33.5731 94.2832 34.5118C85.4448 31.1363 76.6523 27.6506 67.9059 24.0553C57.5447 19.5009 46.963 14.9186 36.1611 10.3089C35.9339 10.1582 35.7066 10.0072 35.4794 9.85657C35.8905 9.65383 36.3078 9.63734 36.7312 9.80678C38.1143 10.3138 39.5315 10.7122 40.9827 11.0021C41.5788 11.1715 42.1159 11.0766 42.594 10.7168C43.1096 11.38 43.812 11.7332 44.7012 11.7762ZM31.5502 9.34906C31.7674 9.48211 31.9348 9.67213 32.0523 9.91912C31.6281 9.9947 31.4607 9.80468 31.5502 9.34906ZM35.5291 11.1084C36.5712 11.7632 36.5092 12.0607 35.3434 12.0009C35.4053 11.7034 35.4672 11.4059 35.5291 11.1084ZM29.4557 10.4649C29.1223 10.4132 28.8042 10.4503 28.5014 10.5766C28.7928 10.0004 29.1109 9.96329 29.4557 10.4649ZM29.4557 10.4649C31.7585 11.4142 34.0248 12.4548 36.2546 13.5872C47.8822 20.132 59.6539 26.2032 71.5697 31.8012C76.4749 34.5265 81.4002 37.2069 86.3454 39.8428C83.7924 41.1736 81.3963 42.744 79.1573 44.5539C77.1703 45.3877 75.3052 46.3961 73.5617 47.5791C73.6712 47.2754 73.6837 46.9677 73.5988 46.6557C72.9759 47.1074 72.3274 47.4898 71.653 47.8026C72.1148 47.196 72.6458 46.634 73.2454 46.1166C72.9933 45.9142 72.7061 45.8029 72.3839 45.7821C72.4934 45.4784 72.5059 45.1706 72.421 44.8587C71.2902 45.5138 70.2514 46.2802 69.3041 47.1584C69.0987 47.2597 68.8899 47.2681 68.6782 47.1833C69.6683 46.1905 70.699 45.2154 71.7702 44.2577C71.613 44.018 71.4149 43.9767 71.1752 44.1339C70.7315 44.4686 70.2628 44.7329 69.7685 44.9273C70.4114 44.2443 71.0723 43.5544 71.7513 42.8571C71.6729 42.7374 71.5942 42.6174 71.5158 42.4977C70.051 43.6869 68.5224 44.8172 66.9304 45.8884C68.14 44.3999 69.6001 43.1002 71.3112 41.9896C71.1934 41.8099 71.0756 41.6302 70.9578 41.4505C70.5738 41.7461 70.1648 41.9713 69.7309 42.1262C69.8404 41.8225 69.8529 41.5147 69.7679 41.2028C69.3839 41.4984 68.9748 41.7236 68.541 41.8785C68.697 41.4318 68.978 41.0762 69.3836 40.8124C69.2975 40.4776 69.1097 40.3867 68.8196 40.5398C67.452 41.8675 65.915 42.7891 64.2093 43.3046C65.3871 42.4045 66.5169 41.45 67.5988 40.4409C67.5122 40.1752 67.3344 40.0348 67.0657 40.0196C67.3563 39.5434 67.7467 39.1591 68.2368 38.8667C68.0984 38.786 67.9599 38.7057 67.8215 38.625C66.4882 39.5418 65.1209 40.3953 63.7194 41.1852C64.325 40.347 65.0063 39.5577 65.7641 38.8175C65.6856 38.6978 65.607 38.5778 65.5285 38.4581C64.397 39.5013 63.2075 40.4952 61.9594 41.4396C61.8416 41.2599 61.7238 41.0802 61.6061 40.9005C63.066 39.6438 64.4767 38.3341 65.8381 36.9707C65.7597 36.851 65.681 36.731 65.6026 36.6113C65.1832 36.7847 64.8238 37.0203 64.5244 37.318C64.6176 37.0655 64.5598 36.8465 64.3507 36.6611C63.9289 36.9848 63.4702 37.1997 62.9751 37.3058C63.535 36.7464 63.9276 36.104 64.1522 35.3783C63.3538 35.9592 62.5647 36.519 61.7851 37.0582C61.9632 36.5769 62.2545 36.172 62.6588 35.8433C62.3675 35.6368 62.0597 35.6246 61.7354 35.8063C61.7714 35.5047 61.9224 35.2776 62.1876 35.1245C61.9355 34.9222 61.6483 34.8108 61.3262 34.79C61.2763 34.5196 61.0989 34.379 60.7931 34.3687C60.7433 34.0982 60.5658 33.9576 60.2601 33.9474C60.4105 33.578 60.3734 33.2599 60.1484 32.993C60.1154 32.8009 59.9873 32.6709 59.7641 32.6027C59.2892 32.907 58.8098 33.2209 58.3265 33.5449C58.0211 33.1483 57.6242 33.0657 57.1366 33.2972C56.9982 33.2166 56.8597 33.1362 56.7213 33.0556C57.4032 32.6215 57.7855 32.0285 57.8675 31.2768C57.6023 31.495 57.313 31.6415 57 31.7169C57.0847 31.5052 57.0763 31.2964 56.9751 31.091C56.7099 31.3092 56.4206 31.4557 56.1075 31.5311C56.2392 31.1324 56.2722 30.7253 56.2065 30.3103C55.7427 30.643 55.2346 30.8476 54.682 30.9241C55.1222 29.9455 55.3783 28.9644 55.45 27.9802C54.5986 28.1848 53.8507 28.5465 53.2068 29.0651C53.3447 28.7291 53.3075 28.411 53.0951 28.1108C52.7046 28.4643 52.3245 28.7992 51.9549 29.1149C52.1143 28.0602 51.8374 27.8993 51.1244 28.6317C50.9601 28.1058 50.8156 27.5584 50.6903 26.9895C50.5707 27.0679 50.4506 27.1466 50.3309 27.225C50.2874 26.3516 49.8825 26.0603 49.1161 26.3514C49.5017 25.8919 49.6048 25.3963 49.4257 24.864C48.554 25.8207 47.6827 26.7771 46.811 27.7338C46.6932 27.5541 46.5754 27.3744 46.4576 27.1947C47.473 26.4606 48.1359 25.5124 48.4465 24.3498C48.1813 24.568 47.892 24.7145 47.5789 24.79C47.6307 24.0881 47.3538 23.9271 46.7484 24.3067C46.7155 24.1146 46.5874 23.9845 46.3641 23.9163C45.9502 24.1542 45.5412 24.3794 45.1372 24.5921C45.4325 23.5818 45.2008 22.7058 44.4426 21.9645C44.034 21.836 43.5877 21.7431 43.104 21.6859C43.0669 21.3678 43.0294 21.0496 42.9923 20.7315C42.7113 21.0868 42.5132 21.0455 42.3973 20.6077C41.5822 21.5249 41.1857 21.4424 41.2074 20.36C41.059 20.5017 40.8897 20.5698 40.6993 20.5646C40.9634 19.8458 40.8066 19.6061 40.2281 19.8458C40.3378 19.5421 40.3501 19.2343 40.2652 18.9224C39.9999 19.1406 39.7108 19.2871 39.3976 19.3625C39.719 18.1454 39.3058 17.6454 38.1579 17.863C38.2367 17.5433 38.3978 17.2664 38.6412 17.0325C38.2652 16.8509 37.8892 16.6689 37.5132 16.4873C35.0768 18.4538 34.9094 18.2638 37.0111 15.9172C36.5639 15.731 36.1363 15.7972 35.7283 16.1158C35.8662 15.7798 35.829 15.4617 35.6166 15.1614C35.1972 15.3348 34.8378 15.5704 34.5384 15.8681C34.3044 15.1735 34.23 14.5373 34.315 13.9594C33.9693 14.1025 33.6306 14.2387 33.2987 14.3686C33.4981 13.5572 33.2418 13.2971 32.5301 13.5878C32.7295 12.7764 32.4733 12.5164 31.7615 12.8071C31.8994 12.4711 31.8622 12.153 31.6498 11.8527C30.9488 11.4262 30.1555 11.2611 29.2699 11.3574C29.3319 11.0599 29.3938 10.7624 29.4557 10.4649ZM38.7893 13.3389C37.9922 13.1177 37.2299 12.8038 36.5023 12.3973C37.2641 12.031 37.7991 12.1942 38.1075 12.8866C38.6164 12.261 38.8437 12.4116 38.7893 13.3389ZM38.7893 13.3389C39.1658 13.3934 39.455 13.2465 39.6568 12.8987C39.7417 13.2106 39.7294 13.5184 39.6198 13.8221C39.2211 13.8127 38.9442 13.6517 38.7893 13.3389ZM40.3386 13.351C40.8953 13.6059 40.9325 13.9241 40.4503 14.3054C40.2379 14.0051 40.2007 13.687 40.3386 13.351ZM41.4047 14.1937C41.729 13.8313 41.9171 13.9223 41.9687 14.4662C41.8387 14.5944 41.7083 14.7224 41.5783 14.8505C41.5363 14.6245 41.4784 14.4055 41.4047 14.1937ZM79.1226 22.3553C78.8949 22.7443 78.5561 22.8808 78.1063 22.7645C78.3341 22.3755 78.6729 22.239 79.1226 22.3553ZM31.7615 12.8071C31.6952 13.1831 31.4845 13.4496 31.1295 13.6067C31.0483 13.1248 31.259 12.8583 31.7615 12.8071ZM43.0657 15.1602C43.481 15.53 43.9272 15.6228 44.4044 15.4388C44.702 16.2633 45.0988 16.3459 45.5943 15.6865C45.6516 16.3133 45.9284 16.4746 46.4248 16.1697C46.5098 16.4817 46.4972 16.7894 46.3878 17.0931C45.3126 16.7089 44.2736 16.2341 43.2703 15.6683C43.1286 15.5199 43.0605 15.3506 43.0657 15.1602ZM32.5301 13.5878C32.4638 13.9639 32.2531 14.2304 31.8981 14.3874C31.8169 13.9056 32.0276 13.639 32.5301 13.5878ZM58.8078 21.5407C58.948 21.8486 59.0842 22.1873 59.217 22.557C59.4554 22.4437 59.6454 22.2762 59.7871 22.0549C59.7385 22.5898 59.784 23.1163 59.9237 23.6352C60.1621 23.5219 60.3521 23.3544 60.4938 23.1331C60.9347 23.5138 61.4387 23.8258 62.0061 24.0686C62.2837 23.8546 62.4944 23.588 62.638 23.2691C62.4046 25.2258 62.702 25.2877 63.5305 23.4549C63.3667 24.404 63.5485 25.2696 64.0763 26.0514C64.481 25.5472 64.704 24.9729 64.7453 24.3285C64.8274 24.9256 64.9017 25.5618 64.9687 26.2372C65.2772 25.9199 65.5084 25.5544 65.6626 25.1402C65.614 25.675 65.6596 26.2016 65.7992 26.7204C66.0376 26.6071 66.2276 26.4396 66.3693 26.2184C66.4109 26.4778 66.5183 26.7072 66.6917 26.9062C67.0406 26.2259 67.2844 25.5525 67.4226 24.8858C67.4559 25.7204 67.4889 26.5548 67.5222 27.3894C67.9047 26.7658 68.1979 26.1024 68.4019 25.4C68.2692 28.207 68.5666 28.2689 69.2943 25.5857C69.3276 26.4204 69.3606 27.2547 69.3939 28.0894C69.685 27.7959 69.9331 27.8475 70.1376 28.2442C70.497 27.7222 70.7696 27.1582 70.9553 26.5522C70.8195 27.4715 70.7825 28.3949 70.8442 29.3224C71.1527 29.0052 71.384 28.6396 71.5382 28.2254C71.5959 28.4444 71.654 28.6632 71.7118 28.8823C71.9347 28.3079 72.1579 27.7337 72.3808 27.1593C72.4978 27.9972 72.5805 28.8421 72.6291 29.694C73.0339 28.9691 73.3478 28.2067 73.5707 27.407C73.3665 28.3167 73.5691 29.0833 74.1784 29.7061C74.5379 29.1841 74.8105 28.6201 74.9962 28.0141C74.8604 28.9334 74.8234 29.8568 74.8851 30.7843C75.0896 31.181 75.3377 31.2327 75.6288 30.9391C75.6659 31.2572 75.7034 31.5754 75.7405 31.8935C76.2612 32.1847 76.7984 32.0895 77.3518 31.6081C77.5953 30.9347 77.8392 30.2611 78.0827 29.5877C77.9146 30.5459 77.9272 31.4796 78.1204 32.3889C78.302 32.0129 78.4839 31.6368 78.6655 31.2609C78.787 34.469 79.2826 34.5721 80.1529 31.5705C80.0383 32.3927 80.0219 33.217 80.1038 34.0432C80.5724 34.4446 81.0886 34.4487 81.6531 34.0553C81.9266 34.1458 82.1538 34.2964 82.3349 34.5076C82.6197 33.6358 82.9048 32.764 83.1896 31.8922C82.8157 33.2728 82.9648 34.5453 83.6365 35.7097C83.8181 35.3337 84 34.9576 84.1817 34.5817C84.2601 34.7014 84.3388 34.8214 84.4172 34.9411C84.6607 34.2677 84.9046 33.594 85.1481 32.9206C85.1795 33.939 84.9337 34.8707 84.4111 35.7157C84.5683 35.9555 84.7664 35.9967 85.0061 35.8396C85.2506 35.5165 85.5213 35.2106 85.8178 34.9222C85.9899 37.4562 86.3577 37.4294 86.9209 34.8415C86.9374 35.2587 86.9542 35.6762 86.9707 36.0933C87.111 35.9155 87.2516 35.7381 87.392 35.5603C87.7213 38.5677 88.2376 38.5715 88.9413 35.5724C88.9253 36.3903 88.8099 37.1941 88.5947 37.9832C88.8922 38.0452 89.1896 38.1071 89.4871 38.169C89.5254 37.7508 89.6577 37.3643 89.8835 37.01C89.9994 37.4479 90.1975 37.4891 90.4785 37.1339C90.1811 37.9097 90.0654 38.713 90.1319 39.5447C90.647 38.5802 91.151 37.6503 91.6435 36.7557C91.3864 37.7524 91.2791 38.7645 91.3218 39.7924C89.6706 44.1374 87.899 48.4242 86.0067 52.6526C86.8306 48.2697 87.7387 43.9069 88.7313 39.5635C88.218 38.8878 87.5465 38.3861 86.7169 38.0579C83.5783 36.5408 80.1943 34.9053 76.565 33.1514C66.7838 28.0039 56.9809 22.9115 47.1564 17.8739C47.1947 17.4557 47.327 17.0692 47.5528 16.7149C47.6851 17.5702 47.9826 17.6321 48.4452 16.9007C48.4578 17.4592 48.6727 17.9176 49.09 18.2764C49.4308 18.5118 49.877 18.6047 50.4286 18.555C51.1873 19.9187 51.8526 19.9539 52.4242 18.66C52.0303 20.0082 52.3652 20.3883 53.4283 19.8002C53.8737 20.2194 54.2124 20.0832 54.4446 19.391C54.5103 19.806 54.4774 20.2131 54.3457 20.6119C54.95 20.9561 55.5243 21.1791 56.0686 21.2809C56.3463 21.0668 56.5569 20.8003 56.7006 20.4813C56.7171 20.8985 56.7339 21.316 56.7504 21.7332C57.1348 21.7772 57.5522 21.7607 58.0022 21.6834C58.2192 22.4601 58.4876 22.4126 58.8078 21.5407ZM33.2987 14.3686C33.1989 14.822 32.9696 14.9295 32.6108 14.6909C32.8171 14.5113 33.0464 14.4039 33.2987 14.3686ZM98.7441 27.9915C98.5164 28.3805 98.1776 28.517 97.7278 28.4007C97.9556 28.0117 98.2944 27.8752 98.7441 27.9915ZM60.9546 36.5749C60.7659 37.1266 60.3858 37.4615 59.8145 37.5791C60.0032 37.0274 60.3833 36.6925 60.9546 36.5749ZM85.9429 41.7764C85.7045 44.6734 85.2547 47.5801 84.5934 50.4962C84.8767 48.8295 84.9094 47.1811 84.6917 45.5508C84.4688 46.1251 84.2456 46.6994 84.0227 47.2737C84.1159 46.5482 84.1117 45.823 84.0099 45.0985C83.818 45.5241 83.6257 45.9496 83.4338 46.3752C83.126 48.9688 82.7484 51.5284 82.301 54.0538C82.5007 50.9309 82.7934 47.7847 83.1794 44.6152C82.7527 45.4411 82.4182 46.3025 82.1759 47.1996C82.2905 46.3775 82.3069 45.5531 82.225 44.7269C82.0847 44.9047 81.9441 45.0822 81.8037 45.26C81.7069 47.6169 81.2322 49.8974 80.3795 52.102C80.5939 50.0774 80.8086 48.0532 81.023 46.0286C80.4269 47.6544 79.9274 49.3089 79.5241 50.9928C79.7228 49.78 79.8218 48.5591 79.8209 47.3302C79.6926 46.8584 79.4673 46.4496 79.1452 46.1032C81.3943 44.586 83.6601 43.1436 85.9429 41.7764ZM61.7851 37.0582C61.7123 37.5169 61.452 37.7731 61.0044 37.8267C61.0773 37.368 61.3376 37.1118 61.7851 37.0582ZM63.0248 38.5577C62.952 39.0165 62.6917 39.2726 62.2441 39.3263C62.317 38.8675 62.5773 38.6113 63.0248 38.5577ZM66.7063 40.2551C66.5825 40.8501 66.2231 41.0856 65.6281 40.9618C65.9091 40.6065 66.2685 40.371 66.7063 40.2551ZM65.6281 40.9618C65.1944 41.6751 64.5747 42.1668 63.7692 42.4371C64.2029 41.7238 64.8226 41.232 65.6281 40.9618ZM69.3715 42.3617C69.2987 42.8205 69.0383 43.0767 68.5908 43.1303C68.6636 42.6716 68.9239 42.4154 69.3715 42.3617ZM84.0476 47.8996C83.9036 50.3209 83.656 52.7524 83.3051 55.1939C83.0958 54.3862 83.0629 53.5516 83.2055 52.6903C83.3867 51.0759 83.6673 49.4791 84.0476 47.8996ZM72.3839 45.7821C72.3111 46.2409 72.0508 46.4971 71.6032 46.5507C71.6761 46.0919 71.9364 45.8358 72.3839 45.7821ZM69.0497 45.3985C68.9769 45.8572 68.7166 46.1134 68.269 46.167C68.3419 45.7083 68.6022 45.4521 69.0497 45.3985ZM71.2936 48.0381C71.155 48.6877 70.8059 48.8736 70.2464 48.596C70.5708 48.3392 70.9198 48.1534 71.2936 48.0381ZM112.931 73.1548C113.233 73.1909 113.46 73.3419 113.613 73.6071C114.837 77.7632 113.464 80.6326 109.493 82.2158C107.198 82.7667 105.775 81.9012 105.223 79.6199C105.317 77.3559 106.343 75.6557 108.302 74.519C109.844 73.9716 111.387 73.5169 112.931 73.1548ZM123.967 102.144C122.902 95.9306 125.58 92.505 132.003 91.8674C135.225 91.9492 138.268 92.7378 141.132 94.2332C140.714 99.313 138.271 103.098 133.803 105.588C130.585 107.322 127.668 106.922 125.052 104.387C124.487 103.724 124.125 102.976 123.967 102.144Z" fill="#263849"/>
<path opacity="0.52" fill-rule="evenodd" clip-rule="evenodd" d="M107.086 28.1761C107.343 28.3702 107.549 28.6199 107.706 28.9259C108.081 28.6883 108.438 28.7109 108.778 28.9938C108.857 29.8257 109.109 30.6023 109.534 31.3239C111.127 32.8718 112.784 34.3548 114.505 35.7727C114.261 36.0958 113.99 36.4017 113.693 36.69C112.094 35.4261 110.495 34.1621 108.896 32.8981C107.913 33.9244 107.626 33.8131 108.035 32.5636C107.956 32.1843 107.759 31.8849 107.446 31.6651C107.249 31.9878 106.988 32.244 106.665 32.4337C106.804 31.5715 106.601 30.805 106.057 30.1346C106.364 29.9654 106.693 29.8786 107.043 29.8742C106.613 29.257 106.627 28.6911 107.086 28.1761Z" fill="#263849"/>
<path opacity="0.396" fill-rule="evenodd" clip-rule="evenodd" d="M94.3087 38.8623C98.2257 41.1786 101.92 43.8098 105.391 46.7558C105.271 46.8342 105.151 46.9129 105.031 46.9913C101.59 44.2699 97.9534 41.8578 94.123 39.7547C94.1849 39.4573 94.2468 39.1598 94.3087 38.8623Z" fill="#263849"/>
<path opacity="0.35" fill-rule="evenodd" clip-rule="evenodd" d="M93.9991 40.3495C97.2795 42.6286 100.519 44.9581 103.718 47.3384C103.598 47.4168 103.478 47.4955 103.358 47.574C100.049 45.3615 96.7988 43.0816 93.6087 40.7338C93.7978 40.6543 93.9279 40.5262 93.9991 40.3495Z" fill="#263849"/>
<path opacity="0.41" fill-rule="evenodd" clip-rule="evenodd" d="M83.4016 39.0748C84.4196 39.3386 84.4567 39.6567 83.5133 40.0292C83.3008 39.7289 83.2637 39.4108 83.4016 39.0748Z" fill="#263849"/>
<path opacity="0.339" fill-rule="evenodd" clip-rule="evenodd" d="M93.0326 42.0105C93.4281 41.7521 93.835 41.7849 94.2535 42.1095C97.1136 44.0134 99.9088 45.9919 102.639 48.0451C102.52 48.1235 102.4 48.2022 102.28 48.2806C99.183 46.1772 96.1004 44.0871 93.0326 42.0105Z" fill="#263849"/>
<path opacity="0.394" fill-rule="evenodd" clip-rule="evenodd" d="M92.5494 42.8411C95.9842 45.0943 99.3127 47.4942 102.534 50.0407C99.1814 48.0876 95.9006 45.9565 92.692 43.6468C92.5099 43.4006 92.4621 43.1321 92.5494 42.8411Z" fill="#263849"/>
<path opacity="0.417" fill-rule="evenodd" clip-rule="evenodd" d="M91.3352 45.6922C93.8114 47.2452 96.272 48.8437 98.7169 50.4877C99.8273 51.4215 100.862 52.4129 101.822 53.4618C101.703 53.5403 101.583 53.6189 101.463 53.6974C98.3509 51.0071 95.0227 48.6072 91.4779 46.4978C91.2957 46.2517 91.2479 45.9832 91.3352 45.6922Z" fill="#263849"/>
<path opacity="0.377" fill-rule="evenodd" clip-rule="evenodd" d="M90.6662 47.415C93.5674 49.2465 96.3626 51.225 99.0521 53.3506C98.6143 53.4665 98.2174 53.3839 97.8622 53.1029C95.5256 51.317 93.0651 49.7186 90.4804 48.3075C90.5423 48.01 90.6043 47.7125 90.6662 47.415Z" fill="#263849"/>
<path opacity="0.369" fill-rule="evenodd" clip-rule="evenodd" d="M90.8896 49.324C93.5377 51.0322 96.1758 52.771 98.8044 54.5407C96.9813 53.6668 95.1612 52.719 93.3441 51.6971C93.185 51.7158 93.026 51.7342 92.8669 51.7529C95.714 53.7419 95.5736 53.9197 92.4456 52.286C91.9205 51.8877 91.3771 51.5161 90.8155 51.1708C90.6456 50.5469 90.6704 49.9313 90.8896 49.324Z" fill="#263849"/>
<path opacity="0.394" fill-rule="evenodd" clip-rule="evenodd" d="M89.9231 50.9848C91.4473 52.0733 92.978 53.1679 94.5158 54.2686C92.6091 53.7518 90.948 52.7854 89.5327 51.3691C89.7218 51.2896 89.8519 51.1614 89.9231 50.9848Z" fill="#263849"/>
<path opacity="0.49" fill-rule="evenodd" clip-rule="evenodd" d="M69.4845 50.7651C70.0593 50.8218 70.4642 51.1128 70.6993 51.6387C70.8409 51.4174 71.031 51.25 71.2693 51.1366C71.945 51.6125 72.5567 52.1538 73.104 52.76C73.323 52.7023 73.5418 52.6441 73.7609 52.5864C73.9818 53.6855 74.6036 54.1771 75.6265 54.061C77.8745 56.1842 80.1222 58.3075 82.3702 60.4307C80.843 60.4806 79.5767 59.8548 78.571 58.5535C78.4195 58.6639 78.2501 58.7323 78.0628 58.7581C76.2684 57.4557 74.6012 56.0224 73.0609 54.4581C71.6614 54.2571 70.2731 53.9681 68.8962 53.5912C68.4713 52.8696 68.2192 52.093 68.1397 51.2611C68.788 51.36 69.3623 51.583 69.8627 51.9301C69.5197 51.6055 69.3938 51.2171 69.4845 50.7651ZM70.3028 52.7977C70.7587 52.8113 71.1347 52.9929 71.4308 53.3428C71.2118 53.4006 70.993 53.4587 70.774 53.5165C70.4284 53.3679 70.2713 53.1282 70.3028 52.7977Z" fill="#263849"/>
</g>
<defs>
<clipPath id="clip0_171_59">
<rect width="168.574" height="92.1668" fill="white" transform="translate(19.4921 0.635254) rotate(11.7586)"/>
</clipPath>
</defs>
</svg>
