<svg width="315" height="294" viewBox="0 0 315 294" fill="none" xmlns="http://www.w3.org/2000/svg">
<g opacity="0.2">
<path d="M81.8187 43.2974C81.0603 44.0133 81.0603 44.0133 82.5144 43.3487C83.3186 42.9919 84.3096 42.4741 84.6929 42.1828C85.2517 41.8019 85.1184 41.8102 83.9972 42.1315C83.2254 42.376 82.2653 42.8841 81.8187 43.2974Z" fill="white"/>
<path d="M85.5158 42.6353C74.9035 47.5267 67.5895 54.4645 63.9472 63.1265C62.6207 66.2307 61.8948 70.2656 62.0282 73.6885C62.1279 75.9331 62.3287 76.8886 63.45 79.9986C64.5811 83.1393 65.0289 84.0166 66.5472 85.9136C72.7184 93.8103 83.6678 97.9168 96.3093 97.0707C105.66 96.4521 114.978 93.1597 122.133 87.971L124.888 85.9431L133.037 87.5394C137.521 88.3949 141.198 89.0643 141.25 89.0138C141.271 88.9732 139.722 85.693 137.784 81.7208L134.245 74.5189L135.33 71.831C136.553 68.8277 137.314 64.4758 137.124 61.4105C136.866 56.7361 134.328 51.0855 130.968 47.6657C128.103 44.7346 123.301 41.9079 119.851 41.0985L118.758 40.8671L120.04 41.4803L121.29 42.1032L120.648 43.292C119.153 45.9737 119.715 46.781 121.289 44.2439C122.264 42.7118 122.482 42.5409 122.949 42.8347C123.385 43.1382 123.413 43.3332 123.137 43.9641C122.671 44.961 123.179 45.2758 123.867 44.4462C124.617 43.597 125.266 44.0368 124.902 45.1376C124.751 45.627 124.721 46.282 124.828 46.6216C125.004 47.1773 125.087 47.1171 125.645 46.091C126.445 44.6485 126.941 45.0348 126.618 46.8019C126.285 48.5382 126.569 48.6858 127.369 47.2433C127.906 46.2578 128.02 46.1878 128.352 46.5922C128.533 46.8407 128.563 47.5786 128.388 48.3135C127.986 49.8336 128.37 50.1876 129.065 48.9483C130.106 47.0895 130.541 48.1407 129.747 50.5666C129.081 52.6461 129.527 52.9805 130.507 51.1412C131.118 49.9622 131.284 49.8418 131.616 50.2462C131.837 50.5158 131.851 50.9871 131.65 51.4245C131.11 52.6149 131.713 53.3408 132.304 52.2025C132.43 51.9585 132.679 51.7779 132.811 51.872C132.973 51.9564 132.62 52.9856 132.049 54.1857C131.447 55.3956 131.031 56.5468 131.099 56.7629C131.168 56.979 131.301 56.9707 131.52 56.6974C131.656 56.4844 132.242 55.6532 132.807 54.8628C133.456 53.9096 133.83 53.5875 133.928 53.8962C133.996 54.1123 133.865 54.6634 133.623 55.0798C133.046 56.0442 133.202 56.5382 133.936 56.0677C135.095 55.327 134.766 56.7561 133.354 58.7323C132.015 60.6174 131.538 61.6858 132.155 61.4901C132.31 61.4412 133.018 60.6733 133.727 59.8031C134.458 58.8921 135.092 58.2153 135.174 58.2575C135.58 58.4684 135.274 59.7544 134.609 60.441C133.755 61.391 133.829 62.5905 134.733 61.6924C135.961 60.4202 135.897 61.9351 134.644 63.5552C133.485 65.0436 132.46 67.1689 132.923 67.0222C133.139 66.9537 133.742 66.3891 134.284 65.7417C135.493 64.3053 135.682 64.6871 134.782 66.6709C134.432 67.4954 134.246 68.3017 134.376 68.4983C134.496 68.664 133.99 69.6397 133.237 70.6937C131.356 73.2262 131.26 73.4604 132.293 72.8612L133.141 72.3208L132.622 73.4704C132.306 74.0803 132.173 74.7338 132.293 74.8995C132.445 75.0554 132.325 75.535 132.083 75.9513C131.463 76.997 131.739 77.7591 132.456 77.0221C133.216 76.2038 133.529 76.5464 133.021 77.6246C132.471 78.784 132.548 79.1334 133.272 78.6321C134.049 78.0803 134.064 78.4492 133.374 80.0265C132.781 81.3697 132.72 82.0345 133.214 81.878C133.368 81.8291 133.651 81.4339 133.852 80.9964C134.053 80.559 134.335 80.1638 134.49 80.1149C134.891 79.9877 135.061 80.953 134.723 81.6035C134.564 81.9596 134.476 82.4294 134.564 82.7073C134.691 83.1086 134.783 83.0793 135.056 82.6532C135.559 81.8822 136.005 82.2166 135.624 83.0508C135.444 83.4476 135.238 84.1922 135.159 84.6929L134.991 85.6635L129.6 84.5179L124.219 83.4032L123.077 84.4105C119.415 87.5413 113.872 90.4187 107.728 92.3654C96.1197 96.0436 85.4648 95.5468 76.5011 90.8451C72.5982 88.8204 70.503 87.1402 68.1807 84.207C66.8935 82.6105 66.5759 81.9297 65.4509 78.3793C64.3342 74.9622 64.1529 74.0684 64.2226 72.1439C64.5867 62.1425 71.6167 52.2712 83.0515 45.7942C86.5848 43.7574 93.8965 41.101 98.0567 40.2923C102.093 39.5229 107.27 39.2415 111.321 39.5887C113.163 39.7185 114.677 39.7821 114.72 39.7008C114.867 39.4162 109.103 38.5928 106.216 38.4884C100.043 38.3042 91.0332 40.1057 85.5158 42.6353ZM137.414 85.9147C137.393 85.9553 136.984 85.9492 136.462 85.9107L135.542 85.7946L135.976 84.8075L136.452 83.8416L136.939 84.8424C137.207 85.3687 137.426 85.8431 137.414 85.9147Z" fill="white"/>
<path d="M118.504 35.2405C119.491 35.6752 120.581 36.1114 120.948 36.1988C122.265 36.495 120.624 35.2824 118.962 34.7557C116.72 34.0054 116.408 34.308 118.504 35.2405Z" fill="white"/>
<path d="M115.499 36.9063C116.712 37.3033 118.79 38.0717 120.052 38.6231C121.385 39.1859 122.13 39.3916 121.817 39.0489C121.03 38.2792 117.813 36.9203 115.659 36.4478C112.995 35.8652 112.909 36.1302 115.499 36.9063Z" fill="white"/>
<path d="M93.385 49.9943C87.8909 53.0261 86.5681 60.002 90.759 64.0078C92.3143 65.4854 93.7274 66.1927 94.6228 65.909C96.1973 65.4101 97.1998 63.4277 96.6814 61.7915C96.5542 61.3901 96.0318 60.7063 95.5161 60.2582C94.1204 59.0698 93.8526 57.7958 94.6525 56.3532C96.6515 52.7982 102.389 54.7171 102.582 58.9706C102.611 59.8109 102.183 61.0336 101.193 62.842C98.6342 67.5256 98.1671 68.6248 97.7939 70.9852C97.4871 73.0189 97.5495 73.6446 98.2342 75.8057C98.8212 77.6581 99.2186 78.4834 99.8464 78.9639C101.263 80.1117 103.311 79.4969 104.281 77.6268C104.703 76.8137 104.689 76.3423 104.181 74.7369C103.838 73.6564 103.663 72.353 103.745 71.6475C103.847 71.0037 104.835 68.6525 105.964 66.4262C107.124 64.1902 108.165 61.686 108.3 60.8277C108.808 57.7113 107.009 53.3213 104.565 51.7178L103.499 51.0361L104.686 52.5287C106.053 54.2698 107.086 57.1019 107.067 59.0784C107.042 60.0715 106.382 61.7414 104.464 65.3386C103.041 68.0317 101.77 70.8806 101.676 71.6576C101.561 72.4753 101.675 73.7983 101.947 74.7651C102.339 76 102.36 76.6047 102.027 76.9479C101.391 77.7271 100.747 76.9801 100.296 74.9146C99.6219 72.0367 100.059 70.1996 102.619 65.4136C105.095 60.7902 105.443 59.4229 104.69 57.0457C103.299 52.7641 98.1887 50.6804 94.6313 52.9627C91.4768 55.0154 90.9557 59.0534 93.562 61.4889C94.7138 62.5508 94.8627 63.5568 93.9802 63.6665C93.2001 63.7778 90.7189 61.2007 90.2884 59.8423C89.4961 57.3416 90.6744 53.8768 92.9999 51.781C94.3185 50.5818 97.448 49.5223 99.1971 49.6815C100.875 49.8294 100.961 49.5644 99.3689 49.1514C98.4097 48.9118 94.7721 49.0112 94.6245 49.2958C94.6343 49.3267 94.0559 49.6458 93.385 49.9943Z" fill="white"/>
<path d="M100.995 48.602C102.482 49.2182 102.963 49.2357 102.52 48.6965C102.229 48.3131 100.331 47.7932 99.8683 47.94C99.7448 47.9791 100.252 48.2939 100.995 48.602Z" fill="white"/>
<path d="M86.7087 60.8743C86.7613 61.4691 87.1293 62.2018 87.6029 62.7313C88.3985 63.6342 88.3985 63.6342 87.6264 61.8405C86.7157 59.717 86.6051 59.5822 86.7087 60.8743Z" fill="white"/>
<path d="M133.794 49.828C133.984 50.1074 134.432 50.9846 134.829 51.81C135.227 52.6353 135.687 53.3386 135.912 53.4034C136.432 53.5443 135.009 50.7679 134.15 49.9869C133.766 49.633 133.613 49.5795 133.794 49.828Z" fill="white"/>
<path d="M65.4493 75.051C65.2384 75.4576 66.0925 77.9387 66.4599 78.0261C66.6534 78.1007 66.5617 77.3824 66.2584 76.4253C65.6602 74.6445 65.6504 74.6136 65.4493 75.051Z" fill="white"/>
<path d="M104.846 72.0123C104.52 72.5913 104.416 73.3374 104.583 73.8623C104.888 74.7169 104.888 74.7169 105.008 73.4896C105.069 72.8248 105.359 71.9175 105.642 71.5223C105.915 71.0962 105.96 70.8101 105.744 70.8785C105.528 70.947 105.11 71.4529 104.846 72.0123Z" fill="white"/>
<path d="M62.4369 86.1292C63.313 87.822 64.2261 89.0954 65.5374 90.4465C67.5143 92.5039 68.0504 92.2661 66.1353 90.1891C65.1168 89.1189 63.9207 87.5955 63.4404 86.8304C62.361 85.0321 61.6308 84.5501 62.4369 86.1292Z" fill="white"/>
<path d="M60.7392 88.7055C60.9431 89.4562 63.2098 91.9994 63.7918 92.1207C64.3836 92.2729 64.3136 92.1592 62.348 90.0303C61.3603 88.9503 60.6316 88.3659 60.7392 88.7055Z" fill="white"/>
<path d="M101.759 81.891C101.168 82.3841 101.017 84.2664 101.517 85.0933C102.046 86.0127 103.357 86.7185 104.473 86.7044C105.426 86.7084 107.034 85.3496 107.211 84.41C107.423 83.2557 106.86 81.9056 105.985 81.5033C105.069 81.08 104.788 81.3728 105.119 82.5249C105.403 83.4202 104.858 84.2725 103.998 84.2392C103.302 84.1878 102.86 82.901 103.312 82.1805C103.899 81.2469 102.807 81.0155 101.759 81.891Z" fill="white"/>
<path d="M100.669 85.6338C101.159 86.4297 101.988 87.1181 102.146 86.8644C102.251 86.6611 100.59 84.7415 100.374 84.81C100.281 84.8393 100.399 85.2098 100.669 85.6338Z" fill="white"/>
<path d="M137.106 78.4024C137.851 80.0011 138.814 81.3264 138.952 81.011C139.1 80.7264 137.423 77.7926 136.866 77.3234C136.583 77.0733 136.67 77.4536 137.106 78.4024Z" fill="white"/>
<path d="M103.391 97.4424C104.888 97.3418 106.123 96.9505 106.016 96.6109C105.957 96.4256 105.156 96.5776 104.168 96.8906C102.696 97.391 102.561 97.5017 103.391 97.4424Z" fill="white"/>
</g>
<g opacity="0.2" clip-path="url(#clip0_155_38)">
<path d="M202.671 112.167C204.929 113.436 204.929 113.436 201.025 112.709C198.873 112.333 196.173 111.682 195.074 111.21C193.499 110.628 193.825 110.568 196.72 110.668C198.727 110.793 201.346 111.44 202.671 112.167Z" fill="white"/>
<path d="M193.364 112.796C221.879 118.2 243.678 130.519 257.666 149.201C262.73 155.884 266.906 165.171 268.644 173.5C269.753 178.969 269.844 181.392 269.013 189.561C268.176 197.81 267.625 200.193 265.107 205.678C254.986 228.42 231.07 244.902 200.098 250.467C177.193 254.601 152.757 252.272 132.394 244.072L124.536 240.842L105.857 249.591C95.5671 254.35 87.1082 258.175 86.9527 258.085C86.8774 257.999 88.6369 249.163 90.9179 238.425L95.114 218.941L90.8831 213.116C86.1302 206.615 81.6777 196.585 80.2915 189.084C78.1017 177.665 80.8184 162.521 86.8576 152.259C91.999 143.472 101.872 133.771 109.698 129.746L112.192 128.531L109.473 130.779L106.834 133.033L109.097 135.511C114.312 141.075 113.444 143.358 108.125 138.191C104.853 135.085 104.225 134.805 103.277 135.793C102.409 136.787 102.46 137.274 103.503 138.628C105.225 140.75 104.191 141.814 102.034 140.229C99.7152 138.634 98.4159 140.084 99.9567 142.517C100.614 143.606 101.081 145.166 101.026 146.05C100.936 147.495 100.7 147.399 98.738 145.262C95.9426 142.267 94.9795 143.497 96.8217 147.561C98.6689 151.544 98.0719 152.071 95.2765 149.076C93.3896 147.024 93.0734 146.924 92.5167 148.098C92.2308 148.806 92.6025 150.602 93.4658 152.268C95.348 155.689 94.6357 156.773 92.2168 154.205C88.5883 150.352 88.1724 153.147 91.5452 158.515C94.4011 163.126 93.5282 164.2 90.0604 160.357C87.8773 157.883 87.4056 157.693 86.8488 158.867C86.4777 159.65 86.7288 160.794 87.4766 161.727C89.4941 164.271 88.4759 166.383 86.3681 163.995C85.9164 163.483 85.2089 163.198 84.948 163.504C84.6069 163.805 86.0775 166.072 88.1753 168.621C90.3534 171.175 92.0498 173.698 92.0148 174.26C91.9798 174.822 91.6537 174.882 90.9611 174.356C90.5044 173.924 88.5924 172.274 86.7557 170.709C84.6179 168.802 83.5239 168.251 83.4739 169.053C83.4389 169.615 84.0864 170.865 84.9195 171.723C86.8917 173.699 86.8117 174.984 84.7594 174.292C81.5228 173.203 83.1742 176.449 87.766 180.362C92.127 184.1 93.9187 186.387 92.3131 186.287C91.9117 186.262 89.7438 184.838 87.5107 183.167C85.2023 181.411 83.2652 180.162 83.0947 180.313C82.2418 181.066 83.7527 183.981 85.77 185.235C88.3995 187.01 88.942 189.946 86.2221 188.325C82.4986 185.998 83.563 189.61 87.5576 192.761C91.2461 195.65 94.9951 200.155 93.7908 200.08C93.2289 200.045 91.4374 199.047 89.7412 197.813C85.9625 195.079 85.7369 196.113 89.0994 200.352C90.4395 202.128 91.3731 203.959 91.1775 204.511C90.9869 204.983 92.7936 207.03 95.2426 209.117C101.3 214.088 101.671 214.595 98.821 213.772L96.4526 212.98L98.3948 215.438C99.524 216.717 100.237 218.213 100.046 218.684C99.7753 219.151 100.353 220.235 101.186 221.092C103.308 223.24 103.103 225.242 100.93 223.897C98.6069 222.382 98.0601 223.396 99.9321 225.689C101.955 228.152 101.98 229.04 99.9326 228.268C97.7297 227.405 97.9155 228.303 100.525 231.69C102.764 234.569 103.311 236.135 102.026 236.055C101.625 236.03 100.707 235.247 99.9588 234.314C99.211 233.381 98.2926 232.598 97.8912 232.573C96.8476 232.508 97.0186 234.937 98.2231 236.301C98.8203 237.064 99.3173 238.143 99.2722 238.865C99.2072 239.909 98.9664 239.894 98.053 239.031C96.3768 237.476 95.504 238.55 96.9243 240.331C97.5968 241.179 98.5404 242.849 99.0324 244.008L100.021 246.246L112.323 240.243L124.62 234.319L127.977 236.06C138.686 241.402 153.774 245.001 169.751 245.997C199.937 247.878 225.314 240.272 244.087 223.55C252.274 216.323 256.312 211.013 260.144 202.548C262.286 197.926 262.642 196.095 263.217 186.862C263.853 177.956 263.752 175.693 262.426 171.097C255.533 147.215 232.654 127.656 201.202 118.926C191.462 116.143 172.245 114.14 161.733 114.693C151.542 115.267 138.899 117.703 129.346 120.976C124.986 122.397 121.373 123.462 121.223 123.291C120.696 122.694 134.092 117.242 140.985 115.254C155.751 111.097 178.546 110.019 193.364 112.796ZM94.3317 248.309C94.407 248.394 95.3904 248.133 96.6246 247.727L98.772 246.893L97.1308 244.776L95.4044 242.734L94.8329 245.439C94.502 246.869 94.2614 248.144 94.3317 248.309Z" fill="white"/>
<path d="M109.42 114.819C107.303 116.46 104.94 118.166 104.107 118.598C101.112 120.104 104.337 116.194 108.025 113.926C112.976 110.769 113.91 111.311 109.42 114.819Z" fill="white"/>
<path d="M117.664 117.025C114.98 118.711 110.435 121.813 107.725 123.901C104.851 126.059 103.18 127.003 103.727 125.989C105.161 123.66 112.095 118.451 117.002 116.016C123.072 113.01 123.439 113.597 117.664 117.025Z" fill="white"/>
<path d="M179.256 141.479C165.962 140.844 155.816 151.971 158.93 163.866C160.095 168.264 161.861 171.113 163.793 171.596C167.191 172.446 171.207 169.981 172.09 166.45C172.307 165.583 172.124 163.768 171.691 162.385C170.492 158.686 171.425 156.088 174.473 154.372C182.037 150.175 190.265 160.021 185.883 167.917C185 169.466 182.868 171.199 179.069 173.364C169.24 178.977 167.174 180.443 163.875 184.29C161.059 187.622 160.476 188.821 159.309 193.486C158.309 197.484 158.109 199.416 158.709 200.982C159.991 204.63 164.372 205.797 168.204 203.499C169.87 202.499 170.37 201.633 171.237 198.168C171.82 195.836 172.953 193.287 173.886 192.105C174.786 191.055 179.184 187.907 183.699 185.142C188.281 182.394 192.945 179.029 194.145 177.63C198.527 172.566 200.161 162.638 197.529 157.024L196.363 154.608L196.846 158.623C197.378 163.287 196.095 169.551 193.862 173.099C192.713 174.865 189.664 177.147 182.2 181.51C176.636 184.792 171.171 188.523 170.138 189.822C169.022 191.171 167.755 193.686 167.172 195.735C166.506 198.401 165.872 199.517 164.889 199.767C162.874 200.466 162.541 198.4 164.024 194.169C166.007 188.222 168.839 185.39 178.785 179.594C188.398 173.998 190.547 171.916 191.831 166.785C194.081 157.506 187.168 148.06 178.206 148.225C170.226 148.424 164.795 155.137 166.793 162.434C167.692 165.633 166.842 167.615 165.126 166.832C163.594 166.165 161.979 158.752 162.712 155.82C164.062 150.423 170.043 145.476 176.574 144.277C180.289 143.578 187.119 145.145 190.1 147.377C192.965 149.51 193.415 149.127 191 146.611C189.534 145.112 182.854 141.246 182.271 141.596C182.255 141.662 180.855 141.596 179.256 141.479Z" fill="white"/>
<path d="M194.548 147.427C196.547 150.193 197.397 150.76 197.197 149.294C197.097 148.277 194.249 145.228 193.249 144.978C192.983 144.912 193.549 146.045 194.548 147.427Z" fill="white"/>
<path d="M155.099 153.703C154.533 154.836 154.383 156.568 154.649 158.051C155.082 160.567 155.082 160.567 155.682 156.469C156.399 151.621 156.349 151.254 155.099 153.703Z" fill="white"/>
<path d="M81.3497 159.17C81.0588 159.957 80.5073 162.341 80.0461 164.569C79.5849 166.797 78.8979 168.769 78.3962 169.06C77.2272 169.712 78.987 162.165 80.5871 159.767C81.2994 158.683 81.6356 158.462 81.3497 159.17Z" fill="white"/>
<path d="M261.219 178.84C261.971 179.693 261.406 186.185 260.573 186.617C260.151 186.913 259.94 185.127 260.095 182.638C260.466 177.987 260.471 177.907 261.219 178.84Z" fill="white"/>
<path d="M175.469 193.987C174.236 194.67 173.219 195.903 172.936 197.035C172.536 198.918 172.536 198.918 174.119 196.836C174.969 195.703 176.501 194.387 177.451 193.987C178.417 193.521 178.817 193.055 178.351 192.938C177.884 192.821 176.568 193.271 175.469 193.987Z" fill="white"/>
<path d="M275.142 203.724C274.049 208.331 272.615 211.949 270.267 215.993C266.741 222.14 265.306 221.89 268.672 215.732C270.482 212.541 272.448 208.15 273.145 206.018C274.665 201.035 276.135 199.434 275.142 203.724Z" fill="white"/>
<path d="M280.783 208.911C280.743 210.843 276.811 218.335 275.481 218.978C274.146 219.7 274.247 219.384 277.703 213.072C279.433 209.875 280.838 208.028 280.783 208.911Z" fill="white"/>
<path d="M158.908 208.394C157.292 208.628 154.926 211.859 154.909 213.908C154.842 216.157 156.424 218.889 158.457 220.106C160.172 221.172 164.587 220.506 165.953 219.007C167.619 217.158 168.103 214.093 166.97 212.394C165.788 210.611 164.955 210.827 164.271 213.276C163.788 215.209 161.856 216.141 160.34 215.125C159.14 214.258 159.774 211.443 161.39 210.644C163.489 209.611 161.773 207.978 158.908 208.394Z" fill="white"/>
<path d="M152.777 213.941C152.777 215.924 153.509 218.09 154.076 217.806C154.492 217.557 153.627 212.242 153.16 212.126C152.96 212.076 152.76 212.875 152.777 213.941Z" fill="white"/>
<path d="M90.5551 230.021C89.723 234.321 88.1983 238.095 87.6764 237.417C87.1494 236.82 89.4259 228.742 90.4843 227.276C91.016 226.504 91.0363 227.472 90.5551 230.021Z" fill="white"/>
<path d="M183.255 255.624C179.587 256.282 176.376 256.081 176.431 255.198C176.461 254.717 178.483 254.601 181.052 254.761C184.9 255.081 185.292 255.267 183.255 255.624Z" fill="white"/>
</g>
<defs>
<clipPath id="clip0_155_38">
<rect width="241.314" height="168.115" fill="white" transform="matrix(-0.996756 0.0804802 0.0804802 0.996756 287.758 93.4111)"/>
</clipPath>
</defs>
</svg>
