<?xml version="1.0" standalone="no"?>
<!DOCTYPE svg PUBLIC "-//W3C//DTD SVG 20010904//EN"
 "http://www.w3.org/TR/2001/REC-SVG-20010904/DTD/svg10.dtd">
<svg version="1.0" xmlns="http://www.w3.org/2000/svg"
 width="300.000000pt" height="300.000000pt" viewBox="0 0 300.000000 300.000000"
 preserveAspectRatio="xMidYMid meet">
<metadata>
Created by potrace 1.10, written by Peter Selinger 2001-2011
</metadata>
<g transform="translate(0.000000,300.000000) scale(0.100000,-0.100000)"
fill="white" stroke="none">
<path d="M2629 2076 c-2 -2 -80 -14 -174 -25 -93 -11 -196 -27 -228 -36 -32
-8 -60 -15 -62 -15 -13 0 -2 -28 13 -36 10 -5 36 -28 57 -52 l38 -43 -21 -15
c-19 -13 -110 -90 -253 -213 l-39 -33 -53 45 c-78 66 -144 106 -217 128 l-65
19 -95 -92 c-53 -51 -181 -159 -285 -240 -175 -134 -191 -145 -205 -129 -37
42 -151 71 -275 71 -87 0 -86 1 -293 -196 -138 -132 -199 -204 -173 -204 6 0
44 -29 86 -65 l77 -65 74 0 74 0 62 67 c35 37 91 97 124 132 l61 64 36 -22
c32 -20 89 -76 98 -98 2 -4 49 -6 105 -3 l100 5 45 47 c24 25 100 92 169 149
69 56 162 141 207 187 l81 85 101 -92 101 -91 87 0 88 0 64 68 c35 37 68 66
72 64 5 -1 9 4 10 10 0 11 124 111 177 143 15 9 48 45 64 69 5 7 12 5 20 -6
16 -22 85 -51 92 -39 3 5 18 12 33 15 77 18 89 31 99 107 2 14 13 65 24 113
11 48 20 108 20 135 0 45 -2 49 -39 69 -36 20 -72 28 -82 18z m27 -33 c-4 -9
-25 -88 -47 -177 -49 -198 -58 -226 -71 -226 -17 0 -87 77 -94 104 -3 14 -8
26 -11 26 -2 0 -35 -25 -73 -55 -38 -30 -71 -55 -72 -55 -6 0 -182 -163 -275
-255 -64 -62 -87 -79 -101 -74 -10 4 -72 56 -136 116 -173 159 -145 155 -269
34 -122 -119 -271 -241 -294 -241 -9 0 -13 -3 -10 -6 4 -4 -22 -28 -57 -54
-34 -27 -81 -69 -103 -94 l-41 -47 -22 32 c-23 31 -81 72 -177 124 l-52 28
-51 -43 c-42 -35 -121 -125 -227 -258 -13 -16 -9 -18 -132 85 l-26 22 145 146
c167 169 215 206 275 213 55 6 128 -26 209 -92 l58 -48 27 26 c15 15 30 23 34
19 4 -3 7 0 7 8 0 8 66 63 147 124 180 135 316 249 367 305 37 41 38 41 52 22
8 -11 66 -60 129 -107 63 -48 118 -91 121 -96 12 -19 34 -5 159 107 72 63 160
138 196 166 l67 51 -61 56 -60 56 44 13 c24 7 118 21 209 33 91 11 170 21 175
24 27 10 47 4 41 -12z m64 -14 l25 -20 -30 4 c-16 2 -24 2 -17 0 18 -6 4 -23
-20 -23 -14 0 -18 5 -14 16 3 9 6 22 6 30 0 20 21 17 50 -7z m10 -48 c0 -13
-8 -17 -47 -26 -26 -5 -33 -3 -33 9 0 9 12 16 33 19 17 2 35 5 40 5 4 1 7 -2
7 -7z m-6 -51 c-5 -4 -26 -11 -46 -14 -55 -10 -51 17 5 30 40 9 59 1 41 -16z
m-4 -30 c0 -5 -13 -10 -29 -10 -16 0 -36 -3 -45 -6 -9 -3 -16 -1 -16 4 0 10
24 16 73 21 9 0 17 -3 17 -9z m-6 -34 c-5 -14 -82 -31 -93 -21 -11 12 33 35
66 35 23 0 31 -4 27 -14z m-10 -36 c-5 -5 -27 -14 -49 -20 l-40 -10 43 5 c42
5 42 5 36 -22 -8 -34 -1 -29 -52 -37 l-43 -6 7 37 c8 45 11 50 44 56 47 8 64
7 54 -3z m-1023 -69 c-11 -7 -4 -11 25 -14 l39 -4 -36 -1 c-22 -1 -42 4 -49
13 -10 13 -9 15 11 15 18 0 21 -2 10 -9z m1009 -30 c0 -5 -15 -12 -32 -16 -18
-4 -41 -9 -50 -11 -12 -4 -18 0 -18 10 0 14 16 18 83 24 9 1 17 -2 17 -7z
m-907 -18 c-2 -8 7 -13 21 -13 14 0 28 -4 31 -10 4 -6 -13 -10 -43 -10 -38 0
-55 6 -78 25 l-29 26 50 -3 c34 -2 49 -7 48 -15z m655 -16 c23 -13 23 -13 3
-31 -16 -15 -29 -17 -67 -11 l-46 7 23 24 c25 27 52 30 87 11z m236 -6 c-5 -5
-28 -12 -51 -16 -60 -9 -55 10 5 22 50 10 62 8 46 -6z m-804 -31 c11 -7 0 -10
-37 -10 -28 0 -55 5 -58 10 -8 13 75 13 95 0z m523 -20 c10 0 15 -4 12 -10 -3
-5 -33 -10 -67 -10 -54 0 -59 2 -47 16 9 12 23 14 49 10 19 -3 43 -6 53 -6z
m-493 -10 c11 -7 2 -10 -32 -10 -26 0 -50 5 -53 10 -8 13 65 13 85 0z m45 -30
c4 -6 -11 -10 -39 -10 -25 0 -48 5 -51 10 -4 6 11 10 39 10 25 0 48 -4 51 -10z
m421 -5 c-13 -10 -42 -15 -80 -15 -56 1 -59 2 -42 15 13 10 42 15 80 15 56 -1
59 -2 42 -15z m-61 -45 c-14 -15 -31 -20 -73 -20 -54 0 -55 0 -37 20 14 15 31
20 73 20 54 0 55 0 37 -20z m-648 -16 c41 -31 38 -38 -8 -23 -19 6 -40 13 -48
15 -11 3 -11 7 -1 19 16 20 17 19 57 -11z m-16 -31 c16 -3 29 -10 29 -15 0 -6
-10 -8 -22 -4 -13 3 -43 6 -67 6 -38 0 -42 2 -30 16 8 10 21 13 37 9 13 -3 37
-9 53 -12z m614 7 c-3 -5 -31 -10 -61 -10 -34 0 -53 4 -49 10 3 6 31 10 61 10
34 0 53 -4 49 -10z m-54 -40 c-15 -14 -38 -20 -69 -20 -44 0 -45 0 -27 20 14
15 31 20 69 20 l51 -1 -24 -19z m-566 4 c14 -6 13 -9 -6 -30 -20 -21 -32 -24
-93 -24 -56 0 -67 3 -58 12 8 8 37 12 80 11 73 -3 73 2 -1 12 -26 3 -45 10
-42 16 7 10 94 12 120 3z m515 -49 c-8 -9 -30 -15 -57 -15 -39 0 -44 2 -33 15
8 9 30 15 57 15 39 0 44 -2 33 -15z m-565 -25 c-3 -5 -38 -10 -76 -10 -44 0
-68 4 -64 10 3 6 38 10 76 10 44 0 68 -4 64 -10z m530 -10 c-3 -5 -26 -10 -51
-10 -28 0 -43 4 -39 10 3 6 26 10 51 10 28 0 43 -4 39 -10z m-560 -20 c-3 -5
-38 -10 -76 -10 -44 0 -68 4 -64 10 3 6 38 10 76 10 44 0 68 -4 64 -10z m-562
-19 c8 -8 -1 -11 -39 -10 -44 1 -46 2 -19 9 29 8 29 9 -7 7 -20 -1 -41 2 -45
7 -12 13 97 0 110 -13z m1086 4 c-8 -8 -37 -17 -64 -20 -39 -3 -43 -2 -20 4
17 5 22 9 12 10 -39 2 -3 21 41 21 41 0 45 -2 31 -15z m-557 -17 c-7 -9 -33
-12 -83 -10 -92 5 -72 22 25 22 54 0 66 -3 58 -12z m-496 -12 c18 -18 18 -26
0 -26 -8 0 -16 -5 -18 -11 -4 -11 -38 -2 -38 11 0 5 6 10 13 13 6 2 4 3 -6 1
-11 -1 -26 0 -35 4 -12 5 -4 9 23 13 22 3 41 7 43 8 2 0 10 -5 18 -13z m439
-34 c-28 -27 -34 -28 -95 -23 -40 4 -60 9 -52 14 7 5 36 6 65 3 l52 -5 -48 12
c-64 16 -50 27 37 27 l71 0 -30 -28z m-59 -51 c-15 -16 -27 -18 -79 -14 -34 3
-64 8 -67 10 -13 12 33 23 94 23 67 0 69 -1 52 -19z m-58 -27 c19 -6 3 -26
-16 -20 -10 2 -39 7 -66 11 -62 8 -42 24 22 18 26 -3 53 -6 60 -9z m-545 -39
c38 -19 44 -39 13 -41 -15 -2 -15 -1 0 3 12 3 4 11 -26 24 -24 11 -45 17 -48
14 -3 -2 10 -11 29 -19 41 -18 30 -20 -23 -4 l-40 12 24 18 c13 9 25 16 28 15
3 -1 22 -11 43 -22z m527 8 c11 -10 -37 -33 -60 -29 -14 3 -42 7 -64 11 -35 6
-37 7 -20 20 14 10 36 12 79 8 33 -3 62 -8 65 -10z m-77 -39 c52 -11 14 -21
-56 -16 -58 4 -66 6 -55 19 11 14 25 14 111 -3z m-469 -14 c29 -11 29 -11 10
-30 -17 -17 -28 -19 -87 -13 l-68 6 28 29 c30 31 53 33 117 8z m450 -16 c27
-10 -48 -66 -92 -69 -20 -1 -57 -5 -81 -10 -32 -6 -42 -5 -37 3 4 7 26 13 49
13 l42 2 -35 6 c-59 10 -16 23 58 17 45 -3 57 -2 37 3 -16 5 -45 9 -64 10 -29
1 -32 3 -21 16 13 15 111 22 144 9z m-505 -40 l32 -7 -27 -28 c-22 -23 -32
-27 -63 -23 -66 9 -82 14 -75 25 4 6 32 8 73 5 44 -3 56 -2 36 3 -16 5 -45 9
-63 10 -19 1 -31 5 -27 11 7 11 67 13 114 4z m-40 -70 c11 -10 -10 -12 -62 -7
-31 3 -57 10 -57 14 0 8 109 1 119 -7z m-56 -19 c63 -10 31 -31 -42 -27 -56 4
-60 5 -50 23 6 13 17 18 32 15 12 -3 39 -8 60 -11z m0 -51 c-4 -12 -14 -14
-36 -10 -16 3 -45 6 -64 6 -20 0 -32 4 -28 10 3 6 35 10 70 10 55 0 63 -2 58
-16z m-43 -24 c18 -6 6 -8 -43 -9 -43 -1 -66 3 -62 9 7 12 69 12 105 0z"/>
<path d="M680 1118 c0 -4 12 -8 28 -8 15 0 38 -3 52 -7 14 -3 22 -2 18 2 -11
12 -98 23 -98 13z"/>
</g>
</svg>
