<svg width="328" height="161" viewBox="0 0 328 161" fill="none" xmlns="http://www.w3.org/2000/svg">
<g clip-path="url(#clip0_71_38)">
<path d="M311.533 1.20001C311.267 1.46668 300.867 3.06668 288.333 4.53335C275.933 6.00001 262.2 8.13335 257.933 9.33335C253.667 10.4 249.933 11.3333 249.667 11.3333C247.933 11.3333 249.4 15.0667 251.4 16.1333C252.733 16.8 256.2 19.8667 259 23.0667L264.067 28.8L261.267 30.8C258.733 32.5333 246.6 42.8 227.533 59.2L222.333 63.6L215.267 57.6C204.867 48.8 196.067 43.4667 186.333 40.5333L177.667 38L165 50.2667C157.933 57.0667 140.867 71.4667 127 82.2667C103.667 100.133 101.533 101.6 99.6667 99.4667C94.7333 93.8667 79.5333 90 63 90C51.4 90 51.5333 89.8667 23.9333 116.133C5.53333 133.733 -2.6 143.333 0.866662 143.333C1.66666 143.333 6.73333 147.2 12.3333 152L22.6 160.667H32.4667H42.3333L50.6 151.733C55.2667 146.8 62.7333 138.8 67.1333 134.133L75.2667 125.6L80.0667 128.533C84.3333 131.2 91.9333 138.667 93.1333 141.6C93.4 142.133 99.6667 142.4 107.133 142L120.467 141.333L126.467 135.067C129.667 131.733 139.8 122.8 149 115.2C158.2 107.733 170.6 96.4 176.6 90.2667L187.4 78.9333L200.867 91.2L214.333 103.333H225.933H237.667L246.2 94.2667C250.867 89.3333 255.267 85.4667 255.8 85.7333C256.467 85.8667 257 85.2 257.133 84.4C257.133 82.9333 273.667 69.6 280.733 65.3333C282.733 64.1333 287.133 59.3333 289.267 56.1333C289.933 55.2 290.867 55.4667 291.933 56.9333C294.067 59.8667 303.267 63.7333 304.2 62.1333C304.6 61.4667 306.6 60.5333 308.6 60.1333C318.867 57.7333 320.467 56 321.8 45.8667C322.067 44 323.533 37.2 325 30.8C326.467 24.4 327.667 16.4 327.667 12.8C327.667 6.80001 327.4 6.26668 322.467 3.60001C317.667 0.933345 312.867 -0.133321 311.533 1.20001ZM315.133 5.60001C314.6 6.80001 311.8 17.3333 308.867 29.2C302.333 55.6 301.133 59.3333 299.4 59.3333C297.133 59.3333 287.8 49.0667 286.867 45.4667C286.467 43.6 285.8 42 285.4 42C285.133 42 280.733 45.3333 275.667 49.3333C270.6 53.3333 266.2 56.6667 266.067 56.6667C265.267 56.6667 241.8 78.4 229.4 90.6667C220.867 98.9334 217.8 101.2 215.933 100.533C214.6 100 206.333 93.0667 197.8 85.0667C174.733 63.8667 178.467 64.4 161.933 80.5333C145.667 96.4 125.8 112.667 122.733 112.667C121.533 112.667 121 113.067 121.4 113.467C121.933 114 118.467 117.2 113.8 120.667C109.267 124.267 103 129.867 100.067 133.2L94.6 139.467L91.6667 135.2C88.6 131.067 80.8667 125.6 68.0667 118.667L61.1333 114.933L54.3333 120.667C48.7333 125.333 38.2 137.333 24.0667 155.067C22.3333 157.2 22.8667 157.467 6.46666 143.733L3 140.8L22.3333 121.333C44.6 98.8 51 93.8667 59 92.9334C66.3333 92.1334 76.0667 96.4 86.8667 105.2L94.6 111.6L98.2 108.133C100.2 106.133 102.2 105.067 102.733 105.6C103.267 106 103.667 105.6 103.667 104.533C103.667 103.467 112.467 96.1334 123.267 88C147.267 70 165.4 54.8 172.2 47.3333C177.133 41.8667 177.267 41.8667 179.133 44.4C180.2 45.8667 187.933 52.4 196.333 58.6667C204.733 65.0667 212.067 70.8 212.467 71.4667C214.067 74 217 72.1333 233.667 57.2C243.267 48.8 255 38.8 259.8 35.0667L268.733 28.2667L260.6 20.8L252.6 13.3333L258.467 11.6C261.667 10.6667 274.2 8.80001 286.333 7.20001C298.467 5.73335 309 4.40001 309.667 4.00001C313.267 2.66668 315.933 3.46668 315.133 5.60001ZM323.667 7.46668L327 10.1333L323 9.60001C320.867 9.33335 319.8 9.33335 320.733 9.60001C323.133 10.4 321.267 12.6667 318.067 12.6667C316.2 12.6667 315.667 12 316.2 10.5333C316.6 9.33335 317 7.60001 317 6.53335C317 3.86668 319.8 4.26668 323.667 7.46668ZM325 13.8667C325 15.6 323.933 16.1333 318.733 17.3333C315.267 18 314.333 17.7333 314.333 16.1333C314.333 14.9333 315.933 14 318.733 13.6C321 13.3333 323.4 12.9333 324.067 12.9333C324.6 12.8 325 13.2 325 13.8667ZM324.2 20.6667C323.533 21.2 320.733 22.1333 318.067 22.5333C310.733 23.8667 311.267 20.2667 318.733 18.5333C324.067 17.3333 326.6 18.4 324.2 20.6667ZM323.667 24.6667C323.667 25.3333 321.933 26 319.8 26C317.667 26 315 26.4 313.8 26.8C312.6 27.2 311.667 26.9333 311.667 26.2667C311.667 24.9333 314.867 24.1333 321.4 23.4667C322.6 23.4667 323.667 23.8667 323.667 24.6667ZM322.867 29.2C322.2 31.0667 311.933 33.3333 310.467 32C309 30.4 314.867 27.3333 319.267 27.3333C322.333 27.3333 323.4 27.8667 322.867 29.2ZM321.533 34C320.867 34.6667 317.933 35.8667 315 36.6667L309.667 38L315.4 37.3333C321 36.6667 321 36.6667 320.2 40.2667C319.133 44.8 320.067 44.1333 313.267 45.2L307.533 46L308.467 41.0667C309.533 35.0667 309.933 34.4 314.333 33.6C320.6 32.5333 322.867 32.6667 321.533 34ZM185.133 43.2C183.667 44.1333 184.6 44.6667 188.467 45.0667L193.667 45.6L188.867 45.7333C185.933 45.8667 183.267 45.2 182.333 44C181 42.2667 181.133 42 183.8 42C186.2 42 186.6 42.2667 185.133 43.2ZM319.667 47.2C319.667 47.8667 317.667 48.8 315.4 49.3333C313 49.8667 309.933 50.5333 308.733 50.8C307.133 51.3333 306.333 50.8 306.333 49.4667C306.333 47.6 308.467 47.0667 317.4 46.2667C318.6 46.1333 319.667 46.5333 319.667 47.2ZM198.733 49.6C198.467 50.6667 199.667 51.3333 201.533 51.3333C203.4 51.3333 205.267 51.8667 205.667 52.6667C206.2 53.4667 203.933 54 199.933 54C194.867 54 192.6 53.2 189.533 50.6667L185.667 47.2L192.333 47.6C196.867 47.8667 198.867 48.5333 198.733 49.6ZM286.067 51.7333C289.133 53.4667 289.133 53.4667 286.467 55.8667C284.333 57.8667 282.6 58.1333 277.533 57.3333L271.4 56.4L274.467 53.2C277.8 49.6 281.4 49.2 286.067 51.7333ZM317.533 52.5333C316.867 53.2 313.8 54.1333 310.733 54.6667C302.733 55.8667 303.4 53.3333 311.4 51.7333C318.067 50.4 319.667 50.6667 317.533 52.5333ZM210.333 56.6667C211.8 57.6 210.333 58 205.4 58C201.667 58 198.067 57.3333 197.667 56.6667C196.6 54.9333 207.667 54.9333 210.333 56.6667ZM280.067 59.3333C281.4 59.3333 282.067 59.8667 281.667 60.6667C281.267 61.3333 277.267 62 272.733 62C265.533 62 264.867 61.7333 266.467 59.8667C267.667 58.2667 269.533 58 273 58.5333C275.533 58.9333 278.733 59.3333 280.067 59.3333ZM214.333 60.6667C215.8 61.6 214.6 62 210.067 62C206.6 62 203.4 61.3333 203 60.6667C201.933 58.9333 211.667 58.9333 214.333 60.6667ZM220.333 64.6667C220.867 65.4667 218.867 66 215.133 66C211.8 66 208.733 65.3333 208.333 64.6667C207.8 63.8667 209.8 63.3333 213.533 63.3333C216.867 63.3333 219.933 63.8667 220.333 64.6667ZM276.467 65.3333C274.733 66.6667 270.867 67.3333 265.8 67.3333C258.333 67.2 257.933 67.0667 260.2 65.3333C261.933 64 265.8 63.3333 270.867 63.3333C278.333 63.4667 278.733 63.6 276.467 65.3333ZM268.333 71.3333C266.467 73.3333 264.2 74 258.6 74C251.4 74 251.267 74 253.667 71.3333C255.533 69.3333 257.8 68.6667 263.4 68.6667C270.6 68.6667 270.733 68.6667 268.333 71.3333ZM181.933 73.4667C187.4 77.6 187 78.5333 180.867 76.5333C178.333 75.7333 175.533 74.8 174.467 74.5333C173 74.1333 173 73.6 174.333 72C176.467 69.3333 176.6 69.4667 181.933 73.4667ZM179.8 77.6C181.933 78 183.667 78.9333 183.667 79.6C183.667 80.4 182.333 80.6667 180.733 80.1333C179 79.7333 175 79.3333 171.8 79.3333C166.733 79.3333 166.2 79.0667 167.8 77.2C168.867 75.8667 170.6 75.4667 172.733 76C174.467 76.4 177.667 77.2 179.8 77.6ZM261.667 76.6667C261.267 77.3333 257.533 78 253.533 78C249 78 246.467 77.4667 247 76.6667C247.4 75.8667 251.133 75.3333 255.133 75.3333C259.667 75.3333 262.2 75.8667 261.667 76.6667ZM254.467 82C252.467 83.8667 249.4 84.6667 245.267 84.6667C239.4 84.6667 239.267 84.6667 241.667 82C243.533 80 245.8 79.3333 250.867 79.3333L257.667 79.4667L254.467 82ZM179 81.4667C180.867 82.2667 180.733 82.6667 178.2 85.4667C175.533 88.2667 173.933 88.6667 165.8 88.6667C158.333 88.6667 156.867 88.2667 158.067 87.0667C159.133 86 163 85.4667 168.733 85.6C178.467 86 178.467 85.3333 168.6 84C165.133 83.6 162.6 82.6667 163 81.8667C163.933 80.5333 175.533 80.2667 179 81.4667ZM247.667 88C246.6 89.2 243.667 90 240.067 90C234.867 90 234.2 89.7333 235.667 88C236.733 86.8 239.667 86 243.267 86C248.467 86 249.133 86.2667 247.667 88ZM172.333 91.3334C171.933 92 167.267 92.6667 162.2 92.6667C156.333 92.6667 153.133 92.1334 153.667 91.3334C154.067 90.5334 158.733 90 163.8 90C169.667 90 172.867 90.5334 172.333 91.3334ZM243 92.6667C242.6 93.3334 239.533 94 236.2 94C232.467 94 230.467 93.4667 231 92.6667C231.4 91.8667 234.467 91.3334 237.8 91.3334C241.533 91.3334 243.533 91.8667 243 92.6667ZM168.333 95.3334C167.933 96 163.267 96.6667 158.2 96.6667C152.333 96.6667 149.133 96.1334 149.667 95.3334C150.067 94.5334 154.733 94 159.8 94C165.667 94 168.867 94.5334 168.333 95.3334ZM93.4 97.8667C94.4667 98.9334 93.2667 99.3334 88.2 99.2C82.3333 99.0667 82.0667 98.9334 85.6667 98C89.5333 96.9334 89.5333 96.8 84.7333 97.0667C82.0667 97.2 79.2667 96.8 78.7333 96.1334C77.1333 94.4 91.6667 96.1334 93.4 97.8667ZM238.2 97.3334C237.133 98.4 233.267 99.6 229.667 100C224.467 100.4 223.933 100.267 227 99.4667C229.267 98.8 229.933 98.2667 228.6 98.1334C223.4 97.8667 228.2 95.3334 234.067 95.3334C239.533 95.3334 240.067 95.6 238.2 97.3334ZM163.933 99.6C163 100.8 159.533 101.2 152.867 100.933C140.6 100.267 143.267 98 156.2 98C163.4 98 165 98.4 163.933 99.6ZM97.8 101.2C100.2 103.6 100.2 104.667 97.8 104.667C96.7333 104.667 95.6667 105.333 95.4 106.133C94.8667 107.6 90.3333 106.4 90.3333 104.667C90.3333 104 91.1333 103.333 92.0667 102.933C92.8667 102.667 92.6 102.533 91.2667 102.8C89.8 102.933 87.8 102.8 86.6 102.267C85 101.6 86.0667 101.067 89.6667 100.533C92.6 100.133 95.1333 99.6 95.4 99.4667C95.6667 99.4667 96.7333 100.133 97.8 101.2ZM156.333 105.733C152.6 109.333 151.8 109.467 143.667 108.8C138.333 108.267 135.667 107.6 136.733 106.933C137.667 106.267 141.533 106.133 145.4 106.533L152.333 107.2L145.933 105.6C137.4 103.467 139.267 102 150.867 102H160.333L156.333 105.733ZM148.467 112.533C146.467 114.667 144.867 114.933 137.933 114.4C133.4 114 129.4 113.333 129 113.067C127.267 111.467 133.4 110 141.533 110C150.467 110 150.733 110.133 148.467 112.533ZM140.733 116.133C143.267 116.933 141.133 119.6 138.6 118.8C137.267 118.533 133.4 117.867 129.8 117.333C121.533 116.267 124.2 114.133 132.733 114.933C136.2 115.333 139.8 115.733 140.733 116.133ZM68.0667 121.333C73.1333 123.867 73.9333 126.533 69.8 126.8C67.8 127.067 67.8 126.933 69.8 126.4C71.4 126 70.3333 124.933 66.3333 123.2C63.1333 121.733 60.3333 120.933 59.9333 121.333C59.5333 121.6 61.2667 122.8 63.8 123.867C69.2667 126.267 67.8 126.533 60.7333 124.4L55.4 122.8L58.6 120.4C60.3333 119.2 61.9333 118.267 62.3333 118.4C62.7333 118.533 65.2667 119.867 68.0667 121.333ZM138.333 120.267C139.8 121.6 133.4 124.667 130.333 124.133C128.467 123.733 124.733 123.2 121.8 122.667C117.133 121.867 116.867 121.733 119.133 120C121 118.667 123.933 118.4 129.667 118.933C134.067 119.333 137.933 120 138.333 120.267ZM128.067 125.467C135 126.933 129.933 128.267 120.6 127.6C112.867 127.067 111.8 126.8 113.267 125.067C114.733 123.2 116.6 123.2 128.067 125.467ZM65.5333 127.333C69.4 128.8 69.4 128.8 66.8667 131.333C64.6 133.6 63.1333 133.867 55.2667 133.067L46.2 132.267L49.9333 128.4C53.9333 124.267 57 124 65.5333 127.333ZM125.533 129.467C129.133 130.8 119.133 138.267 113.267 138.667C110.6 138.8 105.667 139.333 102.467 140C98.2 140.8 96.8667 140.667 97.5333 139.6C98.0667 138.667 101 137.867 104.067 137.867L109.667 137.6L105 136.8C97.1333 135.467 102.867 133.733 112.733 134.533C118.733 134.933 120.333 134.8 117.667 134.133C115.533 133.467 111.667 132.933 109.133 132.8C105.267 132.667 104.867 132.4 106.333 130.667C108.067 128.667 121.133 127.733 125.533 129.467ZM58.2 134.8L62.4667 135.733L58.8667 139.467C55.9333 142.533 54.6 143.067 50.4667 142.533C41.6667 141.333 39.5333 140.667 40.4667 139.2C41 138.4 44.7333 138.133 50.2 138.533C56.0667 138.933 57.6667 138.8 55 138.133C52.8667 137.467 49 136.933 46.6 136.8C44.0667 136.667 42.4667 136.133 43 135.333C43.9333 133.867 51.9333 133.6 58.2 134.8ZM52.8667 144.133C54.3333 145.467 51.5333 145.733 44.6 145.067C40.4667 144.667 37 143.733 37 143.2C37 142.133 51.5333 143.067 52.8667 144.133ZM45.4 146.667C53.8 148 49.5333 150.8 39.8 150.267C32.3333 149.733 31.8 149.6 33.1333 147.2C33.9333 145.467 35.4 144.8 37.4 145.2C39 145.6 42.6 146.267 45.4 146.667ZM45.4 153.467C44.8667 155.067 43.5333 155.333 40.6 154.8C38.4667 154.4 34.6 154 32.0667 154C29.4 154 27.8 153.467 28.3333 152.667C28.7333 151.867 33 151.333 37.6667 151.333C45 151.333 46.0667 151.6 45.4 153.467ZM39.6667 156.667C42.0667 157.467 40.4667 157.733 33.9333 157.867C28.2 158 25.1333 157.467 25.6667 156.667C26.6 155.067 34.8667 155.067 39.6667 156.667Z" fill="white"/>
<path d="M51.6667 128.933C51.6667 129.467 53.2667 130 55.4 130C57.4 130 60.4667 130.4 62.3334 130.933C64.2 131.333 65.2667 131.2 64.7334 130.667C63.2667 129.067 51.6667 127.6 51.6667 128.933Z" fill="white"/>
</g>
<defs>
<clipPath id="clip0_71_38">
<rect width="328" height="161" fill="white"/>
</clipPath>
</defs>
</svg>
