<?xml version="1.0" standalone="no"?>
<!DOCTYPE svg PUBLIC "-//W3C//DTD SVG 20010904//EN"
 "http://www.w3.org/TR/2001/REC-SVG-20010904/DTD/svg10.dtd">
<svg version="1.0" xmlns="http://www.w3.org/2000/svg"
 width="300.000000pt" height="412.000000pt" viewBox="0 0 300.000000 412.000000"
 preserveAspectRatio="xMidYMid meet">
<metadata>
Created by potrace 1.10, written by Peter Selinger 2001-2011
</metadata>
<g transform="translate(0.000000,412.000000) scale(0.100000,-0.100000)"
fill="white" stroke="none">
<path d="M2833 4105 c-37 -16 -85 -77 -109 -141 -16 -42 -16 -47 0 -82 17 -37
16 -40 -3 -90 -32 -80 -89 -190 -111 -212 -11 -11 -33 -20 -50 -20 -16 0 -30
-4 -30 -10 0 -5 -26 -23 -57 -39 -91 -46 -258 -160 -378 -258 -60 -49 -135
-105 -165 -125 -51 -33 -244 -223 -367 -360 -62 -70 -76 -76 -28 -12 20 26 33
49 30 52 -3 4 -9 2 -13 -3 -4 -6 -39 -53 -78 -105 -39 -52 -104 -144 -144
-205 -40 -60 -76 -113 -79 -117 -4 -4 -53 -19 -110 -34 -115 -29 -235 -76
-267 -105 -11 -10 -22 -19 -25 -19 -2 0 -5 33 -7 73 -7 158 -27 226 -77 249
-20 9 -39 0 -167 -84 -79 -52 -166 -117 -194 -145 -49 -49 -122 -152 -158
-221 -17 -32 -17 -35 0 -53 16 -18 16 -21 -10 -59 -31 -48 -32 -52 -6 -75 20
-18 19 -19 -37 -53 -94 -56 -171 -113 -178 -130 -7 -20 20 -42 52 -42 22 0 22
-3 -23 -85 -52 -97 -53 -128 -3 -98 27 16 59 53 102 116 11 16 13 0 12 -87 0
-63 4 -106 10 -107 6 -1 31 40 56 91 l46 93 5 -77 c3 -42 10 -82 16 -88 20
-20 52 22 75 99 11 40 24 73 28 73 6 0 22 -37 55 -130 10 -29 22 12 33 125 18
175 18 173 49 177 19 2 28 9 30 26 2 14 10 22 23 22 10 0 19 5 19 10 0 6 12
10 26 10 28 0 94 36 94 51 0 5 4 9 9 9 5 0 8 -8 6 -17 -11 -54 -13 -93 -5 -93
12 0 30 66 30 108 0 17 5 32 10 32 6 0 10 9 10 19 0 13 11 23 33 30 35 11 232
61 241 61 4 0 -8 -28 -25 -62 -48 -95 -158 -353 -189 -443 -36 -107 -71 -185
-81 -185 -5 0 -4 -11 1 -25 10 -27 2 -32 -20 -12 -8 7 -7 3 3 -12 20 -29 12
-61 -9 -34 -9 12 -13 13 -14 5 0 -19 42 -72 57 -72 34 0 24 -33 -23 -81 l-48
-49 37 0 c30 0 37 -4 37 -19 0 -24 -25 -45 -46 -37 -12 5 -15 0 -12 -26 2 -20
9 -32 20 -34 22 -3 39 -13 83 -53 44 -38 54 -22 -74 -121 l-72 -55 31 -27 c24
-22 40 -28 76 -28 40 0 45 -2 39 -17 -4 -10 -10 -44 -13 -75 -4 -52 -2 -58 14
-58 27 0 37 9 69 60 l29 45 21 -85 c23 -94 30 -110 50 -110 23 0 42 27 60 82
10 29 21 57 25 61 4 5 19 -12 34 -36 34 -60 76 -108 86 -102 5 3 11 30 14 60
19 183 14 165 49 165 32 0 135 -24 144 -34 3 -2 2 -10 -2 -16 -5 -8 -11 -5
-21 7 -12 16 -13 13 -13 -27 0 -25 6 -110 14 -190 7 -79 12 -146 11 -148 -2
-1 -29 27 -60 63 -54 61 -86 79 -101 55 -3 -5 -15 -74 -27 -152 -19 -137 -26
-165 -35 -143 -2 6 -29 58 -61 115 -69 124 -89 136 -116 69 -9 -23 -30 -84
-47 -135 -16 -51 -33 -96 -38 -98 -4 -3 -20 52 -35 122 -34 157 -45 194 -58
186 -5 -3 -25 -31 -44 -61 -39 -60 -121 -150 -130 -141 -3 3 15 57 40 119 52
132 62 169 48 169 -5 0 -43 -16 -83 -35 -73 -34 -179 -67 -189 -58 -2 2 46 54
107 114 l111 110 -64 -6 c-83 -9 -179 2 -165 19 6 7 46 36 91 66 44 30 80 58
80 62 0 4 -17 10 -38 13 -85 14 -147 31 -145 40 1 6 73 43 160 83 145 67 206
102 175 102 -6 0 -76 -30 -154 -66 -79 -36 -164 -75 -190 -87 -27 -12 -48 -26
-48 -30 0 -14 104 -57 138 -57 44 0 40 -15 -15 -53 -64 -44 -103 -77 -103 -87
0 -14 61 -30 135 -37 l70 -5 -88 -86 c-114 -112 -115 -132 -5 -111 35 6 89 23
121 37 31 14 60 23 62 20 3 -2 -15 -55 -40 -116 -25 -62 -45 -119 -45 -127 0
-54 139 45 182 129 21 40 21 40 29 16 4 -14 18 -74 30 -133 13 -63 30 -118 40
-130 l19 -22 18 23 c10 13 35 75 56 138 23 70 42 114 49 111 7 -2 35 -42 62
-89 54 -94 81 -128 100 -128 16 0 20 16 40 170 9 69 21 129 25 133 12 13 150
-148 150 -174 0 -5 7 -9 16 -9 13 0 15 7 11 28 -3 15 -14 107 -23 206 -16 163
-16 179 -2 187 9 5 24 32 33 60 10 28 24 53 32 56 8 3 28 -7 45 -23 l31 -29
-6 77 -5 78 56 -8 c81 -10 186 -9 190 3 1 6 -6 11 -18 13 -11 2 -20 8 -20 13
0 5 24 37 53 71 188 224 270 323 326 398 36 47 66 87 68 89 2 2 6 2 9 -1 3 -4
-20 -45 -52 -92 -31 -47 -55 -89 -51 -92 6 -6 107 133 107 148 0 37 46 -37 91
-145 l29 -69 -50 -67 c-27 -36 -66 -94 -86 -128 -20 -35 -41 -63 -47 -63 -6 0
-25 12 -44 26 -41 31 -56 24 -23 -11 21 -23 22 -28 11 -64 -13 -46 -26 -57
-46 -41 -8 7 -15 7 -19 1 -8 -12 51 -81 70 -81 25 0 15 -18 -38 -64 -61 -53
-59 -71 4 -28 24 16 57 37 75 46 30 15 33 15 41 -1 11 -20 0 -57 -18 -68 -8
-5 -3 -15 16 -30 26 -21 27 -23 11 -46 -21 -30 -22 -49 -1 -49 12 0 14 -5 9
-17 -14 -32 -18 -73 -7 -73 6 0 25 24 43 54 29 48 35 53 52 44 24 -12 32 -1
41 53 12 77 56 52 56 -32 0 -46 -1 -48 -27 -46 -24 2 -28 -2 -31 -28 -6 -73
-23 -99 -35 -54 -10 38 -32 14 -57 -64 -14 -42 -28 -79 -32 -83 -5 -4 -8 18
-8 49 0 39 -4 57 -12 57 -7 -1 -33 -26 -58 -57 -57 -71 -62 -53 -21 69 31 91
29 105 -15 94 -13 -4 -24 -4 -24 -1 0 3 16 29 35 58 38 57 44 82 19 91 -25 10
-74 7 -74 -4 0 -5 14 -10 30 -10 17 0 30 -5 30 -11 0 -6 -15 -37 -34 -68 -48
-79 -48 -86 -5 -82 l36 2 -24 -70 c-13 -39 -26 -91 -30 -116 -8 -62 12 -60 71
7 l45 52 7 -41 c14 -91 44 -83 75 19 12 40 23 75 25 77 2 2 13 -4 23 -13 27
-25 39 -13 47 44 6 43 9 49 33 52 25 3 26 6 29 76 l3 72 44 0 c25 0 45 5 45
10 0 6 -6 10 -14 10 -8 0 -17 4 -21 10 -11 17 23 78 50 92 34 16 104 141 135
240 13 37 28 72 35 78 9 7 12 23 8 46 -4 23 -2 34 7 34 9 0 11 31 9 125 -3
105 -7 127 -23 142 -14 14 -20 15 -23 5 -5 -12 -113 -72 -131 -72 -4 0 -13 29
-19 64 -14 80 -56 176 -94 212 -16 15 -29 34 -29 41 0 7 38 86 84 176 98 188
156 318 197 437 24 70 29 77 25 43 -5 -53 10 -56 23 -5 34 124 67 651 56 897
-7 187 -21 282 -51 365 l-23 64 52 106 52 105 40 -3 c57 -4 97 24 129 91 30
60 37 140 15 174 -28 45 -98 68 -146 48z m101 -61 l49 -45 -29 -61 c-30 -64
-73 -108 -104 -108 -27 0 -34 17 -11 29 10 6 29 31 41 56 27 56 20 101 -18
118 -15 6 -28 12 -30 13 -9 5 25 44 38 44 8 -1 37 -21 64 -46z m-81 -86 c-4
-43 -9 -55 -19 -51 -10 4 -14 -3 -14 -22 l0 -28 -21 28 c-21 26 -21 28 -5 61
23 48 20 54 -9 19 -16 -20 -24 -25 -25 -14 0 21 40 56 70 61 14 2 26 4 26 3 1
0 -1 -26 -3 -57z m-82 -155 c-5 -10 -17 -27 -25 -38 -15 -19 -16 -19 -6 9 14
38 19 46 31 46 6 0 6 -6 0 -17z m-97 -274 c27 -67 45 -160 47 -238 1 -39 -1
-74 -3 -77 -3 -2 -25 7 -50 21 -43 24 -76 69 -59 79 15 9 10 90 -7 109 -14 15
-13 19 1 35 21 23 21 36 1 52 -13 12 -12 16 13 36 15 13 31 23 34 24 4 0 14
-19 23 -41z m-112 -32 c-7 -8 -7 -18 -2 -27 16 -25 12 -28 -32 -23 -63 8 -66
19 -12 46 51 26 65 27 46 4z m47 -103 c2 -2 1 -7 -2 -11 -8 -8 -107 37 -107
49 0 7 98 -27 109 -38z m-99 -15 c84 -33 107 -45 98 -54 -6 -6 -174 60 -195
77 -10 8 -13 4 -13 -14 0 -20 12 -29 83 -61 45 -21 91 -44 101 -52 26 -20 11
-33 -17 -15 -71 45 -184 100 -206 99 -19 0 0 -13 65 -44 97 -46 141 -80 52
-41 -128 58 -176 83 -170 92 4 5 23 20 42 32 40 25 50 24 160 -19z m-100 -96
c82 -32 170 -84 170 -100 0 -7 -30 4 -73 27 -67 36 -176 80 -199 80 -5 0 -6
-4 -3 -10 3 -5 1 -10 -4 -10 -6 0 -11 6 -11 14 0 9 -7 12 -20 9 -11 -3 -20 -1
-20 5 0 29 63 23 160 -15z m-103 -34 c32 -12 65 -29 73 -38 9 -10 48 -35 88
-55 81 -43 140 -92 204 -169 l43 -52 -60 54 c-114 103 -317 214 -442 242 -47
11 -51 14 -35 25 25 19 63 17 129 -7z m158 -42 c84 -42 169 -96 162 -103 -4
-4 -38 10 -94 39 -13 7 -23 15 -23 19 0 5 -10 8 -22 8 -13 1 -36 8 -53 16 -29
14 -27 14 25 0 14 -4 -9 12 -50 34 -94 51 -53 41 55 -13z m210 -1 c17 -13 27
-28 22 -32 -4 -4 -23 7 -41 25 -19 18 -39 30 -45 27 -7 -4 -9 -1 -5 8 7 18 21
12 69 -28z m-357 -41 c124 -50 244 -123 315 -193 82 -80 91 -100 83 -191 -3
-41 -8 -76 -10 -78 -2 -3 -38 31 -79 74 -48 50 -104 95 -155 126 -146 86 -394
187 -464 187 -33 0 -33 1 -12 18 132 108 125 105 179 99 27 -3 92 -22 143 -42z
m367 -16 c20 -22 20 -22 0 -11 -29 17 -55 38 -55 46 0 11 33 -10 55 -35z m-2
-30 c47 -40 57 -65 36 -86 -13 -13 -44 0 -65 27 -17 21 -7 31 24 24 24 -5 23
-2 -18 35 -59 53 -39 53 23 0z m-581 -80 c129 -42 323 -133 403 -187 l70 -48
8 -105 c5 -66 4 -112 -3 -127 -5 -13 -10 -32 -10 -42 0 -11 -6 -19 -12 -17 -8
1 -12 -6 -10 -17 2 -11 -1 -15 -8 -11 -7 4 -8 -6 -3 -37 12 -64 9 -147 -6
-200 -13 -44 -31 -65 -31 -35 0 6 -7 -1 -15 -17 -8 -15 -15 -42 -15 -60 0 -33
-19 -76 -20 -46 -1 8 -8 -1 -16 -20 -8 -19 -13 -43 -10 -52 5 -22 -12 -24 -20
-3 -11 27 -21 6 -28 -55 -4 -33 -11 -60 -16 -60 -5 0 -10 -19 -12 -42 l-3 -43
-23 39 c-18 31 -26 37 -33 25 -10 -16 -3 -90 18 -173 14 -57 12 -93 -6 -82 -4
3 -11 28 -15 56 -4 31 -11 48 -17 44 -6 -3 -16 2 -23 12 -16 22 -36 11 -29
-17 4 -15 8 -17 14 -8 9 15 22 -12 40 -87 8 -31 8 -49 1 -56 -11 -11 -16 0
-27 67 -6 33 -8 37 -17 21 -7 -12 -6 -38 2 -83 9 -44 9 -68 2 -75 -7 -7 -13 1
-21 24 -11 36 -25 151 -15 130 3 -6 9 -10 14 -7 5 3 1 20 -8 38 l-17 32 -6
-54 c-4 -29 -12 -58 -18 -64 -6 -6 -11 -31 -10 -57 l1 -45 14 33 c8 17 17 32
20 32 3 0 2 -5 -1 -11 -4 -6 -2 -31 5 -55 10 -34 10 -48 1 -57 -8 -8 -11 -4
-11 19 l-1 29 -20 -27 c-25 -33 -47 -34 -139 -9 -36 11 -92 26 -125 36 -33 9
-64 20 -70 24 -5 5 -49 20 -97 35 -101 30 -338 148 -448 222 -41 28 -90 56
-108 63 -35 15 -86 67 -97 100 -11 37 114 296 180 370 17 20 55 71 85 114 92
135 251 316 434 495 202 198 169 184 328 131z m552 -386 c36 -58 40 -77 9 -52
-15 13 -16 12 -9 -6 18 -44 27 -87 24 -108 -3 -18 -9 -12 -31 30 -29 56 -36
89 -12 57 13 -17 14 -16 8 21 -3 22 -9 42 -13 45 -9 6 -24 70 -17 70 3 0 21
-26 41 -57z m66 -4 c0 -23 -16 -25 -24 -3 -10 25 -7 34 9 28 8 -4 15 -15 15
-25z m-75 -168 c14 -35 24 -65 21 -68 -6 -7 -56 104 -56 125 0 22 5 14 35 -57z
m-1872 1 c9 -10 19 -37 23 -61 l7 -43 -34 6 c-30 5 -32 5 -11 -6 12 -6 22 -15
22 -20 0 -12 -13 -10 -39 8 -22 16 -22 16 -9 -5 14 -23 38 -27 56 -9 13 13 13
13 18 -65 2 -43 27 -87 49 -87 9 0 38 12 65 26 52 27 82 25 57 -4 -21 -26 -39
-77 -35 -104 2 -17 9 -22 26 -21 37 4 25 -23 -15 -35 -108 -33 -184 -49 -180
-38 22 58 30 119 19 136 -7 11 -12 28 -12 37 0 12 -19 26 -56 42 -31 13 -68
36 -83 51 -15 15 -42 35 -61 45 -19 10 -30 20 -23 22 6 2 25 -3 42 -11 16 -9
37 -16 46 -16 11 0 15 -6 11 -18 -5 -14 3 -23 30 -36 23 -10 39 -13 43 -7 4 6
13 4 25 -4 10 -8 15 -18 12 -23 -3 -6 1 -13 9 -16 9 -3 18 1 22 11 8 22 -40
63 -74 63 -14 0 -33 10 -43 23 -10 13 -37 32 -59 42 -22 11 -41 25 -41 30 0
14 140 105 161 105 9 0 23 -8 32 -18z m1847 -22 c30 -59 41 -90 31 -90 -5 0
-11 6 -14 13 -37 93 -46 117 -42 117 3 0 14 -18 25 -40z m-1 -76 c27 -70 11
-131 -17 -69 -15 32 -15 38 -2 30 13 -8 13 -7 -10 60 -36 105 -13 88 29 -21z
m75 14 c-8 -68 -24 -99 -21 -41 1 23 6 45 10 49 4 4 7 16 7 26 0 10 2 18 5 18
3 0 3 -24 -1 -52z m-2109 -99 c30 -22 82 -56 117 -75 35 -18 55 -34 46 -34
-25 0 -22 -21 3 -27 28 -8 21 -42 -31 -151 -45 -95 -47 -100 -22 -81 15 12 16
12 5 -2 -25 -32 -87 -43 -163 -30 -38 7 -68 17 -67 23 1 6 -29 28 -68 48 -73
38 -135 89 -135 109 0 7 4 10 10 6 10 -6 26 11 101 104 66 81 66 81 145 33 82
-49 169 -84 198 -80 14 2 -8 15 -61 37 -46 18 -108 51 -138 73 l-55 39 28 24
c15 13 28 25 30 25 2 0 27 -18 57 -41z m625 18 c0 -15 -80 -157 -114 -202 -14
-18 -37 -35 -51 -37 -31 -6 -32 4 -2 26 l22 17 -23 -7 c-23 -6 -23 -5 7 55 17
33 31 70 31 81 0 11 6 20 14 20 8 0 17 7 20 15 6 16 59 44 84 45 6 0 12 -6 12
-13z m-796 -62 c-15 -20 -29 -33 -31 -31 -7 7 36 66 48 66 6 0 -2 -16 -17 -35z
m2232 10 c-2 -5 -23 -55 -45 -110 -23 -54 -56 -130 -74 -166 l-32 -68 -21 20
-21 20 3 -28 c2 -16 1 -20 -2 -8 -4 11 -11 25 -16 32 -5 7 -7 17 -3 24 6 8 9
8 15 -1 11 -18 45 -4 60 25 11 20 10 30 -1 57 -19 47 -12 88 22 123 16 17 29
37 29 44 0 32 20 50 55 48 19 -1 33 -6 31 -12z m-1641 -82 c-40 -73 -55 -93
-55 -77 0 18 71 144 82 144 5 0 -7 -30 -27 -67z m24 -12 c-29 -53 -37 -46 -9
9 12 23 24 40 27 37 3 -3 -5 -24 -18 -46z m1456 -167 c-23 -36 -30 -23 -9 18
10 18 19 27 22 20 2 -7 -4 -24 -13 -38z m-2199 -58 c-9 -15 -21 -26 -26 -26
-16 0 -12 32 7 52 25 27 40 6 19 -26z m64 -5 c0 -19 -37 -53 -54 -50 -17 4
-16 6 4 32 21 26 50 37 50 18z m2084 -43 c4 -21 3 -38 -2 -38 -9 0 -22 46 -22
78 0 28 17 -1 24 -40z m-2044 6 c0 -21 -19 -54 -31 -54 -19 0 -21 31 -4 50 22
24 35 26 35 4z m2030 -82 c0 -7 -4 -10 -10 -7 -5 3 -10 17 -10 31 0 16 -4 23
-11 18 -7 -4 -10 -27 -7 -60 3 -30 1 -54 -4 -54 -4 0 -8 9 -8 19 0 11 -5 21
-10 23 -9 3 12 96 28 122 5 9 32 -66 32 -92z m-1980 59 c0 -30 -11 -51 -25
-51 -23 0 -27 20 -11 45 20 30 36 32 36 6z m670 -50 c0 -5 -7 -11 -15 -15 -10
-4 -15 1 -15 14 0 21 -29 28 -31 8 0 -10 -2 -10 -5 -1 -3 7 0 22 7 34 l12 23
23 -28 c13 -15 24 -31 24 -35z m-810 32 c0 -4 -25 -30 -55 -58 -30 -28 -55
-57 -55 -63 0 -19 30 -27 51 -14 27 17 29 15 29 -17 0 -44 14 -45 49 -6 l31
36 0 -29 c0 -36 22 -59 38 -40 5 7 13 29 17 48 10 48 23 70 40 70 12 0 15 -16
15 -74 0 -40 -3 -94 -6 -120 l-7 -48 -20 46 c-31 73 -52 62 -87 -49 -31 -96
-40 -101 -41 -25 -2 144 -25 152 -83 28 l-43 -93 5 72 c5 80 -2 123 -21 123
-6 -1 -36 -32 -66 -71 -60 -79 -78 -85 -36 -12 80 138 87 153 71 153 -8 0 -18
-4 -21 -10 -8 -13 -65 -13 -65 0 0 16 118 99 185 131 63 30 75 34 75 22z m190
-6 c0 -14 -20 -37 -32 -37 -12 0 -10 24 4 38 16 16 28 15 28 -1z m50 -21 c0
-20 -26 -40 -35 -26 -10 16 2 40 20 40 8 0 15 -6 15 -14z m571 -91 c10 -12 19
-26 19 -33 0 -23 -26 -12 -65 28 -21 22 -43 40 -48 40 -5 0 -15 6 -22 14 -12
11 -11 17 3 35 l17 21 38 -42 c21 -24 47 -52 58 -63z m1237 -25 c7 -66 -13
-40 -32 43 -9 38 -16 74 -15 80 2 26 42 -81 47 -123z m-1984 99 c30 -14 35
-25 29 -66 -6 -40 -20 -42 -34 -5 l-11 27 -24 -28 -24 -28 0 30 c0 41 -13 45
-49 15 -17 -14 -31 -21 -31 -16 0 16 82 82 101 82 10 0 29 -5 43 -11z m836
-39 c0 -5 7 -10 15 -10 14 0 14 -3 0 -30 -18 -34 -29 -40 -20 -9 6 18 5 19
-13 10 -32 -17 -35 -13 -15 19 17 30 33 39 33 20z m-179 -46 c5 -15 12 -24 15
-21 4 3 17 -7 29 -22 61 -72 453 -272 729 -372 47 -17 86 -35 86 -40 0 -5 -5
-8 -12 -6 -6 1 -14 -9 -18 -23 -5 -22 -7 -23 -13 -7 -4 10 -11 15 -17 12 -6
-4 -7 -11 -4 -17 5 -7 1 -9 -9 -5 -13 5 -17 1 -17 -17 0 -13 -6 -29 -14 -35
-7 -6 -16 -29 -20 -50 -3 -21 -13 -44 -21 -51 -13 -11 -13 -8 0 24 15 35 13
56 -4 56 -9 0 -21 -58 -21 -95 0 -35 -11 -85 -18 -85 -5 0 -6 16 -4 36 3 26 1
35 -7 30 -6 -4 -11 -18 -11 -31 0 -13 -5 -27 -10 -30 -6 -4 -8 -16 -4 -27 4
-14 2 -18 -5 -14 -6 4 -11 20 -11 37 0 16 -4 29 -10 29 -5 0 -10 -6 -10 -13 0
-7 -9 -18 -20 -25 -18 -11 -22 -9 -38 18 -20 35 -32 38 -32 8 l0 -21 -25 23
-25 23 0 -21 c0 -12 4 -22 10 -22 5 0 7 -7 3 -16 -4 -12 -7 -13 -14 -3 -15 25
-18 3 -3 -25 14 -29 11 -48 -5 -30 -13 13 -31 85 -20 79 12 -8 11 2 -1 26 -18
33 -25 21 -22 -36 3 -34 0 -55 -7 -55 -16 0 -41 55 -41 90 0 16 -5 30 -11 30
-8 0 -10 -14 -6 -39 6 -50 -7 -74 -28 -47 -24 31 -19 52 5 25 l21 -24 -15 30
c-8 17 -22 39 -31 50 -16 19 -16 17 -11 -35 4 -45 2 -52 -7 -36 -7 10 -22 31
-34 45 -20 24 -22 25 -40 9 -17 -15 -20 -14 -53 8 -19 13 -39 24 -45 24 -25 0
-180 119 -215 165 -15 19 -14 19 12 2 31 -19 38 -21 38 -8 0 15 -51 72 -60 66
-4 -2 -7 -27 -6 -55 1 -27 0 -50 -2 -50 -15 0 -64 35 -86 61 -22 26 -26 38
-20 63 13 62 22 76 42 68 26 -10 76 -51 70 -58 -3 -2 -20 8 -38 23 -31 25 -32
26 -21 4 7 -12 29 -30 49 -38 20 -8 47 -24 61 -34 35 -28 48 -23 20 7 l-24 26
25 -7 c25 -8 25 -8 6 14 -11 11 -23 21 -28 21 -6 0 -17 8 -26 18 -10 10 -12
11 -7 3 8 -12 7 -12 -10 -4 -38 21 -54 46 -44 72 8 19 12 21 24 11 8 -7 15
-20 14 -29 0 -10 -2 -12 -6 -3 -2 6 -9 10 -14 6 -15 -9 0 -24 25 -24 12 0 27
-5 34 -12 22 -22 12 7 -18 51 -30 44 -42 121 -20 121 6 0 10 -8 10 -18 0 -11
9 -27 20 -37 27 -24 25 -12 -6 45 l-26 47 38 84 c54 120 66 132 85 83z m243 7
c3 -4 -6 -23 -19 -41 -32 -44 -31 -50 7 -50 23 0 38 8 54 28 28 34 40 25 19
-14 -8 -16 -15 -39 -15 -50 0 -12 -7 -28 -16 -35 -15 -12 -16 -10 -10 19 8 35
-6 44 -23 15 -9 -16 -10 -15 -11 6 0 15 -5 21 -13 18 -8 -3 -20 -1 -27 3 -15
9 -6 38 26 88 16 24 20 26 28 13z m123 -77 c3 -9 0 -40 -6 -70 -10 -43 -16
-54 -32 -54 -33 0 -33 28 0 65 17 20 31 41 31 48 0 7 -11 -1 -25 -18 -27 -34
-36 -14 -9 23 18 26 32 28 41 6z m167 -77 c66 -30 150 -64 186 -77 36 -13 69
-27 75 -32 10 -9 -44 -118 -59 -118 -5 0 -90 34 -189 76 l-179 77 6 55 c7 60
12 72 28 72 5 0 65 -24 132 -53z m841 -66 l28 -59 -64 -81 c-35 -45 -66 -81
-70 -81 -3 0 -15 20 -27 45 l-22 45 58 95 c31 52 59 95 63 95 3 0 18 -27 34
-59z m-131 -61 c-22 -33 -43 -60 -48 -60 -4 0 0 12 10 28 56 86 67 102 72 98
2 -3 -13 -32 -34 -66z m-414 -20 c-11 -16 -26 -43 -31 -60 -13 -34 -34 -42
-23 -7 14 47 45 97 60 97 13 0 12 -5 -6 -30z m70 -27 c0 -26 -44 -78 -58 -69
-7 4 -11 17 -11 29 1 17 2 18 6 5 5 -19 18 -24 27 -10 2 4 1 14 -4 22 -6 9 -3
18 8 27 23 17 32 16 32 -4z m181 -13 c33 0 59 -2 59 -6 0 -3 -13 -19 -30 -37
-16 -18 -30 -35 -30 -39 0 -12 -38 -48 -50 -48 -6 0 -14 10 -19 23 -7 17 -3
27 15 44 27 24 30 38 12 49 -6 4 -20 -3 -32 -17 -14 -17 -32 -25 -51 -24 -28
0 -30 3 -28 34 2 43 19 53 61 35 19 -8 61 -14 93 -14z m289 -23 c-24 -23 -37
-33 -30 -22 25 36 63 75 69 70 3 -3 -15 -25 -39 -48z m60 24 c0 -5 -7 -14 -15
-21 -12 -10 -13 -15 -4 -21 9 -5 0 -23 -30 -63 -44 -57 -71 -84 -71 -71 0 4
13 24 28 44 45 57 47 70 4 22 -23 -26 -43 -41 -50 -37 -18 11 -14 37 5 34 11
-2 35 20 67 60 47 58 66 74 66 53z m-453 -77 c-3 -4 -2 -15 4 -25 11 -22 6
-23 -22 -8 -16 8 -18 13 -8 25 6 8 16 14 22 14 6 0 7 -3 4 -6z m487 -22 c12
-38 41 -43 105 -20 33 12 63 19 66 16 11 -10 13 -63 4 -80 -6 -10 -16 -15 -27
-12 -10 3 -6 -4 11 -18 38 -33 34 -46 -5 -16 -18 14 -44 27 -58 31 l-25 6 25
-21 c14 -11 38 -31 55 -44 16 -12 27 -25 24 -28 -3 -3 -29 15 -59 39 -45 36
-63 44 -96 45 -26 0 -44 -5 -47 -13 -6 -16 -83 -41 -97 -32 -23 14 -7 48 48
104 31 33 60 60 64 60 4 1 9 -7 12 -17z m-512 -42 c36 -44 34 -68 -8 -111 -29
-29 -41 -36 -51 -28 -7 6 -10 15 -7 20 3 5 -2 28 -10 53 -12 35 -13 49 -3 69
14 31 53 29 79 -3z m-108 -82 c-9 -18 -19 -28 -21 -21 -2 6 4 27 13 45 9 18
19 28 21 21 2 -6 -4 -27 -13 -45z m662 -20 c24 -18 44 -37 44 -41 0 -9 -86 48
-95 63 -12 19 8 10 51 -22z m-1651 -22 l30 -24 -24 -26 c-30 -31 -34 -32 -78
-5 l-34 21 27 29 c34 35 41 36 79 5z m1622 -9 c27 -19 56 -37 66 -40 17 -6 24
-27 9 -27 -14 0 -96 56 -116 78 -27 31 -13 27 41 -11z m-52 -13 c21 -19 25
-28 15 -34 -21 -13 0 -32 28 -25 16 4 48 -2 86 -16 74 -27 68 -23 60 -43 -9
-23 -40 -20 -104 10 -83 38 -122 71 -114 96 5 17 3 19 -15 13 -20 -6 -28 4
-14 18 12 13 30 7 58 -19z m-612 -13 c3 -16 9 -42 13 -57 5 -21 4 -26 -5 -19
-13 13 -32 105 -21 105 4 0 10 -13 13 -29z m797 8 l25 -20 -35 7 c-41 8 -44 9
-35 23 9 15 16 14 45 -10z m-228 -45 c38 -34 169 -104 195 -104 7 0 13 -9 13
-20 0 -24 -69 -164 -98 -200 l-20 -25 -67 23 c-37 12 -71 20 -75 17 -5 -3 -12
0 -15 6 -4 6 -36 24 -71 40 -57 25 -64 31 -64 56 0 15 10 44 21 63 26 43 130
180 137 180 2 0 22 -16 44 -36z m-1443 12 c10 -11 9 -21 -4 -45 -18 -36 -25
-38 -56 -12 l-24 19 24 26 c28 29 43 32 60 12z m819 -53 c7 -21 7 -33 1 -33
-11 0 -29 42 -29 68 0 23 15 4 28 -35z m-737 11 c17 -8 29 -18 27 -22 -2 -4
-10 -24 -18 -44 -8 -21 -17 -38 -20 -38 -3 0 -21 12 -39 28 l-33 27 19 33 c21
37 23 37 64 16z m-191 -14 c13 -8 13 -13 -2 -37 -20 -33 -25 -34 -57 -11 -24
17 -24 18 -6 38 20 22 41 25 65 10z m285 -37 c19 -9 35 -24 35 -33 0 -28 -21
-80 -32 -80 -8 0 -49 22 -86 45 -2 2 41 85 45 85 1 0 18 -8 38 -17z m661 -2
c8 6 18 9 21 5 4 -4 3 -10 -3 -14 -16 -11 -84 -109 -84 -120 0 -18 -38 -24
-104 -17 -41 5 -71 3 -85 -4 -16 -9 -26 -8 -46 5 -14 9 -25 13 -25 9 0 -5 -8
-1 -17 7 -10 9 -35 23 -55 31 -21 9 -38 21 -38 26 0 15 16 14 33 -3 10 -10 34
-13 83 -11 50 1 74 -2 86 -13 22 -19 48 -1 45 31 -2 18 3 22 24 20 16 -1 40
11 65 32 37 31 40 33 62 19 18 -12 26 -13 38 -3z m-882 -17 c19 -19 20 -36 4
-52 -16 -16 -29 -15 -58 7 l-24 19 24 21 c30 25 34 25 54 5z m335 -41 c19 -16
20 -22 11 -55 -7 -25 -17 -38 -28 -38 -25 0 -62 28 -57 43 27 75 36 81 74 50z
m-261 -34 c-3 -26 -33 -38 -51 -20 -8 8 -4 18 13 36 26 28 44 21 38 -16z m376
-49 c-9 -42 -25 -52 -62 -39 -37 13 -37 14 -17 62 l14 35 36 -17 c30 -14 34
-20 29 -41z m-306 22 c-5 -24 -35 -39 -49 -25 -10 10 -9 17 5 32 20 22 49 17
44 -7z m-115 -36 c30 -19 97 -56 150 -82 l97 -49 0 -110 0 -110 -44 65 c-53
80 -69 95 -83 78 -6 -7 -20 -43 -32 -80 -13 -38 -26 -68 -29 -68 -4 0 -12 21
-19 48 -6 26 -21 73 -33 105 -25 67 -33 65 -77 -14 -14 -27 -30 -49 -35 -49
-10 0 -11 -3 8 76 20 86 16 98 -28 80 -35 -14 -79 -8 -85 11 -3 9 140 133 153
133 2 0 28 -15 57 -34z m191 8 c3 -8 1 -24 -4 -35 -9 -15 -15 -17 -30 -9 -25
13 -33 28 -26 45 7 20 52 19 60 -1z m296 -23 c0 -43 -9 -55 -34 -45 -29 11
-12 84 19 84 11 0 15 -11 15 -39z m710 13 c0 -11 6 -14 23 -9 18 5 15 0 -15
-29 -44 -42 -73 -48 -63 -13 16 52 55 89 55 51z m-929 -24 c24 -20 24 -20 4
-35 -40 -31 -86 3 -55 40 16 20 23 19 51 -5z m279 3 c0 -10 3 -28 6 -40 5 -17
2 -23 -10 -23 -21 0 -30 23 -22 55 7 29 26 34 26 8z m720 -28 c0 -17 -35 -55
-50 -55 -16 0 -12 15 11 44 23 29 39 34 39 11z m-911 -4 c10 -7 11 -13 2 -30
-14 -25 -24 -26 -41 -6 -24 29 5 57 39 36z m961 -23 c0 -22 -40 -79 -50 -73
-15 9 -12 38 6 63 16 24 44 30 44 10z m-837 -20 c2 -7 0 -24 -4 -37 -8 -20
-14 -23 -41 -17 -73 15 -75 66 -3 66 25 0 45 -5 48 -12z m883 -20 c-7 -34 -23
-58 -38 -58 -13 0 -2 58 13 77 20 23 32 15 25 -19z m49 -30 c-9 -39 -13 -48
-25 -48 -17 0 -20 34 -5 56 23 35 38 30 30 -8z m70 -23 c0 -36 -3 -40 -25 -40
-27 0 -36 20 -26 61 5 19 12 25 29 22 18 -3 22 -9 22 -43z m-151 -50 c31 -13
36 -19 30 -38 -9 -29 -24 -47 -39 -47 -7 0 -15 -7 -19 -15 -5 -15 -36 -21 -36
-7 0 4 7 18 17 31 16 23 15 25 -11 44 -21 15 -24 22 -15 33 15 18 28 18 73 -1z"/>
<path d="M2135 3168 c-11 -6 -22 -12 -24 -14 -2 -2 4 -15 13 -29 22 -33 70
-35 87 -3 10 18 8 24 -11 40 -26 21 -37 22 -65 6z m55 -23 c11 -13 8 -15 -13
-15 -26 0 -42 12 -30 24 11 11 30 7 43 -9z"/>
<path d="M2310 3095 c-11 -14 -10 -19 8 -37 18 -19 25 -20 47 -10 19 9 25 18
23 35 -4 28 -58 37 -78 12z m58 -12 c2 -8 -5 -13 -17 -13 -21 0 -35 13 -24 24
10 10 36 3 41 -11z"/>
<path d="M2429 3029 c-9 -18 -7 -25 10 -42 17 -18 24 -19 46 -9 42 19 27 72
-22 72 -12 0 -27 -9 -34 -21z"/>
<path d="M2550 2955 c-7 -9 -10 -25 -6 -40 6 -22 12 -26 38 -23 39 4 59 31 38
52 -24 23 -56 28 -70 11z"/>
<path d="M2635 2851 c-8 -15 13 -51 30 -51 18 0 47 29 42 44 -5 14 -63 20 -72
7z"/>
<path d="M2037 2776 c-117 -42 -197 -149 -197 -264 0 -72 18 -109 96 -196 74
-83 100 -102 120 -85 11 9 14 8 14 -7 1 -34 26 -57 54 -50 15 4 26 2 26 -4 0
-5 5 -10 10 -10 6 0 10 13 10 29 0 17 5 33 10 36 6 4 10 -8 10 -29 0 -40 12
-52 30 -31 7 8 20 15 30 15 10 0 32 13 49 29 17 16 34 25 37 20 10 -16 22 0
17 21 -3 12 -2 20 3 19 23 -4 42 2 41 14 -1 34 4 58 11 53 4 -2 14 15 21 39
25 83 -17 244 -83 322 -44 52 -138 93 -210 93 -34 -1 -78 -7 -99 -14z m190
-27 c40 -13 118 -97 134 -146 16 -50 5 -164 -22 -219 -27 -57 -71 -90 -138
-105 -93 -20 -173 6 -256 82 -114 105 -97 260 37 356 70 50 151 61 245 32z
m146 -409 c-11 -40 -103 -121 -145 -127 -35 -5 -16 30 22 41 20 6 55 31 80 57
25 26 46 47 47 48 0 1 -1 -8 -4 -19z"/>
<path d="M2030 2662 c-43 -21 -74 -67 -90 -132 -11 -46 -10 -54 11 -98 32 -63
104 -112 166 -112 115 0 221 128 192 233 -13 47 -54 96 -96 113 -46 20 -141
18 -183 -4z m187 -37 c33 -22 63 -74 63 -111 0 -47 -52 -120 -104 -146 -40
-19 -50 -20 -84 -10 -82 25 -128 86 -118 156 14 93 72 140 165 132 29 -3 64
-12 78 -21z"/>
<path d="M1664 2220 c-118 -47 -209 -176 -209 -295 1 -41 8 -73 22 -100 41
-79 149 -157 253 -185 25 -6 64 -23 87 -36 46 -27 94 -31 115 -10 8 7 24 17
37 21 21 6 102 85 110 107 2 6 13 20 24 31 18 18 19 29 15 113 -4 79 -10 104
-37 158 -35 71 -121 159 -187 191 -58 28 -166 30 -230 5z m190 -16 c64 -22
148 -100 176 -165 30 -71 30 -170 0 -225 -31 -56 -108 -132 -148 -145 -134
-44 -357 71 -392 202 -36 132 63 288 213 335 57 17 95 17 151 -2z m222 -421
c-3 -11 -25 -37 -47 -59 -46 -43 -43 -32 11 38 36 47 46 53 36 21z m-146 -143
c-11 -20 -50 -28 -50 -10 0 11 29 29 48 30 10 0 10 -5 2 -20z"/>
<path d="M1702 2121 c-61 -21 -87 -43 -112 -91 -44 -90 -32 -177 37 -244 24
-24 58 -50 74 -56 16 -7 29 -17 29 -23 0 -15 84 0 130 23 85 43 150 127 150
194 0 35 -29 90 -76 145 -63 72 -129 87 -232 52z m166 -41 c46 -28 115 -137
107 -170 -24 -100 -158 -192 -234 -160 -17 7 -31 18 -31 25 0 7 -14 25 -31 39
l-30 26 27 25 c26 24 26 25 5 25 -39 0 -91 28 -91 49 0 26 10 51 21 51 4 0 6
-7 3 -15 -4 -11 1 -15 17 -15 l23 0 -24 -17 -24 -17 35 -12 c52 -19 66 -18 46
4 -10 10 -17 22 -17 26 0 4 -10 20 -22 36 -18 25 -20 33 -10 55 27 58 164 85
230 45z"/>
<path d="M2256 1804 c-3 -9 -6 -23 -6 -32 0 -21 15 -5 25 26 7 25 -9 31 -19 6z"/>
<path d="M602 2228 c7 -19 38 -22 38 -4 0 10 -9 16 -21 16 -12 0 -19 -5 -17
-12z"/>
<path d="M900 1473 c0 -6 5 -15 10 -18 6 -4 8 -10 5 -14 -2 -5 4 -16 15 -26
15 -14 20 -15 20 -4 0 17 -49 79 -50 62z"/>
<path d="M2357 1431 c-19 -22 -41 -50 -48 -63 -11 -21 -11 -22 5 -9 29 24 98
111 88 111 -5 0 -26 -18 -45 -39z"/>
</g>
</svg>
