<?xml version="1.0" standalone="no"?>
<!DOCTYPE svg PUBLIC "-//W3C//DTD SVG 20010904//EN"
 "http://www.w3.org/TR/2001/REC-SVG-20010904/DTD/svg10.dtd">
<svg version="1.0" xmlns="http://www.w3.org/2000/svg"
 width="900.000000pt" height="900.000000pt" viewBox="0 0 900.000000 900.000000"
 preserveAspectRatio="xMidYMid meet">
<metadata>
Created by potrace 1.10, written by Peter Selinger 2001-2011
</metadata>
<g transform="translate(0.000000,900.000000) scale(0.100000,-0.100000)"
fill="#263849" stroke="none">
<path d="M710 8986 c0 -9 -16 -17 -42 -21 -117 -20 -274 -104 -367 -196 -98
-98 -155 -193 -202 -339 l-24 -75 0 -2520 0 -2520 33 -95 c35 -98 76 -174 136
-250 36 -46 164 -160 180 -160 5 0 17 -6 25 -13 25 -21 140 -67 166 -67 19 0
26 7 31 28 3 15 12 47 19 72 23 76 38 158 32 173 -3 8 -18 17 -32 21 -72 18
-199 130 -236 207 -53 112 -49 -104 -49 2602 0 2328 1 2495 17 2542 38 110
128 214 224 258 122 55 -91 52 3199 52 2868 0 3048 -1 3104 -17 33 -10 64 -22
70 -28 5 -5 18 -10 28 -10 10 0 51 -33 92 -72 52 -53 82 -92 105 -141 29 -62
32 -80 38 -198 l6 -130 146 3 146 3 -2 133 c-3 178 -34 289 -118 417 -99 153
-286 283 -455 316 -38 7 -60 17 -60 25 0 12 -483 14 -3105 14 -2667 0 -3105
-2 -3105 -14z"/>
<path d="M690 8380 c-12 -7 -15 -35 -15 -147 l0 -138 148 -3 c114 -2 147 0
147 10 1 7 1 69 1 138 0 107 -2 126 -17 137 -21 15 -241 18 -264 3z"/>
<path d="M1285 8374 c-13 -13 -15 -38 -13 -147 l3 -132 145 0 145 0 3 135 c2
118 0 136 -15 147 -27 20 -247 18 -268 -3z"/>
<path d="M1880 8371 c-5 -11 -10 -76 -10 -145 0 -98 3 -127 14 -133 8 -4 76
-7 150 -5 l136 3 0 139 c0 127 -2 140 -19 150 -11 5 -74 10 -140 10 -109 0
-121 -2 -131 -19z"/>
<path d="M1597 7774 c-153 -28 -294 -101 -402 -209 -95 -94 -150 -188 -198
-333 l-22 -67 0 -2525 0 -2525 23 -69 c45 -139 112 -248 206 -339 108 -104
249 -175 389 -195 113 -17 2048 -17 2065 0 8 8 12 54 12 140 0 116 -2 128 -19
138 -13 7 -346 10 -1008 10 -809 0 -997 3 -1040 14 -162 43 -300 196 -324 360
-11 81 -11 4852 0 4933 19 128 114 262 231 325 116 62 -107 58 3207 58 3319 0
3081 4 3203 -61 120 -64 214 -198 231 -327 12 -93 11 -4828 -1 -4920 -7 -53
-21 -94 -50 -150 -22 -43 -40 -83 -40 -88 0 -18 186 -174 207 -174 37 0 121
142 164 280 l24 75 0 2510 c0 2434 -1 2512 -19 2580 -83 305 -327 521 -639
564 -55 8 -985 11 -3100 10 -2559 -1 -3034 -3 -3100 -15z"/>
<path d="M1581 7176 c-8 -9 -11 -57 -9 -147 l3 -134 145 0 145 0 3 139 c2 105
-1 141 -10 148 -7 4 -70 8 -139 8 -96 0 -129 -3 -138 -14z"/>
<path d="M2182 7178 c-14 -14 -17 -255 -4 -276 7 -9 43 -12 148 -10 l139 3 3
139 c2 105 -1 141 -10 148 -21 13 -262 10 -276 -4z"/>
<path d="M2781 7176 c-8 -9 -11 -57 -9 -147 l3 -134 145 0 145 0 3 134 c2 90
-1 138 -9 147 -9 11 -42 14 -139 14 -97 0 -130 -3 -139 -14z"/>
<path d="M6072 6578 c-9 -9 -12 -176 -12 -690 0 -581 -2 -679 -14 -684 -17 -7
-231 23 -263 36 l-23 10 0 514 c0 459 -2 515 -16 520 -30 12 -259 7 -272 -6
-9 -9 -12 -138 -12 -519 0 -393 -3 -509 -12 -516 -22 -17 -259 -46 -272 -33
-7 7 -11 82 -11 233 -1 122 -4 228 -9 235 -10 17 -267 17 -284 0 -9 -9 -12
-88 -12 -295 l0 -283 -47 -21 c-27 -12 -87 -41 -136 -65 -48 -24 -94 -41 -102
-38 -13 5 -15 67 -17 433 l-3 426 -135 3 c-118 2 -136 0 -147 -15 -10 -13 -13
-136 -13 -545 l0 -528 -114 -113 c-62 -62 -121 -125 -131 -140 -9 -15 -24 -27
-31 -27 -12 0 -14 84 -14 524 0 434 -2 526 -14 535 -9 8 -57 11 -147 9 l-134
-3 -5 -815 c-5 -811 -5 -815 -27 -870 -30 -75 -70 -215 -95 -335 -18 -87 -21
-137 -22 -385 l-1 -285 -975 -5 -975 -5 -3 -139 c-2 -105 1 -141 10 -148 7 -4
466 -8 1020 -8 l1007 0 11 -40 c18 -68 95 -251 145 -345 121 -227 290 -435
496 -611 85 -72 238 -179 314 -221 22 -11 56 -30 76 -41 20 -11 90 -43 155
-70 111 -46 147 -58 279 -96 272 -76 627 -88 915 -30 86 17 181 41 225 55 17
6 44 14 60 19 83 22 329 139 431 206 28 18 63 39 78 45 27 13 33 7 724 -683
383 -383 711 -703 729 -712 40 -20 70 -20 115 -2 32 14 367 336 486 469 51 56
52 59 52 118 0 57 -2 62 -44 107 -25 26 -348 351 -720 722 -372 371 -678 682
-681 691 -3 9 15 56 39 105 25 49 52 107 60 129 8 22 26 72 40 110 l25 70 107
3 c59 1 114 8 121 14 9 7 13 44 13 133 0 68 -3 130 -6 139 -5 12 -21 16 -74
16 -42 0 -71 5 -78 13 -7 8 -8 56 -2 147 19 312 -16 572 -117 850 l-23 65 0
721 c0 563 -3 724 -13 737 -11 15 -29 17 -147 15 l-135 -3 -5 -452 c-3 -248
-8 -454 -12 -458 -4 -4 -69 57 -145 135 l-138 142 -5 616 -5 617 -125 3 c-69
1 -135 0 -147 -3 l-23 -5 0 -501 c0 -391 -3 -501 -12 -504 -7 -2 -74 26 -148
63 l-135 67 -3 729 c-1 518 -5 733 -13 743 -15 18 -259 19 -277 1z m-227
-1653 c229 -35 365 -76 550 -165 470 -227 826 -660 954 -1161 44 -171 54 -260
55 -454 0 -191 -15 -323 -50 -434 -8 -25 -14 -52 -14 -60 0 -39 -121 -322
-173 -406 -53 -86 -119 -181 -168 -241 -115 -141 -326 -323 -463 -399 -28 -15
-72 -41 -98 -56 -27 -16 -53 -29 -58 -29 -4 0 -30 -11 -57 -24 -170 -85 -467
-146 -708 -146 -239 0 -527 59 -707 144 -30 14 -57 26 -61 26 -3 0 -52 26
-109 58 -248 138 -486 360 -634 592 -104 163 -188 357 -228 525 -9 39 -21 86
-26 106 -28 105 -38 371 -20 550 17 181 102 465 180 604 12 22 32 58 43 80
112 208 338 451 562 604 60 41 301 166 347 180 18 5 65 21 103 34 226 78 544
107 780 72z m2069 -3694 l630 -630 -109 -110 c-60 -61 -117 -111 -127 -111
-20 0 -1248 1220 -1248 1239 0 6 37 50 81 99 45 48 91 99 102 115 12 15 25 27
31 27 6 0 294 -283 640 -629z"/>
<path d="M5425 4630 c-22 -4 -69 -12 -105 -18 -111 -17 -341 -101 -429 -156
-20 -13 -40 -25 -46 -27 -30 -12 -159 -106 -215 -156 -254 -227 -400 -477
-486 -833 -27 -109 -27 -482 -1 -590 47 -191 97 -322 175 -455 273 -466 761
-747 1297 -746 205 0 426 45 590 121 114 52 129 60 160 80 17 11 37 23 45 27
8 4 58 39 110 79 257 195 440 463 530 774 45 158 53 220 53 410 0 185 -9 262
-49 410 -28 104 -76 217 -136 323 -229 403 -613 672 -1064 747 -122 20 -346
26 -429 10z m23 -312 c9 -9 12 -153 12 -585 0 -556 1 -573 19 -583 28 -15 254
-13 269 2 9 9 12 152 12 584 0 463 3 574 13 583 23 18 233 -33 269 -66 17 -15
18 -46 18 -553 0 -403 3 -539 12 -548 17 -17 259 -17 276 0 9 9 12 125 12 460
0 352 3 448 13 448 6 0 55 -44 107 -99 152 -158 239 -316 296 -539 22 -84 26
-119 26 -267 1 -174 -16 -289 -45 -307 -7 -4 -523 -8 -1148 -8 -897 0 -1139 3
-1147 13 -27 33 -36 108 -36 297 0 167 3 206 21 271 68 244 142 378 318 567
100 109 95 130 95 -377 0 -386 2 -441 16 -455 12 -13 40 -16 137 -16 67 0 129
4 136 9 13 8 15 90 15 551 1 519 2 542 20 555 25 19 140 53 247 74 3 1 10 -4
17 -11z m1182 -1792 c0 -20 -107 -160 -171 -225 -122 -122 -232 -195 -424
-276 -107 -45 -285 -76 -438 -76 -59 0 -111 2 -115 5 -4 2 -41 9 -82 15 -208
29 -449 153 -618 318 -90 89 -197 227 -187 243 4 7 326 10 1021 10 867 0 1014
-2 1014 -14z"/>
<path d="M2477 4934 c-4 -4 -7 -404 -7 -889 0 -672 3 -884 12 -893 18 -18 262
-17 277 2 8 10 10 252 9 897 l-3 884 -141 3 c-77 1 -143 -1 -147 -4z"/>
<path d="M3077 4484 c-4 -4 -7 -303 -7 -664 0 -497 3 -659 12 -668 18 -18 262
-17 277 2 8 9 10 194 9 672 l-3 659 -141 3 c-77 1 -143 -1 -147 -4z"/>
<path d="M1876 4024 c-11 -28 -7 -844 4 -865 10 -17 22 -19 138 -19 70 0 133
4 140 8 10 7 12 103 10 448 l-3 439 -141 3 c-123 2 -142 0 -148 -14z"/>
</g>
</svg>
