<svg width="70" height="70" viewBox="0 0 70 70" fill="none" xmlns="http://www.w3.org/2000/svg">
<path d="M62.7083 35.7583L63.35 35.7875L63.875 35.9041L64.225 36.05L64.6625 36.2833L64.9542 36.5166L65.3333 36.8666L65.7125 37.3916L65.975 37.8583L66.1792 38.325L66.3542 38.9375L66.3833 39.1416V39.6083L66.2958 40.0458L66.15 40.425L65.9458 40.7166L65.625 41.125L65.3333 41.4458L65.1 41.65L64.7208 42L64.4875 42.2041L64.1958 42.4666L63.875 42.7291L63.525 43.05L63.2917 43.2541L62.9708 43.5458L62.65 43.8083L62.4167 44.0416L62.1833 44.2458L61.9792 44.45L61.7458 44.6541L61.3958 44.975L61.1625 45.1791L60.7833 45.5291L60.5792 45.7333L60.1125 46.1416L59.7625 46.4916H59.7042V46.55L59.4708 46.7541L59.0042 47.1916L58.6542 47.5125L58.275 47.8625L58.1875 47.8916V47.95L57.9542 48.1541L57.6625 48.4166L57.3125 48.7666L57.0792 48.9708L56.6125 49.4083L56.3792 49.6125L56.0583 49.9333L55.825 50.1375L55.3292 50.6333L55.0958 50.8375L54.775 51.1291L54.4542 51.3916L54.075 51.7416L53.7542 52.0041L53.2875 52.4416L52.8792 52.7916L52.1792 53.4333L51.8583 53.6958L51.5083 54.0166L51.1875 54.2791L50.925 54.5125L50.6042 54.775L50.225 55.0958L49.9625 55.3L49.525 55.65L49.2042 55.9125L48.6792 56.2916L48.2417 56.5541L47.775 56.8166L46.8708 57.225L45.5 57.75L44.5958 58.0708L43.5458 58.4208L42.525 58.7416L40.8042 59.2375L39.6083 59.5583L38.0042 59.9375L36.9542 60.1416L35.7 60.3166L35.4375 60.3458L34.7958 60.375L34.2417 60.3458L33.3083 60.2L32.4917 60.025L31.85 59.85L30.975 59.6166L29.925 59.4125L29.4 59.3541H28.35L26.95 59.4708L25.2583 59.675L23.9458 59.8791L22.8083 60.0833L21.4375 60.3166L20.2417 60.55L18.9583 60.7833L17.3542 61.1041L15.4875 61.4541L14.6708 61.6V63.175L14.5833 63.7291L14.35 64.3416L14.1167 64.6916L13.7667 65.1L13.3875 65.3625L12.9792 65.5375L12.5417 65.625L12.2208 65.6541L11.4333 65.6833L9.74167 65.7125H7.70001L6.06667 65.6833L5.45417 65.625L5.07501 65.5083L4.57917 65.1583L4.37501 64.9541L4.14167 64.6625L3.90834 64.2833L3.70417 63.8458L3.61667 63.35L3.58751 63.0291L3.55834 62.1833L3.52917 58.8V50.3125L3.58751 44.8583L3.61667 44.45L3.76251 43.8375L4.02501 43.3416L4.25834 43.05L4.31667 42.9625H4.37501V42.9041L4.69584 42.6416L4.98751 42.4375L5.39584 42.2625L5.65834 42.2041L6.03751 42.175L7.23334 42.1458H10.9958L12.1917 42.175L12.6 42.2041L13.0375 42.3208L13.5042 42.5833L13.825 42.8458L14.1167 43.1666L14.35 43.575L14.525 44.0416L14.6125 44.4791L14.6417 45.0625L14.9917 44.8875L15.575 44.5083L16.8583 43.6916L17.3833 43.3416L18.375 42.7L18.8125 42.4083L19.2792 42.1166L20.125 41.5625L20.9417 41.0666L21.6125 40.7166L22.3708 40.3958L23.0417 40.1916L24.0042 39.9875L24.6167 39.9L24.9375 39.8708H25.8417L26.6875 39.9583L27.3583 40.075L28.1167 40.2791L28.7292 40.4833L29.4875 40.8041L30.8875 41.5041L31.4708 41.825L31.9375 42.0583L32.7833 42.4958L33.3083 42.7583L33.5417 42.8166L33.8917 42.8458H43.7208L45.0333 42.875L45.6458 42.9333L46.1417 43.05L46.5208 43.1958L46.9583 43.4291L47.3667 43.7208L47.6583 43.9833L47.8917 44.2166L48.2417 44.6833L48.5042 45.0916L48.7083 45.2666L48.9417 45.1208L49.2042 44.8583L49.7 44.4791L50.2542 44.0708L51.0708 43.4875L51.8292 42.9041L52.15 42.6708L52.7042 42.2625L53.1417 41.9125L54.3083 41.0375L55.4167 40.2208L55.8833 39.8708L56.4375 39.4625L57.3708 38.7625L57.9833 38.2958L58.3042 38.0625L58.9167 37.5958L59.4708 37.1875L60.0542 36.7791L60.55 36.4583L61.0167 36.1958L61.6 35.9625L61.9792 35.8458L62.3 35.7875L62.7083 35.7583ZM62.65 37.625L62.125 37.7416L61.775 37.8875L61.4542 38.0625L61.1042 38.2958L60.6083 38.6458L60.0542 39.025L59.675 39.3166L59.2083 39.6666L58.6833 40.0458L58.2458 40.3666L57.9542 40.6L57.575 40.8916L57.1083 41.2416L56.7875 41.475L56.3208 41.825L55.5625 42.4083L55.0375 42.7875L54.6 43.1083L54.2208 43.4L53.7542 43.75L53.2292 44.1291L52.7917 44.45L52.5292 44.6541L52.2083 44.8875L51.9167 45.1208L51.4208 45.4708L51.0417 45.7625L50.6917 46.025L50.3125 46.3166L49.8167 46.6958L49.1167 47.1625L48.9417 47.3666L48.7667 47.95L48.5917 48.4166L48.3583 48.8833L48.1542 49.2041L47.8625 49.5833L47.5417 49.9333L47.1625 50.225L46.6958 50.4875L46.375 50.6333L45.9667 50.75L45.3833 50.8375L44.625 50.8958H36.1083L35.6708 50.8666L35.4375 50.75L35.2333 50.3416L35.2042 50.225V49.875L35.3208 49.5541L35.4667 49.35L35.6708 49.2333L35.8167 49.2041L38.6167 49.175H44.1583L45.0625 49.1458L45.5875 49.0291L45.9958 48.8541L46.3167 48.6208L46.4917 48.475L46.6958 48.2125L46.9583 47.7458L47.075 47.425L47.1042 47.2208V46.6666L47.0167 46.2583L46.8708 45.8791L46.6375 45.5291L46.4042 45.2375L46.0833 44.975L45.7917 44.8L45.325 44.6833L45.0917 44.6541L33.1917 44.625L32.8708 44.5375L31.5875 43.8958L31.0333 43.6041L28.875 42.525L28.1167 42.2041L27.6208 42.0291L27.0083 41.8541L26.425 41.7375L25.8708 41.6791H24.9667L24.2375 41.7666L23.45 41.9416L22.8083 42.175L22.1667 42.4666L21.6417 42.7583L21.1167 43.0791L20.125 43.7208L19.425 44.1583L19.075 44.3916L18.4042 44.8291L17.8792 45.15L17.3542 45.5L16.8583 45.8208L16.4208 46.1125L16.0125 46.375L15.2542 46.8416L14.8167 47.1041L14.7 47.1916L14.6708 47.425L14.6417 59.8791L17.85 59.2083L19.25 58.9166L21.2625 58.5375L23.8 58.1L25.8708 57.8083L27.3 57.6625L28.2917 57.6041H29.8375L30.5958 57.6916L31.2667 57.8375L32.8125 58.2458L33.4542 58.3916L34.3875 58.5083H35.7583L36.7208 58.3916L37.975 58.1291L39.8417 57.6625L41.125 57.3125L42.8458 56.7875L44.1 56.3791L45.0625 56.0291L46.2 55.5916L47.0167 55.2125L47.425 54.9791L47.9208 54.6291L48.3292 54.2791L48.65 54.0166L49 53.725L49.2917 53.4916L49.7583 53.1125L50.0792 52.85L50.4583 52.5L50.6917 52.2958L50.9833 52.0333L51.3042 51.7708L51.6542 51.45L51.9458 51.2166L52.325 50.8666L52.6167 50.6041L53.025 50.225L53.0833 50.1958V50.1375L53.2 50.0791L53.6375 49.6708L53.9875 49.35L54.2208 49.1458L54.6875 48.7083L55.0083 48.4166L55.2417 48.2125L55.7375 47.7458L56.175 47.3375L56.2333 47.3083V47.25L56.35 47.1916L56.6417 46.9L56.7 46.8708V46.8125L56.8167 46.7541L57.2833 46.2875L57.3417 46.2583V46.2L57.4583 46.1416L57.75 45.85L57.8083 45.8208V45.7625L57.925 45.7041L58.1 45.5583L58.2167 45.4416V45.3833L58.3333 45.325L58.8292 44.8583L59.2083 44.5083L59.5 44.2458L59.7333 44.0416L60.2 43.6041L60.5208 43.3125L60.7542 43.1083L61.1333 42.7583L61.25 42.6708V42.6125L61.3667 42.5541L61.5417 42.4083V42.35L61.6583 42.2916L61.95 42L62.0083 41.9708V41.9125L62.125 41.8541L62.3583 41.6208L62.6792 41.3583L62.8833 41.1541L63.2917 40.8333L63.6708 40.5125L63.9333 40.3083L64.3417 39.9291L64.5167 39.6375L64.575 39.4916V39.1708L64.4292 38.7333L64.1958 38.2958L63.9333 38.0041L63.7 37.8L63.3208 37.6541L63.175 37.625H62.65ZM6.35834 43.9541L5.65834 44.0125L5.48334 44.0708L5.42501 44.8291L5.39584 48.3583V63.2041L5.45417 63.6708L5.51251 63.8458L5.74584 63.9041L6.06667 63.9333L11.0542 63.9625L12.25 63.9333L12.6875 63.875L12.7458 63.6416L12.8042 63.0875L12.8333 62.4458L12.8625 51.0125V49.1458L12.8333 45.85L12.8042 44.8L12.7458 44.1875L12.6583 44.0416L12.4542 43.9833L12.1333 43.9541H6.35834Z" fill="white"/>
<path d="M23.0708 4.2583H27.7667L31.3542 4.28747H43.575L46.9583 4.2583H50.7792L51.6833 4.28747L52.2958 4.37497L52.675 4.49163L53.025 4.63747L53.4625 4.89997L53.8417 5.19163L54.1333 5.45413L54.4542 5.86247L54.7458 6.29997L55.0667 6.9708L55.1833 7.4083L55.2417 7.9333V25.4333L55.1833 26.1916L55.0958 26.6291L54.9208 27.125L54.6583 27.5916L54.3667 28H54.3083L54.25 28.1166L54.1625 28.2333H54.1042L54.0458 28.35L53.725 28.6416L53.3458 28.9041L52.8792 29.1375L52.2958 29.3125L51.5667 29.4291L51.275 29.4583L50.575 29.4875L50.4292 29.5166L50.4 33.8916L50.3708 37.1L50.3125 37.3916L50.1375 37.625L49.875 37.8L49.5542 37.8875L49.2917 37.8583L48.9708 37.6833L48.6208 37.3625L48.4167 37.1875V37.1291L48.3 37.0708L47.425 36.1958L47.1917 35.9916L46.9292 35.7291L46.6958 35.525L46.4917 35.35L46.0542 34.9125L45.8208 34.7083L45.5583 34.4458L45.325 34.2416L44.8292 33.7458L44.5958 33.5416L44.1 33.0458L43.9833 32.9583V32.9L43.8667 32.8416L42.7875 31.7625L42.5542 31.5583L42.2333 31.2375L42 31.0333L41.5625 30.5958L41.3292 30.3916V30.3333L41.2125 30.275L40.7167 29.7791L40.6292 29.7208V29.6625L40.5125 29.6041L40.3667 29.4875L36.1958 29.4583V31.5875L36.1667 32.5791L36.05 33.075L35.7875 33.6291L35.5542 33.95L35.2333 34.3L34.825 34.5625L34.3875 34.7375L34.0083 34.825L33.1042 34.8833L31.85 34.9125L23.9167 34.9416L23.625 35L23.45 35.2333L23.2167 35.4375L22.8375 35.7875L22.225 36.4H22.1667V36.4583H22.1083V36.5166H22.05V36.575L21.8167 36.7791L21.2625 37.3333L21.0292 37.5375L20.6208 37.9458L20.3875 38.15L20.1542 38.3833L19.9208 38.5875L19.6583 38.85L19.425 39.0541L19.1625 39.2875L18.8125 39.55L18.5792 39.6375L18.375 39.6083L17.9958 39.375L17.7042 39.0833L17.6167 38.7041V36.225L17.6458 35.0291L17.5583 34.9416L16.7708 34.7666L16.4208 34.6208L16.1292 34.4458L15.7208 34.125L15.5167 33.9208L15.225 33.5125L15.05 33.1333L14.9625 32.7541L14.9333 32.3458L14.9042 30.3333V23.1583L14.9333 22.2833L15.0208 21.7583L15.1375 21.4666L15.4 21.0583L15.4583 20.9708H15.5167L15.575 20.8541L15.7792 20.65L16.1583 20.3583L16.4792 20.1833L16.7125 20.0958L17.2083 20.0083L17.6458 19.9791L18.6667 19.95V8.0208L18.725 7.46663L18.8125 7.0583L19.0458 6.50413L19.3083 6.03747L19.6583 5.5708L20.0083 5.2208L20.3875 4.92913L20.7083 4.72497L21.175 4.49163L21.4375 4.40413L21.9917 4.31663L22.2542 4.28747L23.0708 4.2583ZM34.7667 5.97913L22.6917 6.0083L22.0792 6.06663L21.7292 6.1833L21.4667 6.32913L21.0875 6.64997L20.825 7.02913L20.65 7.37913L20.5333 7.72913L20.475 8.42913L20.4458 17.7625V19.8041L20.475 19.95H32.6083L33.5708 19.9791L34.125 20.0375L34.5042 20.1541L34.9708 20.3875L35.2333 20.6208H35.2917V20.6791H35.35L35.4083 20.7958L35.6417 21.0583L35.9042 21.4958L36.1083 21.9625L36.1375 22.1083L36.1667 22.5166V27.6791L39.5792 27.7083L40.8917 27.7375L41.1833 27.8541L41.5042 28.0583L41.7375 28.2916L41.9708 28.4958L42.7 29.225L42.9333 29.4291L43.225 29.7208H43.2833V29.7791L43.4292 29.925L43.5167 29.9541L43.575 30.0708H43.6333V30.1291L43.8667 30.3333L44.5958 31.0625L44.8292 31.2666L45.5875 32.025L45.8208 32.2291L46.0833 32.4916L46.3167 32.6958L46.6667 33.0166L46.7833 33.075L46.8125 33.1625L47.0458 33.3666L47.3667 33.6875H47.425V33.7458L47.6583 33.95L48.0958 34.4166L48.3875 34.6791L48.5917 34.8541V29.05L48.6208 28.35L48.7083 28.1166L48.825 27.9708L49.0583 27.825L49.35 27.7375L50.8375 27.7083L51.3917 27.6791L51.8583 27.5916L52.325 27.4166L52.6458 27.2125L52.9958 26.8916L53.025 26.8041H53.0833L53.2292 26.5125L53.3167 26.1625L53.375 25.6958L53.4042 24.7333V20.4166L53.4333 13.825V10.9375L53.4042 7.90413L53.3458 7.52497L53.1708 7.08747L52.9958 6.82497L52.7625 6.56247L52.3542 6.2708L52.0625 6.12497L51.8 6.06663L51.5375 6.03747L50.6333 6.0083L39.8417 5.97913H34.7667ZM19.9792 21.7875L17.0917 21.8166L16.8583 21.875L16.8 21.9625L16.7417 22.4583L16.7125 23.3333V32.4625L16.7708 32.7541L16.8875 32.8708L17.2667 32.9875L18.9 33.1916L19.1625 33.2791L19.2792 33.425L19.3667 33.6L19.3958 33.7458L19.425 34.3875V36.4875L19.6875 36.3416L20.0375 36.0208L20.1833 35.9041V35.8458L20.3 35.7875L20.5333 35.5541V35.4958L20.65 35.4375L20.825 35.2333L21 35.0875L21.5542 34.5333L21.7875 34.3291L22.1667 33.95L22.4 33.7458L22.6333 33.5125L22.9542 33.25L23.2167 33.1333L23.4792 33.1041L24.7042 33.075H33.4542L33.9208 33.0458L34.1542 32.9583L34.2708 32.725L34.3583 32.0541L34.3875 31.2083V29.1375L34.3583 22.5458L34.2708 22.05L34.1833 21.875L34.0375 21.8166L33.775 21.7875H19.9792Z" fill="white"/>
<path d="M44.7417 12.25H46.4917L48.7667 12.2792L49 12.3958L49.175 12.6L49.2625 12.95V13.3292L49.2042 13.6208L49.0584 13.8542L48.9125 13.9417L48.6209 13.9708L47.075 14L44.0417 14.0292L31.2084 14.0875H25.5209L25.1125 14.0583L24.9084 13.9708L24.7625 13.825L24.6459 13.5333L24.6167 13.4167V13.0083L24.7334 12.6292L24.9084 12.4542L25.2 12.3667L25.4625 12.3375L28.8167 12.3083L44.7417 12.25Z" fill="white"/>
<path d="M46.3458 19.9792H48.3875L48.8542 20.0376L49.0875 20.2126L49.2333 20.4459L49.2917 20.6209V21.0001L49.2042 21.3209L49.0292 21.5834L48.825 21.7001L48.4458 21.7584L47.5125 21.7876L43.5167 21.8459H40.7458L40.3083 21.8167L40.1042 21.7292L39.9 21.4667L39.7833 21.1751V20.7376L39.9 20.4459L40.0167 20.2709L40.2208 20.1251L40.425 20.0959L42.525 20.0376L43.9833 20.0084L46.3458 19.9792Z" fill="white"/>
<path d="M25.725 26.5125H29.0792L29.5167 26.5416L29.7792 26.6291L29.9542 26.8333L30.0417 27.0375L30.0708 27.4166L30.0125 27.7666L29.8667 28.0583L29.7208 28.1458L29.3708 28.2333L29.0792 28.2625L27.6792 28.2916L23.5083 28.35H21.8458L21.4375 28.2916L21.2042 28.0583L21.0583 27.7666L21.0292 27.65V27.2708L21.1458 26.95L21.3208 26.7458L21.5542 26.6291L21.7875 26.6L22.3708 26.5708L23.6833 26.5416L25.725 26.5125Z" fill="white"/>
</svg>
