<svg width="70" height="70" viewBox="0 0 70 70" fill="none" xmlns="http://www.w3.org/2000/svg">
<g clip-path="url(#clip0_163_49)">
<path d="M35.4667 6.2124H35.8459L36.1959 6.35824L36.6042 6.62074L36.9834 6.94157L37.2751 7.23324L37.5084 7.4374L37.7417 7.67074L37.9751 7.8749L38.7626 8.6624V8.72074L38.8501 8.7499L39.0542 8.98324L40.7751 10.7041V10.7624H40.8334L41.0084 10.9666L41.0667 10.9957V11.0541H41.1251V11.1124H41.1834V11.1707H41.2418V11.2291H41.3001V11.2874H41.3584V11.3457H41.4168V11.4041L41.5334 11.4624L48.7668 18.6957L48.9709 18.9291L49.2334 19.2499L49.4084 19.5416L49.4668 19.7166V20.1541L49.3501 20.5041L49.0584 20.8832H49.0001V20.9416L48.7668 21.1457L48.4751 21.3207L48.2126 21.4082H47.8918L47.5418 21.2624L47.2793 21.0874L46.9001 20.7374L46.5501 20.4166L42.4959 16.3624L42.2918 16.1874L42.1459 16.0124L41.9126 15.8082L41.5626 15.4582V15.3999L41.4459 15.3416V15.2832L41.3584 15.2541L41.1542 15.0207L39.5792 13.4457L39.4626 13.3582V13.2999L39.3459 13.2416L37.5959 11.4916V11.4332L37.5084 11.4041L37.4209 11.3166L37.3917 18.4041V34.9416L37.4501 35.7582L37.5376 36.2249L37.7126 36.7499L37.9459 37.1874L38.2376 37.5957L38.6167 37.9749L39.0251 38.2666L39.4917 38.5291L40.0167 38.7332L40.4834 38.8207L40.7459 38.8499L41.3293 38.8791H55.8834L62.7959 38.8499H64.8668L64.6334 38.5582L64.4001 38.2957L64.2834 38.2082V38.1499H64.2251L64.0209 37.9166L63.6126 37.5082V37.4499L63.5251 37.4207L63.3209 37.1874L55.2709 29.1374L55.0668 28.9041L54.7751 28.5541L54.5709 28.2332L54.4834 27.9999V27.6791L54.6293 27.2999L54.8334 26.9791L55.0376 26.7749L55.2709 26.5999L55.5626 26.4832L55.8543 26.4249L56.1459 26.4541L56.4959 26.5999L56.8459 26.8332L57.1376 27.0957L57.5168 27.4457L67.3751 37.3041V37.3624H67.4334L67.6376 37.5957L67.9584 37.9166L68.1918 38.1207L68.7751 38.7041L68.9793 38.9374L69.5918 39.5499V39.6082H69.6501V39.6666H69.7084L69.9126 39.8999L70.0001 39.9874V41.0666L69.8543 41.1541L69.6209 41.4166L69.3584 41.7374L69.0959 41.9999L69.0668 42.0582H69.0084L68.9501 42.1749L68.3668 42.7582H68.3084V42.8166L68.0751 43.0207L66.7043 44.3916L66.6751 44.4499H66.6168L66.5584 44.5666H66.5001V44.6249H66.4418V44.6832H66.3834V44.7416H66.3251V44.7999L66.2084 44.9166H66.1501V44.9749H66.0918V45.0332L65.8584 45.2374L65.6834 45.4416H65.6251V45.4999L65.3918 45.7041L65.2751 45.8499H65.2168V45.9082H65.1584V45.9666L64.9251 46.1707L64.7501 46.3749H64.6918V46.4332H64.6334V46.4916H64.5751V46.5499H64.5168V46.6082H64.4584V46.6666H64.4001V46.7249H64.3418L64.2834 46.8416L64.1668 46.8999L64.1084 47.0166H64.0501V47.0749L63.8459 47.2499L63.8168 47.3082H63.7584V47.3666L63.5251 47.5707L61.1043 49.9916L61.0751 50.0499H61.0168V50.1082H60.9584V50.1666H60.9001V50.2249H60.8418V50.2832H60.7834V50.3416H60.7251V50.3999L60.6084 50.5166H60.5501L60.4918 50.6332H60.4334V50.6916H60.3751V50.7499H60.3168V50.8082L60.1709 50.9249L60.1418 50.9832H60.0834V51.0416H60.0251V51.0999H59.9668V51.1582H59.9084V51.2166H59.8501V51.2749H59.7918V51.3332L59.6751 51.4499H59.6168L59.5584 51.5666H59.5001V51.6249H59.4418V51.6832L59.2084 51.8874L58.7126 52.3832L58.6834 52.4416H58.6251V52.4999L58.3918 52.7041L55.9126 55.1832L55.8834 55.2416H55.8251V55.2999H55.7668V55.3582H55.7084V55.4166H55.6501V55.4749H55.5918V55.5332L55.4751 55.6499H55.4168L55.3584 55.7666L55.1834 55.9416H55.1251V55.9999L55.0084 56.1166H54.9501V56.1749H54.8918V56.2332L54.6584 56.4374L52.0043 59.0916L51.9751 59.1499H51.9168V59.2082L51.8001 59.3249H51.7418V59.3832H51.6834L51.6251 59.4999H51.5668L51.5084 59.6166H51.4501V59.6749H51.3918V59.7332H51.3334V59.7916H51.2751L51.2168 59.9082L49.0584 62.0666H49.0001V62.1249H48.9418L48.8834 62.2416L48.7084 62.4166H48.6501V62.4749H48.5918V62.5332L48.4751 62.6499H48.4168L48.3584 62.7666H48.3001L48.2418 62.8832L47.7751 63.2916L47.2501 63.6416L46.9876 63.7874H46.8126L46.3459 63.6124L45.9376 63.3499L45.5876 63.0291L45.3543 62.8249L19.3084 36.7791L19.2501 36.7499V36.6916H19.1917V36.6332H19.1334L18.9584 36.4291L18.9001 36.3999V36.3416H18.8417V36.2832L18.7251 36.2249V36.1666H18.6667L18.4626 35.9332L13.2709 30.7416L13.0667 30.5082L12.7751 30.1291L12.5709 29.7499L12.5417 29.6332V29.3707L12.6292 29.0207L12.8042 28.6707L13.0667 28.3207L13.3292 28.0582L13.4751 27.8832L13.6792 27.7082L13.8542 27.5041L14.0876 27.2999L34.4751 6.9124L34.7959 6.6499L35.0876 6.41657L35.4667 6.2124ZM34.5917 10.7916L34.3292 10.9957L34.0376 11.2582L33.0167 12.2791L32.9584 12.3082V12.3666L32.8417 12.4249L30.2751 14.9916V15.0499H30.2167V15.1082H30.1584V15.1666H30.1001V15.2249H30.0417V15.2832L29.9251 15.3416L29.8084 15.4582V15.5166H29.7501L29.5459 15.7499L29.4001 15.8666L29.1959 16.0999L28.5251 16.7707L28.4084 16.8582V16.9166H28.3501L28.1459 17.1499L28.0001 17.2666L27.7959 17.4999L27.5917 17.6749V17.7332L27.4751 17.7916V17.8499H27.4167L27.3001 17.9666V18.0249H27.2417V18.0832H27.1834V18.1416H27.1251V18.1999H27.0667V18.2582H27.0084L26.8042 18.4916L26.6584 18.6082V18.6666H26.6001V18.7249H26.5417L26.3376 18.9582L26.1334 19.1332V19.1916H26.0751L25.8709 19.4249L23.8584 21.4374L23.8001 21.4666V21.5249H23.7417L23.6251 21.6707L23.4501 21.8166V21.8749H23.3917V21.9332L23.2751 21.9916V22.0499H23.2167V22.1082H23.1584V22.1666L23.0417 22.2249L22.3417 22.9249V22.9832H22.2834V23.0416H22.2251V23.0999L22.1084 23.1582L21.3501 23.9166V23.9749H21.2917V24.0332H21.2334V24.0916H21.1751V24.1499H21.1167V24.2082H21.0584V24.2666H21.0001L20.7959 24.4999L19.0459 26.2499L18.9001 26.3666L18.7834 26.4832V26.5416L18.6667 26.5999L18.6084 26.7166H18.5501L18.3459 26.9499L18.0251 27.2707L17.7917 27.4749L17.3542 27.8832L17.2667 27.9999L17.6459 28.0291H18.5209L20.4751 28.0582H34.5334L34.5917 27.9999L34.6209 12.3666V10.7916H34.5917ZM17.3251 30.7707L17.2959 30.8874L17.8209 31.4124L18.0542 31.6166L18.9292 32.4916L19.1042 32.6374L19.2792 32.8416L19.5126 33.0457L19.6584 33.2207H19.7167L19.7459 33.3082L19.9792 33.5124L20.6209 34.1541L20.7667 34.3291L20.9709 34.5041L21.1751 34.7374H21.2334L21.2626 34.8249L21.4376 34.9707L21.6126 35.1749L21.8459 35.3791L21.9917 35.5541H22.0501L22.1084 35.6707L22.2542 35.7874L22.4584 36.0207L23.1584 36.7207H23.2167L23.2459 36.8082L24.6459 38.2082H24.7042L24.7626 38.3249L25.4917 39.0541H25.5501L25.5792 39.1416L25.8417 39.4041H25.9001L25.9292 39.4916L26.1042 39.6374L26.3084 39.8707L27.2417 40.8041H27.3001L27.3292 40.8916L27.5042 41.0374L27.7084 41.2707L30.2459 43.8082H30.3042L30.3626 43.9249L35.1751 48.7374H35.2334L35.2626 48.8249L35.4376 48.9707L35.6417 49.2041L35.7584 49.3207H35.8167L35.8459 49.4082L37.2459 50.8082H37.3042L37.3626 50.9249L37.5959 51.1582L37.7709 51.3041L37.9751 51.5374L38.1209 51.6541L38.3251 51.8874L38.6459 52.2082H38.7042L38.7626 52.3249L39.0251 52.5874H39.0834L39.1126 52.6749L39.4626 53.0249L39.6376 53.1707L39.8417 53.4041L40.8626 54.4249L41.0376 54.5707L41.2418 54.8041L42.9918 56.5541H43.0501L43.0793 56.6416L43.3126 56.8457L44.9459 58.4791L45.2668 58.7416L45.3543 58.8291H45.4126V41.6207L45.3834 41.5916H41.3001L40.6292 41.5624L39.7251 41.4457L39.1126 41.2999L38.4709 41.0666L37.7126 40.6874L37.3042 40.4249L36.8376 40.0457L36.5459 39.7832L36.3126 39.5499L36.0501 39.2291L35.7876 38.8791L35.4667 38.3541L35.2334 37.8874L35.0876 37.5666L34.8251 36.7791L34.7084 36.2541L34.6501 35.6999L34.6209 34.7374V30.9457L34.5917 30.7999L33.8626 30.7707H17.3251ZM48.2126 41.5916L48.1834 42.1166L48.1543 45.7041V58.8582L48.1834 58.9166L48.3293 58.8582L48.6793 58.5374L48.8543 58.3332L49.0293 58.1874L49.2334 57.9541L49.4376 57.7499L49.6126 57.6041L49.7876 57.3999L50.0209 57.1957L53.8418 53.3749L53.9876 53.1999L54.2209 52.9957L54.5418 52.6457L55.0084 52.1791L55.2418 51.9749L55.3584 51.8291L55.5918 51.6249L56.6418 50.5749L56.8459 50.3416L56.9918 50.2249L57.1959 49.9916L59.1209 48.0666L59.3543 47.8624L60.6084 46.6082V46.5499L60.7251 46.4916L61.0751 46.1124L64.1668 43.0207L64.5459 42.6707L65.4793 41.7374L65.5084 41.6207L65.3918 41.5916H48.2126Z" fill="#263849"/>
<path d="M4.81242 50.9541H23.5958L24.4708 50.9833L24.7916 51.0416L25.1416 51.2458L25.4624 51.5666L25.6374 51.8583L25.6958 52.1208V52.6166L25.5791 52.8791L25.2874 53.2874L25.0249 53.5791L24.9083 53.6374L24.5874 53.6666L23.3041 53.6958H5.13325L4.54992 53.6374L4.31659 53.5499L4.05409 53.2874L3.79159 52.8791L3.67492 52.6166L3.64575 52.2958L3.70409 51.9458L3.84992 51.6541H3.90825L3.96659 51.5083L4.08325 51.3624H4.14159V51.3041L4.57909 51.0124L4.81242 50.9541Z" fill="#0AC2D4"/>
<path d="M3.26667 34.6792H8.4875L9.5375 34.7084L9.8875 34.7959L10.1792 34.9417L10.5 35.2625L10.6458 35.4959L10.7333 35.7584L10.7625 36.1959L10.675 36.4875L10.4708 36.8375L10.2375 37.1292L10.0333 37.3042L9.77083 37.3917L9.45 37.4209H1.16667L0.729167 37.3625L0.554167 37.2459L0.4375 37.1L0.2625 36.8667L0.116667 36.7209V36.6625L0 36.6042V35.4959H0.0583333V35.4375H0.116667L0.175 35.3209L0.291667 35.2042H0.35L0.408333 35.0875L0.6125 34.9125L1.02083 34.7084L3.26667 34.6792Z" fill="#0AC2D4"/>
<path d="M10.4124 42.2041H18.2874L18.6957 42.2624L19.0457 42.4083L19.3666 42.6708L19.5707 42.9624L19.6874 43.3124L19.7166 43.6333L19.6291 43.9833L19.4541 44.3333L19.1624 44.6833L18.8999 44.8583L18.5207 44.9458L16.3332 44.9749H11.0832L10.4124 44.9458L10.0624 44.8583L9.7999 44.6541L9.56657 44.3624L9.33324 43.9541L9.2749 43.6624L9.30407 43.3124L9.4499 42.9624L9.65407 42.6999L9.7999 42.5541L10.0041 42.3791L10.2082 42.2624L10.4124 42.2041Z" fill="#0AC2D4"/>
<path d="M10.9375 20.3291H14.7L15.4875 20.3583L15.8667 20.4166L16.2167 20.5916L16.4792 20.8833L16.6542 21.2333L16.7417 21.5833V21.9041L16.6542 22.2249L16.5084 22.4874L16.1875 22.8666L15.9542 23.0124L15.75 23.0708L15.3125 23.0999H10.325L9.82918 23.0708L9.53752 22.9833L9.18752 22.6624L8.92502 22.3124L8.80835 22.0208V21.5249L8.89585 21.2333L9.07085 20.9416L9.39168 20.5624L9.74168 20.3874L9.88752 20.3583L10.9375 20.3291Z" fill="#0AC2D4"/>
<path d="M1.8375 20.3291H5.25L5.83333 20.3583L6.125 20.4166L6.3875 20.5333L6.65 20.7083L6.88333 20.9708L7.11667 21.4374L7.14583 21.5541V21.9041L7.02917 22.1958L6.85417 22.4874L6.59167 22.7791L6.3 22.9833L6.15417 23.0416L5.97917 23.0708L2.39167 23.0999H1.60417L1.05 23.0708L0.7 22.9833L0.408333 22.7499L0.204167 22.4583L0 22.2249V21.1166L0.233333 20.9124L0.525 20.6208L0.816667 20.4458L1.10833 20.3583L1.8375 20.3291Z" fill="#0AC2D4"/>
<path d="M52.0332 22.6919H52.2666L52.6166 22.7794L52.9082 22.9544L53.2291 23.2169L53.4041 23.4502L53.5499 23.7711L53.5791 23.8586V24.2669L53.4624 24.5877L53.2582 24.8794L52.9957 25.1711L52.7041 25.3752L52.4124 25.4919H51.9749L51.6832 25.4044L51.3916 25.2002L51.2457 25.0836L50.9541 24.7044L50.8082 24.3836L50.7791 23.9752L50.8666 23.6252L51.0416 23.3044L51.4499 22.8961L51.7416 22.7502L52.0332 22.6919Z" fill="#263849"/>
<path d="M13.1251 34.7085H13.6209L13.9126 34.796L14.2334 34.971L14.4667 35.1752L14.7001 35.4668L14.8167 35.7877L14.8459 36.0502L14.7876 36.4002L14.5834 36.8085L14.3209 37.1002L14.0876 37.2752L13.7084 37.421H13.0959L12.8042 37.3043L12.4834 37.071L12.2501 36.7793L12.1042 36.4877L12.0459 36.2543V35.9043L12.1334 35.5252L12.3084 35.2627L12.5709 34.971L13.0376 34.7377L13.1251 34.7085Z" fill="#0AC2D4"/>
</g>
<defs>
<clipPath id="clip0_163_49">
<rect width="70" height="70" fill="white"/>
</clipPath>
</defs>
</svg>
