<svg width="70" height="70" viewBox="0 0 70 70" fill="none" xmlns="http://www.w3.org/2000/svg">
<path d="M17.0626 2.15845H17.8209L18.3751 2.24595L18.8126 2.36261L19.3959 2.59595L19.8334 2.82928L20.3001 3.17928L20.5918 3.44178L20.8543 3.70428L21.2043 4.20011L21.4668 4.66678L21.7001 5.22095L21.7876 5.62928L21.8459 6.30011L21.8751 7.93345V8.75011L22.1376 8.72095L30.5376 8.69178L30.5668 6.24178L30.6543 5.68761L30.8876 4.92928L31.1209 4.46261L31.3543 4.05428L31.6168 3.70428L31.9668 3.32511L32.3751 3.00428L32.8418 2.71261L33.4543 2.42095L33.9793 2.24595L34.5334 2.15845H35.3501L35.9043 2.24595L36.4876 2.42095L37.0126 2.65428L37.5376 2.97511L37.9459 3.29595L38.1501 3.47095L38.3543 3.70428L38.7043 4.20011L38.9668 4.66678L39.2001 5.27928L39.3168 5.80428L39.3751 6.41678V8.72095H48.0668V6.94178L48.0959 6.18345L48.1834 5.54178L48.3293 5.10428L48.6501 4.40428L49.0293 3.85011L49.3501 3.47095L49.5543 3.26678L49.9043 3.00428L50.3418 2.71261L50.8959 2.45011L51.5084 2.24595L52.0626 2.15845H52.8209L53.3751 2.24595L53.8126 2.36261L54.3959 2.59595L54.8334 2.82928L55.3001 3.17928L55.5918 3.44178L55.8251 3.67511L56.1751 4.14178L56.4668 4.66678L56.6709 5.13345L56.7876 5.62928L56.8459 6.38761L56.8751 7.96261V8.75011L57.6043 8.72095H62.5334L63.2918 8.80845L63.9334 8.95428L64.5751 9.18761L65.1293 9.47928L65.4793 9.71261L65.7709 9.94595L66.0918 10.2084L66.4709 10.5876L66.7918 11.0251L67.1126 11.5501L67.4334 12.2209L67.5793 12.6584L67.6959 13.2418L67.7543 13.8543V42.7001L67.6959 43.0793L67.5793 43.3126L67.3751 43.4876L66.9084 43.7209L66.7626 43.7501H66.4126L66.0626 43.5751L65.6834 43.2251L65.5959 42.9043L65.5668 42.6126V24.0043H4.3751V57.8959L4.43343 58.5668L4.5501 59.0334L4.7251 59.4709L4.92926 59.7918L5.1626 60.0834L5.30843 60.2584L5.36676 60.2876V60.3459L5.48343 60.4043L5.83343 60.6668L6.32927 60.9584L6.79593 61.1043L7.14593 61.1626L7.46676 61.1918L38.0626 61.2209L38.5293 61.2501L38.7918 61.3376L39.0543 61.5126L39.2293 61.7459L39.3459 62.0376L39.3751 62.1543V62.4459L39.2584 62.7959L39.0834 63.0584L38.8501 63.2626L38.5584 63.3501L37.2459 63.3793H7.3501L6.44593 63.2918L5.8626 63.1459L5.13343 62.8543L4.69593 62.5918L4.2876 62.3001L3.87926 61.9501L3.52926 61.6001L3.1501 61.1043L2.8001 60.5209L2.47926 59.7626L2.30426 59.1793L2.1876 58.6251L2.12926 58.0709L2.1001 55.3584V14.2334L2.12926 13.7084L2.30426 12.9209L2.47926 12.3376L2.8001 11.6668L3.09176 11.1709L3.3251 10.8501L3.70426 10.3834L4.0251 10.0626L4.31676 9.82928L4.84176 9.45011L5.45426 9.12928L5.97926 8.95428L6.67927 8.80845L7.4376 8.72095L9.7126 8.69178L13.0668 8.72095V6.76678L13.0959 6.18345L13.1834 5.54178L13.3293 5.10428L13.6501 4.40428L14.0293 3.85011L14.2918 3.52928L14.5834 3.23761L15.1084 2.85845L15.5751 2.59595L15.9834 2.42095L16.5084 2.24595L17.0626 2.15845ZM34.7959 4.34595L34.3293 4.43345L33.9793 4.57928L33.6876 4.75428L33.4543 4.95845L33.1918 5.27928L32.9293 5.77511L32.8126 6.24178L32.7834 6.53345L32.7543 10.5584V13.1251L32.8126 13.5334L32.9584 14.0001L33.1626 14.3793L33.4834 14.7293L33.7751 14.9334L34.2126 15.1376L34.6501 15.2543H35.3209L35.6418 15.1668L36.0501 14.9918L36.4293 14.7293L36.7793 14.3793L36.9543 14.0293L37.0709 13.6209L37.1001 13.4168L37.1293 12.6293V6.44595L37.0709 5.95011L36.9251 5.57095L36.7501 5.27928L36.4876 4.95845L36.1084 4.66678L35.6126 4.43345L35.1459 4.34595H34.7959ZM17.0918 4.37511L16.6543 4.49178L16.3043 4.66678L16.0126 4.92928L15.8084 5.13345L15.5168 5.60011L15.4001 5.83345L15.3126 6.30011L15.2834 6.59178L15.2543 10.8209V12.9793L15.3126 13.4751L15.4293 13.9418L15.6334 14.3209L15.9251 14.6709H15.9834V14.7293L16.3334 14.9626L16.6543 15.1376L17.0918 15.2543H17.7918L18.1418 15.1668L18.5209 14.9918L18.9293 14.7293L19.1626 14.4959L19.3668 14.2043L19.5126 13.8834L19.5709 13.5918L19.6001 13.3584L19.6293 8.22511V6.79595L19.6001 6.15428L19.5418 5.83345L19.3084 5.36678L19.0168 4.98761L18.6668 4.69595L18.2584 4.49178L17.9959 4.40428L17.8209 4.37511H17.0918ZM52.0918 4.37511L51.6543 4.49178L51.3043 4.66678L51.0126 4.92928L50.8084 5.13345L50.5168 5.60011L50.4001 5.83345L50.3126 6.27095L50.2834 6.56261L50.2543 10.6168V13.0084L50.3126 13.5043L50.4293 13.9418L50.6334 14.3209L50.9251 14.6709H50.9834V14.7293L51.4793 15.0501L51.8293 15.1959L52.0918 15.2543H52.7918L53.1418 15.1668L53.5209 14.9918L53.9293 14.7293L54.1626 14.4959L54.3668 14.2043L54.5126 13.8834L54.5709 13.5918L54.6001 13.3293L54.6293 7.96261V6.76678L54.6001 6.12511L54.5418 5.83345L54.3084 5.36678L54.0168 4.98761L53.6668 4.69595L53.2001 4.46261L52.8209 4.37511H52.0918ZM8.0501 10.8793L7.37926 10.9084L6.94176 10.9668L6.50426 11.0834L6.15426 11.2293L5.83343 11.4334L5.4251 11.7543L5.19176 11.9876L4.9001 12.3959L4.66676 12.8043L4.49176 13.2709L4.40426 13.6501L4.3751 14.2918V21.8459L4.43343 21.8751H65.4209L65.5376 21.8459L65.5668 21.7876V13.7668L65.5084 13.3584L65.3334 12.8334L65.0709 12.3668L64.8668 12.1043L64.6043 11.8126L64.3418 11.5793L63.9334 11.3168L63.5543 11.1418L62.9418 10.9668L62.4168 10.9084L61.6876 10.8793H56.9626L56.8751 10.9084L56.8168 13.3876L56.7584 13.9709L56.6418 14.4668L56.4084 15.0209L56.1751 15.4293L55.9126 15.7793L55.5626 16.1876L55.2709 16.4501L54.8334 16.7709L54.3084 17.0626L53.6959 17.2668L53.1126 17.4126L52.5584 17.4709L51.8876 17.4418L51.1584 17.2959L50.6334 17.0918L50.1959 16.8584L49.7876 16.5668L49.3501 16.1584L49.0293 15.7793L48.6793 15.2251L48.3876 14.6126L48.2126 14.0293L48.1251 13.4168L48.0959 11.8709L48.0668 10.9084L48.0376 10.8793H39.3751L39.3459 13.2418L39.2584 13.9709L39.1126 14.5543L38.9084 15.0209L38.6168 15.5459L38.3251 15.9251L37.9751 16.3043L37.5668 16.6251L37.1584 16.8876L36.6626 17.1209L35.9918 17.3251L35.4376 17.4418H34.4168L33.6876 17.2959L33.1334 17.0918L32.6376 16.8293L32.2876 16.5668L31.9376 16.2459L31.7334 16.0418L31.4418 15.6626L31.1793 15.2251L30.8584 14.5543L30.6834 13.9418L30.6251 13.5918L30.5959 13.2126V10.8793H21.8751L21.8168 13.3584L21.7584 13.9709L21.6418 14.4668L21.4668 14.9043L21.2334 15.3418L20.9418 15.7501L20.5626 16.1876L20.2709 16.4501L19.8334 16.7709L19.3084 17.0626L18.6959 17.2668L18.1126 17.4126L17.5584 17.4709L16.8876 17.4418L16.1584 17.2959L15.6334 17.0918L15.1959 16.8584L14.7876 16.5668L14.3501 16.1584L14.0293 15.7793L13.6793 15.2251L13.3876 14.6126L13.2126 14.0293L13.1251 13.4459L13.0959 12.8334V11.9584L13.0668 10.9084L13.0376 10.8793H8.0501Z" fill="white"/>
<path d="M52.6167 39.375H54.5417L55.5333 39.4625L56.2917 39.5792L57.1667 39.7833L58.0708 40.0458L59.2083 40.4833L60.0541 40.8917L60.6375 41.2125L61.2208 41.5625L61.775 41.9417L62.3875 42.4083L62.8542 42.7875L63.1458 43.05L63.525 43.4L64.2833 44.1583L64.4875 44.3917L64.8958 44.9167L65.275 45.4417L65.4792 45.7625L65.8292 46.3167L66.1791 46.9583L66.5 47.6L66.9083 48.5917L67.1417 49.2917L67.4916 50.6333L67.6375 51.5083L67.7542 52.675V54.5125L67.6083 55.8542L67.4916 56.525L67.2875 57.3417L67.0541 58.1L66.8208 58.7417L66.5583 59.3833L66.2083 60.1125L65.975 60.5792L65.7125 61.0167L65.4208 61.4542L65.2167 61.775L64.925 62.1542L64.6917 62.4458L64.3417 62.8542L64.2833 62.9417H64.225L64.1667 63.0583L63.7 63.5542L63.3208 63.9333L63.0875 64.1375L62.7958 64.4L62.475 64.6625L62.0375 65.0125L61.7167 65.2458L61.3083 65.5083L60.725 65.8583L60.2583 66.1208L59.5 66.5L58.5667 66.8792L57.6917 67.1708L56.6417 67.4333L56.0292 67.55L55.125 67.6667L54.4542 67.725L53.725 67.7542H52.9958L52.0625 67.6958L51.1583 67.5792L50.4875 67.4625L49.9042 67.3167L49.1167 67.0833L48.3583 66.8208L47.6 66.5L46.8708 66.15L46.0542 65.6833L45.325 65.1875L44.8292 64.8083L44.3625 64.4292L44.0708 64.1667L43.6917 63.8167L43.1958 63.3208L42.9917 63.0875L42.6417 62.6792L42.2333 62.1833L41.825 61.6292L41.5917 61.2792L41.2125 60.6667L40.8625 59.9958L40.5708 59.3833L40.2208 58.5083L39.9583 57.7208L39.7542 57.0208L39.5208 55.9708L39.4042 55.2125L39.3458 54.6L39.3167 54.0458V52.9958L39.4042 51.9167L39.4917 51.3917L39.7833 49.9917L39.9583 49.3792L40.1917 48.7083L40.4542 48.0667L40.8625 47.1625L41.0083 46.9292L41.2125 46.55L41.5917 45.9083L42.2917 44.9167L42.6125 44.5083L42.875 44.1875H42.9333L42.9917 44.0708L43.1958 43.8375L43.5458 43.4875L43.75 43.2542H43.8083V43.1958H43.8667V43.1375L44.1 42.9333L44.3917 42.6708L44.8 42.35L45.2958 41.9708L45.7625 41.65L46.1708 41.3875L46.7833 41.0375L47.425 40.7167L48.2708 40.3375L49.0583 40.0458L49.7292 39.8417L50.6042 39.6375L51.3917 39.4917L52.0917 39.4042L52.6167 39.375ZM52.9958 41.5333L52.0625 41.6208L51.1292 41.7958L50.2542 42L49.4667 42.2625L48.6792 42.5833L47.95 42.9333L47.425 43.225L46.8125 43.6333L46.3458 43.9542L45.8792 44.3333L45.6458 44.5375L45.2375 44.9167L45.0042 45.1208L44.7417 45.3833L44.4792 45.7042L44.2458 45.9667L44.0417 46.2292L43.75 46.6375L43.2833 47.3667L42.9042 48.0667L42.5833 48.7375L42.35 49.2917L42.0875 50.0208L41.8833 50.7792L41.65 52.0042L41.5333 52.8792L41.5042 53.4042V53.9292L41.5917 54.775L41.7667 55.825L41.9417 56.6125L42.175 57.3708L42.4958 58.2458L42.9917 59.2958L43.225 59.7042L43.6042 60.3167L43.925 60.7542L44.2167 61.1333L44.5958 61.5708L44.9458 61.95L45.4125 62.4167L45.7333 62.6792L46.1125 63L46.5792 63.35L47.2792 63.8167L47.9208 64.1958L48.825 64.6333L49.6708 64.9542L50.3125 65.1583L51.1583 65.3625L51.8583 65.4792L52.7042 65.5667L53.2 65.5958H53.9L55.0083 65.5083L55.6791 65.4208L56.4958 65.2458L57.4583 64.9542L58.2167 64.6625L58.9167 64.3417L59.4125 64.0792L59.9667 63.7583L60.2583 63.5542L60.7542 63.2042L61.3375 62.7375L61.7458 62.3875L62.3 61.8333L62.5042 61.6L62.8833 61.1917L63.1166 60.9L63.4375 60.4917L63.7292 60.0542L63.9625 59.675L64.3125 59.0625L64.7792 58.0125L65.1292 56.9625L65.275 56.4083L65.45 55.5042L65.5375 54.8333L65.5667 54.3667V52.9375L65.5083 52.0625L65.3625 51.1875L65.1583 50.3417L64.8083 49.2917L64.5167 48.5917L64.2833 48.0958L63.9333 47.4542L63.5833 46.9L63.175 46.3167L62.7958 45.85L62.5333 45.5583L62.3292 45.325L61.7167 44.7125L61.3958 44.45L61.0167 44.1292L60.4916 43.75L59.8208 43.3125L59.2958 43.0208L58.625 42.6708L57.925 42.3792L57.1083 42.0875L56.2917 41.8542L55.5333 41.7083L54.775 41.5917L54.1042 41.5333H52.9958Z" fill="white"/>
<path d="M39.725 29.4875H43.575L44.2166 29.5459L44.5375 29.6334L44.8875 29.8084L45.2083 30.0709L45.4708 30.3625L45.675 30.6834L45.7916 30.9167L45.8791 31.2667L45.9083 31.5292L45.9375 32.6084V34.3875L45.9083 35.0584L45.85 35.4959L45.675 35.9334L45.5583 36.1667L45.2958 36.5167L45.0041 36.8084L44.5083 37.0417L44.1291 37.1292L43.8958 37.1584L42.875 37.1875H41.0375L39.0833 37.1584L38.6458 37.1L38.3833 36.9834L38.0041 36.6917L37.6833 36.3417L37.3916 35.9334L37.2166 35.5834L37.1 35.175V31.6167L37.1583 31.2959L37.3625 30.7417L37.6541 30.3042L37.975 29.9834L38.3833 29.7209L38.7041 29.575L39.0833 29.5167L39.725 29.4875ZM39.375 31.7042L39.3458 31.7625L39.375 34.9709H43.4291L43.6625 34.9417L43.7208 34.8834V32.8125L43.75 31.7917L43.7208 31.7625L43.4583 31.7334L42.4083 31.7042H39.375Z" fill="white"/>
<path d="M26.6291 29.4875H30.5375L31.1208 29.5459L31.4708 29.6625L31.7625 29.8375L32.1416 30.1292L32.375 30.3917L32.5791 30.7125L32.6958 31.0042L32.7541 31.2667L32.7833 31.5584L32.8125 33.1334V34.4167L32.7833 35.1167L32.6958 35.5834L32.5208 36.0209L32.2875 36.3709L32.025 36.6625L31.7916 36.8667L31.4708 37.0125L30.975 37.1292L30.625 37.1584L29.5166 37.1875H27.5333L25.9583 37.1584L25.55 37.1L25.2 36.9542L24.9375 36.75L24.7916 36.6334L24.5875 36.4L24.325 36.0792L24.1208 35.6709L24.0041 35.3209L23.975 35.1167L23.9458 34.1834V33.6292L23.975 31.6167L24.0333 31.2667L24.2666 30.6834L24.5 30.3625L24.6458 30.1875L24.8791 29.9834L25.1416 29.7792L25.4916 29.6042L25.725 29.5459L25.9875 29.5167L26.6291 29.4875ZM26.3083 31.7042L26.2208 31.7334V34.9709H30.2458L30.5666 34.9417L30.5958 32.7834L30.625 31.7625L30.4208 31.7334L29.225 31.7042H26.3083Z" fill="white"/>
<path d="M25.7834 49.2041H30.4209L31.0334 49.2333L31.3543 49.2916L31.6168 49.4083L31.8793 49.5833L32.1418 49.8166L32.3459 50.0499L32.5501 50.3416L32.6959 50.6916L32.7834 51.1874V54.7458L32.6959 55.2416L32.5501 55.7083L32.2876 56.0874L31.9668 56.4083L31.6751 56.6124L31.4418 56.7291L30.9751 56.8166L30.5668 56.8458L29.2834 56.8749H26.7751L26.0459 56.8458L25.6084 56.7874L25.2584 56.6708L24.9668 56.4666L24.6459 56.1749L24.3251 55.7666L24.1209 55.3583L24.0043 54.9499L23.9751 54.6874V51.4499L24.0334 50.9541L24.2668 50.3708L24.5584 49.9624L24.7043 49.7874L24.9376 49.5833L25.2584 49.3791L25.6084 49.2333L25.7834 49.2041ZM26.2793 51.3624L26.2501 51.3916L26.2209 54.3958L26.2501 54.6291H30.2751L30.5376 54.5999L30.5959 54.5416V52.9958L30.6251 51.3916L27.3584 51.3624H26.2793Z" fill="white"/>
<path d="M12.8334 49.2041H17.3251L18.0834 49.2624L18.4626 49.3791L18.7834 49.5833L19.0751 49.8458L19.3959 50.2833L19.5418 50.5749L19.6293 50.9541L19.6584 51.2458V54.5416L19.5709 55.2708L19.4543 55.6208L19.2501 55.9708L18.9001 56.3499L18.4918 56.6416L18.1709 56.7583L17.7918 56.8166L17.3834 56.8458L15.7793 56.8749H13.6501L12.8918 56.8458L12.4543 56.7874L12.1043 56.6416L11.7834 56.4083L11.4918 56.1458L11.2001 55.7666L10.9668 55.2708L10.8793 54.9208L10.8501 54.6874V51.4499L10.9084 50.9833L11.1126 50.4291L11.3168 50.0791L11.4626 49.9041L11.9293 49.4958L12.2793 49.3208L12.6001 49.2333L12.8334 49.2041ZM13.1834 51.3624L13.1251 51.3916V51.9749L13.0959 53.0249V54.6291L13.4459 54.6583H14.1459L17.2959 54.6291L17.4418 54.5999L17.4709 51.4208L17.3834 51.3916L14.6418 51.3624H13.1834Z" fill="white"/>
<path d="M13.5333 29.4875H17.4416L17.9958 29.5459L18.2875 29.6334L18.6958 29.8667L19.0166 30.1584L19.1625 30.3042L19.3666 30.5375L19.5416 30.8875L19.6291 31.2667L19.6583 31.5292V34.8542L19.6 35.4667L19.4833 35.8459L19.2208 36.2834L18.8708 36.6917L18.6083 36.8959L18.3166 37.0125L17.9666 37.1L17.7333 37.1292L17.15 37.1584H12.9791L12.4833 37.1L12.1333 36.9834L11.8125 36.75L11.375 36.3125L11.0833 35.875L10.9083 35.4084L10.85 35.0292L10.8208 34.125V32.5209L10.85 31.675L10.9083 31.2959L11.025 30.9167L11.2 30.5959L11.4333 30.3042L11.6958 30.0125L12.0166 29.7792L12.3958 29.6042L12.6583 29.5459L13.5333 29.4875ZM13.1833 31.7042L13.0958 31.7334V34.9709H17.2666L17.4416 34.9417L17.4708 31.7625L17.3541 31.7334L16.4791 31.7042H13.1833Z" fill="white"/>
<path d="M25.8709 39.3459H30.3918L31.0918 39.3751L31.4709 39.4918L31.7626 39.6668L32.1418 39.9876L32.4334 40.3376L32.6376 40.6876L32.7543 41.1251L32.7834 41.3293L32.8126 43.4001V44.2168L32.7834 44.8876L32.6959 45.3834L32.5501 45.8209L32.2876 46.2293L31.9668 46.5793L31.6751 46.7834L31.4418 46.9001L31.2084 46.9584L30.9459 46.9876L30.3334 47.0168L28.9334 47.0459H27.1834L25.8709 47.0168L25.4918 46.9584L25.2293 46.8418L25.0543 46.7251L24.9084 46.6084V46.5501H24.8501L24.6459 46.3168L24.3543 45.9376L24.1793 45.6168L24.0334 45.2376L23.9751 44.9459V41.3584L24.0626 41.0376L24.2376 40.6001L24.4418 40.2793L24.7043 39.9584L25.0251 39.6668L25.4918 39.4043L25.8709 39.3459ZM26.3959 41.5043L26.2209 41.5334V44.7126L26.2501 44.8293H30.2168L30.5668 44.8001L30.5959 44.7709V43.5751L30.6251 41.5626L30.5084 41.5334L28.7876 41.5043H26.3959Z" fill="white"/>
<path d="M52.9083 29.4875H56.7875L57.3125 29.5459L57.6916 29.6625L58.0125 29.8375L58.45 30.1875L58.7125 30.5375L58.9166 30.9459L59.0041 31.2084L59.0333 31.4417L59.0625 32.8417V34.0375L59.0333 35.0584L58.975 35.4959L58.8291 35.9042L58.5958 36.3125L58.2458 36.6917L57.9833 36.8959L57.6333 37.0417L57.1666 37.1292L56.8166 37.1584H52.7916L52.1208 37.1292L51.625 37.0417L51.3333 36.8667L51.0416 36.6042L50.75 36.2834L50.4583 35.8167L50.3125 35.4667L50.225 35.0292V31.9375L50.2541 31.4709L50.3416 31.1209L50.4875 30.7709L50.7208 30.3917L50.9833 30.1L51.3041 29.8375L51.7708 29.6042L52.0041 29.5459L52.2666 29.5167L52.9083 29.4875ZM52.5291 31.7042L52.4708 31.7625L52.5 34.9709H56.8166L56.8458 34.8834V31.7625L56.7583 31.7334L55.8541 31.7042H52.5291Z" fill="white"/>
<path d="M12.8626 39.3459H17.2668L17.9376 39.3751L18.2584 39.4626L18.6668 39.6668L19.0751 40.0168L19.3084 40.3084L19.5418 40.7168L19.6293 41.0959L19.6584 41.3293V44.6834L19.5709 45.4418L19.4543 45.7626L19.1918 46.1709L18.9293 46.4626L18.7251 46.6668L18.2584 46.9001L18.0251 46.9584L17.7334 46.9876L16.9168 47.0168H12.9501L12.4251 46.9584L12.0168 46.7834L11.6376 46.4334L11.4043 46.1709L11.1126 45.7334L10.9376 45.3543L10.8501 44.8876V41.5626L10.8793 41.2418L10.9959 40.8626L11.2293 40.3959L11.4918 40.0459L11.7834 39.7543L12.1334 39.5209L12.5418 39.3751L12.8626 39.3459ZM13.2418 41.5043L13.1251 41.5334V42.1168L13.0959 43.6918V44.6834L13.1251 44.8293L13.4168 44.8584H14.1459L17.2668 44.8293L17.4418 44.8001L17.4709 41.5626L17.3834 41.5334L16.3043 41.5043H13.2418Z" fill="white"/>
<path d="M60.6084 48.6208L60.9 48.6792L61.25 48.8833L61.5417 49.1458L61.7459 49.4958L61.775 49.5833V49.9333L61.6 50.2833L61.3375 50.6042L61.075 50.8958L60.8709 51.1292L59.5584 52.4417L59.4125 52.6167L59.1792 52.8208L56.4084 55.5917L56.3792 55.65H56.3209L56.2625 55.7667L55.0959 56.9334L54.8917 57.1083L52.9084 59.0917L52.7625 59.2667L52.6459 59.3834H52.5875L52.5292 59.5L52.2084 59.7625L51.9167 59.9959L51.6834 60.1125L51.4792 60.1709L51.1584 60.1417L50.75 59.9083L50.3709 59.5875L50.0792 59.2959L49.8459 59.0917L49.2625 58.5084V58.45H49.2042L49.0292 58.2459L48.9125 58.1583V58.1H48.8542L48.65 57.8667L48.475 57.7208L48.2709 57.4875L47.9792 57.225V57.1667H47.9209L47.7167 56.9334L47.5417 56.7875L47.3375 56.5542L46.6959 55.9125L46.4917 55.7375L46.2875 55.5042L45.9667 55.1542L45.7042 54.7459L45.6459 54.5417V54.1917L45.7625 53.9L45.9667 53.6375L46.375 53.375L46.6667 53.2583H46.8709L47.1625 53.375L47.5417 53.6375L47.8334 53.9292L48.0667 54.1333L51.3625 57.4292L51.4792 57.4L51.7125 57.1959L51.7417 57.1375H51.8L51.8584 57.0209L52.0917 56.7875L52.2959 56.6125L52.325 56.5542H52.3834L52.4417 56.4375L54.2209 54.6583L54.425 54.425L55.3292 53.5209L55.5625 53.3167L56.5834 52.2958L56.7292 52.1208L56.9334 51.9458L57.0792 51.7708L57.3125 51.5667L58.2167 50.6625L58.2459 50.6042H58.3042L58.3625 50.4875L59.3834 49.4667L59.6167 49.2625L59.7334 49.2042L59.7917 49.0875L60.0834 48.8542L60.4917 48.65L60.6084 48.6208Z" fill="white"/>
<path d="M38.9083 39.3459H43.1375L44.0125 39.3751L44.3041 39.4918L44.6541 39.8126L44.8 40.1043V40.7459L44.6833 41.0376L44.45 41.3584L44.2166 41.4751L44.1291 41.5043L43.1083 41.5334H41.7666L39.375 41.5043V44.0126L39.3458 44.6543L39.9291 44.9751L40.3083 45.3251L40.4833 45.6168L40.5416 45.8209V46.0543L40.3083 46.5209L39.9875 46.8418L39.6958 46.9876L39.2 47.0168L38.7333 46.9293L38.3541 46.7834L38.0333 46.6084L37.6833 46.2584L37.4208 45.8793L37.275 45.5876L37.1291 45.1209L37.1 44.9459V41.3876L37.1875 41.0376L37.3625 40.5709L37.7125 40.0751L37.9166 39.8709L38.325 39.5793L38.7625 39.3751L38.9083 39.3459Z" fill="white"/>
</svg>
