<?xml version="1.0" standalone="no"?>
<!DOCTYPE svg PUBLIC "-//W3C//DTD SVG 20010904//EN"
 "http://www.w3.org/TR/2001/REC-SVG-20010904/DTD/svg10.dtd">
<svg version="1.0" xmlns="http://www.w3.org/2000/svg"
 width="900.000000pt" height="804.000000pt" viewBox="0 0 900.000000 804.000000"
 preserveAspectRatio="xMidYMid meet">
<metadata>
Created by potrace 1.10, written by Peter Selinger 2001-2011
</metadata>
<g transform="translate(0.000000,804.000000) scale(0.100000,-0.100000)"
fill="#263849" stroke="">
<path d="M7615 8031 c8 -13 -6 -20 -64 -31 -87 -16 -192 -68 -296 -146 -78
-59 -151 -136 -321 -340 -171 -206 -215 -255 -249 -275 -29 -18 -116 -19
-2745 -19 -2902 0 -2796 2 -2970 -46 -57 -16 -203 -69 -231 -83 -131 -71 -139
-76 -229 -137 -110 -75 -250 -220 -317 -329 -71 -113 -142 -301 -182 -478 -14
-60 -16 -5015 -2 -5061 5 -17 16 -56 24 -86 80 -287 179 -464 361 -642 171
-168 338 -254 621 -321 137 -33 520 -37 3625 -37 2578 1 3075 3 3185 15 180
20 281 48 423 117 128 62 221 129 336 243 228 226 345 437 377 680 6 47 16 85
25 91 21 17 21 4869 0 4877 -9 4 -16 31 -21 79 -24 243 -131 477 -302 660 -71
75 -91 112 -79 144 3 9 15 59 26 111 47 227 6 437 -124 631 -43 64 -144 170
-196 205 -132 90 -192 120 -300 147 -36 10 -64 22 -62 29 1 8 -44 11 -159 11
-96 0 -158 -4 -154 -9z m315 -290 c101 -29 188 -80 260 -151 73 -71 117 -141
151 -240 30 -84 32 -278 4 -350 -52 -136 -102 -199 -257 -327 -72 -60 -152
-126 -178 -148 -80 -69 -386 -321 -575 -475 -38 -30 -87 -71 -110 -90 -23 -19
-73 -60 -110 -90 -37 -30 -87 -71 -110 -90 -23 -19 -73 -60 -110 -90 -38 -30
-86 -70 -106 -88 -26 -23 -43 -31 -52 -25 -8 4 -87 91 -177 193 -89 102 -186
210 -214 240 -28 30 -80 88 -115 128 -57 65 -62 74 -49 90 21 25 152 176 158
182 3 3 30 34 60 70 30 36 91 106 135 155 44 50 105 119 135 155 30 36 63 74
73 85 10 11 67 78 125 149 59 71 150 179 202 241 52 61 136 160 185 219 126
150 217 217 350 257 84 25 239 25 325 0z m-1513 -806 c2 -6 -5 -20 -14 -30
-23 -26 -136 -158 -188 -220 -22 -26 -48 -57 -59 -69 -10 -11 -51 -64 -92
-117 -119 -157 -188 -204 -364 -248 -213 -54 -296 -83 -435 -152 -172 -86
-213 -113 -346 -226 -102 -87 -150 -140 -294 -333 -128 -170 -164 -207 -214
-217 -20 -4 -961 -8 -2091 -8 l-2055 0 0 385 c1 402 5 455 50 580 74 210 226
388 447 525 9 5 38 21 65 34 26 13 56 27 66 32 36 19 115 43 197 60 80 16 240
17 2704 16 1812 -2 2620 -5 2623 -12z m2115 -430 c73 -104 106 -175 135 -295
14 -54 17 -135 19 -460 2 -238 -1 -401 -7 -412 -9 -17 -34 -18 -385 -18 -291
0 -376 3 -379 13 -2 6 -9 185 -15 397 -9 311 -8 392 2 421 9 26 42 60 114 120
55 46 136 114 180 151 43 37 115 97 159 133 l79 66 31 -33 c17 -18 47 -55 67
-83z m-2591 -509 c33 -14 588 -563 623 -616 23 -34 20 -63 -14 -169 -56 -174
-169 -380 -277 -501 -77 -88 -227 -220 -249 -220 -4 0 -15 -7 -24 -15 -30 -27
-195 -103 -290 -133 -106 -33 -181 -49 -285 -62 -38 -5 -78 -12 -88 -16 -38
-14 -246 21 -392 67 -174 54 -361 146 -410 200 -74 82 -106 198 -85 302 18 86
36 111 349 501 53 65 115 144 139 175 94 123 246 249 392 324 78 40 211 97
226 97 8 0 28 6 46 14 30 12 64 23 178 54 53 15 124 14 161 -2z m1677 -351 c1
-154 0 -290 -3 -302 l-5 -23 -360 0 c-387 0 -394 1 -330 49 17 12 95 77 174
144 79 67 179 151 222 187 44 36 95 79 114 96 98 88 156 133 170 131 13 -2 15
-42 18 -282z m-3394 -615 c6 -6 2 -40 -12 -95 -28 -111 -29 -248 -3 -344 53
-193 171 -316 396 -415 22 -10 48 -22 57 -27 22 -11 93 -37 133 -49 17 -5 62
-18 100 -30 385 -113 847 -60 1183 137 216 126 405 314 553 548 64 101 65 105
96 164 15 29 42 69 59 89 l30 35 390 5 c339 4 391 3 402 -10 17 -21 13 -3927
-5 -3973 -6 -16 -21 -64 -34 -105 -109 -355 -412 -612 -804 -680 -54 -10 -687
-12 -2810 -11 -2839 2 -2863 2 -2934 40 -11 6 -27 11 -37 11 -35 0 -242 110
-324 172 -148 113 -239 223 -321 390 -20 41 -41 109 -60 192 -18 86 -19 145
-19 2026 0 1065 3 1940 8 1945 10 12 3944 -3 3956 -15z m4464 8 c15 -15 17
-3791 2 -3903 -25 -193 -141 -427 -279 -566 -38 -37 -148 -121 -206 -156 -101
-61 -273 -117 -405 -132 -131 -16 -362 -19 -367 -5 -2 5 56 81 129 167 213
252 253 320 301 512 43 172 42 87 44 2125 2 1070 5 1951 8 1958 6 17 755 18
773 0z"/>
<path d="M1459 6595 c-180 -36 -321 -166 -373 -344 -58 -198 46 -430 241 -538
104 -58 272 -71 387 -30 143 52 246 154 295 289 72 202 -6 438 -184 557 -51
34 -93 49 -180 67 -82 16 -99 16 -186 -1z m195 -276 c28 -13 64 -41 80 -62 29
-36 31 -44 31 -120 0 -75 -2 -85 -30 -121 -50 -65 -93 -86 -180 -86 -89 0
-135 23 -185 92 -26 36 -30 49 -30 109 0 52 5 77 22 106 27 47 40 58 103 89
61 30 117 28 189 -7z"/>
<path d="M2694 6595 c-39 -7 -80 -17 -90 -23 -74 -37 -94 -49 -131 -79 -80
-64 -133 -157 -158 -279 -16 -76 -14 -103 10 -200 32 -124 125 -240 243 -301
130 -68 317 -69 442 -2 130 71 229 204 251 342 44 261 -120 497 -376 543 -85
16 -100 15 -191 -1z m190 -270 c72 -30 126 -112 126 -192 0 -68 -45 -146 -107
-184 -50 -31 -155 -32 -203 -2 -113 70 -144 187 -80 295 24 42 63 71 121 92
47 17 87 14 143 -9z"/>
<path d="M3930 6595 c-177 -41 -333 -192 -383 -371 -22 -77 -21 -104 2 -184
28 -96 72 -169 144 -239 48 -46 57 -52 157 -103 62 -32 70 -33 180 -33 l115 0
87 43 c105 53 179 126 229 229 33 67 34 71 34 198 -1 127 -2 132 -34 199 -67
138 -193 233 -346 263 -83 15 -112 15 -185 -2z m163 -262 c143 -51 191 -209
100 -330 -41 -54 -84 -73 -167 -73 -65 0 -78 3 -113 29 -65 47 -86 91 -86 176
0 63 3 77 29 116 32 47 117 99 163 99 14 0 48 -8 74 -17z"/>
<path d="M1565 3654 c-233 -30 -419 -199 -476 -434 -17 -69 -19 -128 -19 -785
0 -667 2 -714 20 -782 30 -115 67 -180 150 -264 53 -52 94 -84 140 -106 141
-67 87 -63 936 -63 752 0 772 1 837 21 150 47 277 155 345 294 56 116 57 126
57 905 0 576 -3 728 -14 780 -36 165 -149 309 -301 381 -121 58 -57 54 -885
55 -418 1 -773 0 -790 -2z m1480 -268 c82 -19 118 -39 167 -96 79 -92 77 -65
77 -855 1 -793 4 -761 -79 -857 -47 -54 -90 -79 -170 -98 -82 -20 -1383 -20
-1460 -1 -110 28 -174 77 -219 171 l-26 55 0 725 0 725 27 58 c45 93 110 146
213 172 75 19 1385 20 1470 1z"/>
<path d="M4355 3573 c-94 -30 -140 -57 -206 -122 -36 -36 -75 -86 -86 -111
-51 -108 -55 -123 -55 -231 0 -97 3 -112 32 -183 52 -125 170 -236 295 -279
46 -16 134 -17 1095 -17 991 0 1048 1 1110 19 171 49 281 159 331 331 24 82
24 167 0 250 -26 91 -57 146 -121 211 -66 68 -125 103 -217 129 -65 19 -105
20 -1098 19 -908 0 -1036 -2 -1080 -16z m2154 -283 c134 -91 129 -300 -9 -370
-73 -37 -142 -40 -1075 -40 -937 1 -1003 3 -1052 41 -91 68 -124 142 -103 229
21 88 81 150 165 171 17 4 478 7 1026 6 l996 -2 52 -35z"/>
<path d="M4410 2240 c-164 -17 -290 -110 -368 -270 -36 -74 -36 -77 -37 -200
l0 -125 39 -80 c65 -134 174 -223 324 -266 64 -18 111 -19 1062 -19 927 0
1000 1 1071 18 98 24 192 77 256 145 59 62 88 115 114 207 24 82 24 148 0 237
-42 162 -141 266 -319 335 l-57 23 -1010 1 c-555 1 -1039 -2 -1075 -6z m2022
-264 c68 -17 109 -44 140 -94 19 -31 23 -51 23 -119 0 -74 -3 -85 -30 -124
-16 -23 -50 -54 -75 -68 l-45 -26 -1005 0 -1005 0 -45 22 c-86 42 -130 110
-130 197 1 110 66 187 179 212 86 19 1914 19 1993 0z"/>
</g>
</svg>
