<?xml version="1.0" standalone="no"?>
<!DOCTYPE svg PUBLIC "-//W3C//DTD SVG 20010904//EN"
 "http://www.w3.org/TR/2001/REC-SVG-20010904/DTD/svg10.dtd">
<svg version="1.0" xmlns="http://www.w3.org/2000/svg"
 width="900.000000pt" height="888.000000pt" viewBox="0 0 900.000000 888.000000"
 preserveAspectRatio="xMidYMid meet">
<metadata>
Created by potrace 1.10, written by Peter Selinger 2001-2011
</metadata>
<g transform="translate(0.000000,888.000000) scale(0.100000,-0.100000)"
fill="#263849" stroke="none">
<path d="M5334 8871 c8 -13 -15 -20 -92 -26 -67 -6 -164 -25 -257 -50 -83 -23
-184 -54 -203 -64 -9 -5 -37 -17 -62 -26 -45 -17 -169 -77 -245 -118 -49 -27
-183 -117 -259 -175 -169 -128 -399 -392 -519 -597 -26 -44 -52 -87 -57 -95
-5 -8 -22 -41 -37 -72 -15 -32 -33 -60 -41 -63 -8 -3 -51 12 -96 34 -176 85
-405 141 -576 141 -175 0 -412 -59 -581 -145 -299 -150 -497 -372 -623 -695
-10 -25 -24 -60 -32 -78 -8 -18 -14 -40 -14 -48 0 -9 -6 -37 -14 -63 -8 -25
-22 -80 -32 -121 -9 -41 -20 -79 -24 -83 -4 -5 -32 3 -62 17 -130 62 -320 106
-454 106 -270 0 -592 -141 -779 -341 -142 -152 -230 -335 -264 -547 -66 -423
153 -861 529 -1053 203 -104 488 -159 577 -111 76 41 102 135 58 210 -24 40
-90 72 -149 72 -45 1 -177 30 -242 54 -135 50 -319 213 -387 344 -56 108 -77
195 -77 332 0 163 33 275 123 417 75 119 286 259 442 294 22 5 58 13 80 19
108 26 280 1 416 -62 98 -46 177 -107 285 -221 105 -111 143 -130 203 -102 54
24 101 99 101 162 0 27 -4 53 -9 59 -5 5 -19 45 -32 89 -20 69 -23 103 -23
240 0 148 2 166 28 245 100 305 284 512 566 633 99 42 270 77 378 77 81 0 253
-29 289 -49 12 -6 28 -11 36 -11 32 0 173 -73 252 -131 83 -61 128 -79 193
-79 55 0 62 3 99 38 36 36 83 113 83 139 0 14 55 142 97 228 19 39 68 120 108
180 270 407 652 662 1125 748 264 49 529 49 760 0 85 -18 263 -70 300 -88 14
-7 57 -27 95 -46 252 -120 474 -307 665 -559 171 -227 244 -373 311 -630 17
-68 39 -255 39 -343 0 -95 -16 -248 -35 -342 -34 -163 -35 -176 -24 -217 13
-48 61 -96 105 -104 47 -9 89 3 174 48 215 115 419 134 640 61 87 -29 205 -99
272 -161 37 -34 119 -145 146 -197 74 -143 99 -336 62 -476 -26 -100 -45 -155
-57 -170 -7 -8 -13 -19 -13 -24 0 -18 -66 -113 -114 -163 -55 -58 -156 -128
-221 -154 -55 -21 -148 -48 -169 -48 -26 0 -154 -29 -203 -47 -23 -8 -56 -30
-73 -49 -25 -29 -30 -43 -30 -88 0 -60 18 -91 76 -126 32 -20 44 -22 142 -17
153 8 261 37 405 108 183 90 347 250 446 433 51 95 95 227 106 319 4 36 12 60
21 64 20 8 20 218 0 226 -9 4 -17 28 -21 64 -18 154 -98 336 -204 462 -101
121 -214 211 -348 276 -107 53 -153 68 -288 95 -120 24 -249 26 -351 4 -42 -8
-92 -14 -111 -12 l-36 3 2 148 c4 247 -26 444 -102 672 -39 119 -49 142 -103
253 -123 249 -330 506 -546 679 -40 32 -75 61 -78 64 -13 15 -192 131 -255
164 -38 21 -74 41 -80 45 -5 3 -46 21 -90 39 -44 18 -93 38 -110 45 -47 20
-97 37 -135 47 -156 38 -217 50 -300 59 -109 12 -124 16 -115 30 4 7 -61 10
-190 10 -113 0 -194 -4 -191 -9z"/>
<path d="M5670 6943 c-59 -19 -86 -43 -107 -98 -8 -21 -12 -165 -12 -497 -1
-256 -4 -473 -7 -482 -11 -28 -29 -18 -88 49 -32 36 -77 81 -101 101 -38 31
-51 36 -98 36 -66 1 -107 -26 -138 -88 -17 -36 -19 -49 -9 -83 6 -22 26 -59
46 -83 65 -80 445 -446 479 -462 37 -18 82 -20 117 -7 45 17 492 446 526 506
57 97 -8 215 -117 215 -51 0 -88 -23 -204 -124 -48 -42 -92 -76 -97 -76 -5 0
-10 214 -12 493 l-3 492 -27 41 c-34 53 -101 83 -148 67z"/>
<path d="M3234 6925 c-17 -8 -138 -120 -267 -250 -260 -260 -269 -272 -251
-362 7 -39 17 -53 52 -80 81 -62 149 -38 270 93 42 46 83 84 90 84 9 0 12
-103 12 -480 0 -411 2 -486 15 -518 30 -70 91 -101 173 -89 27 4 47 18 74 48
l38 41 2 497 3 496 21 3 c16 2 38 -17 89 -78 100 -120 180 -154 260 -111 65
35 93 93 79 168 -6 32 -25 55 -118 143 -61 58 -174 166 -251 241 -77 75 -154
144 -172 153 -38 19 -77 19 -119 1z"/>
<path d="M1875 5011 c-183 -45 -313 -156 -366 -310 -17 -49 -19 -89 -19 -421
0 -341 1 -372 20 -430 30 -93 79 -153 177 -216 65 -43 142 -71 213 -79 78 -9
4713 -13 5020 -5 l255 7 78 33 c129 54 207 147 251 301 13 46 16 113 16 395 0
367 -4 395 -61 502 -32 59 -119 144 -181 176 -110 58 58 54 -2744 60 -2439 4
-2593 4 -2659 -13z m5221 -296 c28 -8 61 -26 75 -41 l24 -26 0 -364 0 -364
-30 -29 c-24 -24 -43 -32 -95 -39 -98 -14 -5041 -15 -5127 -2 -133 21 -143 52
-143 435 0 358 7 388 103 427 39 16 219 17 2593 17 2225 1 2557 -1 2600 -14z"/>
<path d="M6520 4551 c-95 -20 -184 -113 -210 -219 -36 -154 87 -321 260 -348
65 -11 165 29 225 90 54 55 95 141 95 201 0 91 -78 208 -169 255 -46 23 -145
34 -201 21z"/>
<path d="M2125 4414 c-46 -24 -63 -43 -81 -89 -20 -52 -8 -102 34 -141 64 -58
-25 -55 1552 -52 1311 3 1448 5 1480 20 44 21 64 43 79 90 21 64 -12 138 -77
172 -28 15 -163 16 -1494 16 -1307 0 -1466 -2 -1493 -16z"/>
<path d="M5435 4411 c-62 -38 -78 -66 -78 -131 0 -50 4 -65 24 -86 53 -57 64
-59 319 -59 222 0 237 1 276 22 57 30 74 60 74 131 0 47 -5 64 -22 84 -49 55
-67 58 -325 58 -215 0 -241 -2 -268 -19z"/>
<path d="M3125 3250 c-1338 -6 -1273 -3 -1392 -62 -64 -31 -161 -120 -189
-173 -57 -108 -56 -102 -56 -502 -1 -414 1 -423 70 -531 63 -98 158 -162 292
-198 61 -16 223 -17 2655 -16 2798 0 2635 -3 2758 51 47 20 167 124 167 144 0
6 6 18 13 26 17 21 43 92 56 159 7 31 11 179 11 355 0 302 -7 384 -41 477 -46
128 -157 217 -316 257 -62 15 -189 17 -1428 18 -748 0 -1918 -2 -2600 -5z
m3980 -312 c25 -7 56 -23 68 -36 22 -24 22 -25 22 -392 l0 -368 -25 -24 c-14
-14 -46 -30 -72 -36 -35 -9 -701 -12 -2606 -12 -2784 0 -2597 -4 -2652 55
l-25 27 0 358 0 359 28 29 c16 16 43 34 60 40 50 16 5142 16 5202 0z"/>
<path d="M6534 2780 c-28 -11 -70 -39 -94 -63 -114 -113 -121 -268 -17 -392
59 -71 105 -90 212 -90 74 0 98 4 131 22 90 48 154 156 154 258 0 194 -207
336 -386 265z"/>
<path d="M2147 2639 c-50 -26 -77 -72 -77 -129 0 -58 27 -101 79 -128 l42 -22
1448 0 c1381 0 1451 1 1490 18 63 29 86 65 86 138 0 70 -14 93 -77 125 -36 18
-84 19 -1495 19 -1439 -1 -1459 -1 -1496 -21z"/>
<path d="M5516 2641 c-46 -30 -66 -70 -66 -129 0 -42 6 -61 26 -87 44 -58 77
-65 322 -65 237 0 269 7 320 63 52 56 37 159 -30 208 l-41 29 -251 0 c-229 0
-254 -2 -280 -19z"/>
<path d="M1875 1466 c-158 -27 -297 -134 -355 -272 l-30 -74 0 -377 c0 -209 4
-393 9 -411 36 -122 99 -194 234 -267 23 -12 59 -32 80 -44 l38 -21 2647 0
c2623 0 2648 0 2702 20 30 11 67 29 82 40 15 11 31 20 35 20 19 1 104 102 134
160 52 103 58 153 58 475 1 409 -20 512 -126 622 -73 76 -155 114 -286 132
-115 16 -5126 13 -5222 -3z m5237 -300 c14 -4 39 -21 55 -38 l28 -29 0 -359 0
-359 -28 -29 c-64 -67 135 -62 -2641 -62 -1567 0 -2533 4 -2570 10 -73 12
-122 44 -138 90 -7 22 -13 141 -16 325 -4 308 3 381 40 421 18 21 73 40 128
46 62 7 5118 -9 5142 -16z"/>
<path d="M6570 1016 c-68 -16 -116 -44 -153 -91 -102 -128 -87 -290 35 -400
55 -49 107 -69 183 -69 77 0 128 20 185 71 175 158 109 434 -118 489 -66 16
-61 16 -132 0z"/>
<path d="M2170 883 c-63 -24 -116 -103 -106 -157 10 -49 42 -94 85 -116 40
-20 50 -20 1496 -20 1433 0 1456 0 1495 20 45 23 67 51 76 97 14 75 -19 139
-88 168 -33 13 -200 15 -1490 14 -799 0 -1460 -3 -1468 -6z"/>
<path d="M5512 860 c-52 -37 -62 -57 -62 -120 0 -63 32 -111 91 -134 57 -23
462 -23 516 -1 62 26 93 72 93 140 0 52 -16 82 -61 115 l-42 30 -247 0 -247 0
-41 -30z"/>
</g>
</svg>
