<svg width="70" height="70" viewBox="0 0 70 70" fill="none" xmlns="http://www.w3.org/2000/svg">
<g clip-path="url(#clip0_33_114)">
<path d="M32.4041 7.46655H32.9L33.1041 7.55405L33.3375 7.75822L33.4833 7.93322L33.5708 8.16655L33.6 8.37072V8.66239L33.5125 8.95405L33.3958 9.12905L33.1916 9.30405L32.8125 9.44989L31.5875 9.68322L30.7416 9.85822L29.9833 10.0624L29.0791 10.3249L28.3208 10.6166L27.8541 10.7916L27.3 11.0249L26.8333 11.2582L26.3958 11.4916L25.7833 11.8416L25.1416 12.2207L24.7041 12.5124L24.0625 12.9499L23.2458 13.5916L22.925 13.8541L22.6333 14.1166L22.3125 14.3791L21.4958 15.1957L21.2916 15.4291L20.9416 15.8374L20.6791 16.1582L20.2708 16.7124L19.9208 17.1499L19.6875 17.4707L19.4541 17.8207L19.075 18.4332L18.7833 18.9582L18.4333 19.6291L18.1125 20.2999L17.7625 21.1166L17.325 22.3416L16.8875 23.9749L16.7416 24.7041L16.6541 25.3457L16.5375 26.6291L16.4791 27.3874V28.7874L16.625 30.3332L16.7708 31.3249L16.975 32.2291L17.325 33.5124L17.675 34.5332L18.025 35.3791L18.3458 36.0791L18.6083 36.5749L18.8416 37.0416L19.1625 37.5957L19.5708 38.2082L19.8625 38.6166L20.4458 39.3749L20.65 39.6374L21 40.0457L21.2041 40.2791L21.4666 40.5707L22.2833 41.3874L22.5166 41.5916L22.7791 41.8249L23.1 42.0874L23.5666 42.4666L24.0625 42.8457L24.8791 43.3999L25.4333 43.7791L26.0458 44.2457L26.4833 44.6541L26.7166 44.8874L27.0375 45.2957L27.3291 45.7332L27.5916 46.1999L27.825 46.6666L28.0875 47.3666L28.2333 47.8332L28.3208 48.3582L28.35 48.7666L28.3791 49.6999V52.6749L28.35 53.6666H41.3291L41.5041 53.6374L41.5333 49.3499L41.5916 48.6499L41.6791 48.0957L41.825 47.5999L42.0583 46.9291L42.35 46.2874L42.6416 45.7916L42.9041 45.4124L43.1083 45.1207L43.2833 44.8874H43.3416L43.4 44.7707L43.925 44.2457L44.1875 44.0416L45.0625 43.3999L45.5583 43.0499L45.85 42.8457L46.375 42.4666L46.7833 42.1457L47.1041 41.8541L47.3375 41.6499L47.775 41.2707L48.3875 40.6582L48.5916 40.4249L48.9708 40.0166L49.2333 39.6957L49.4958 39.4041L49.7291 39.0832L49.9041 38.8499L50.225 38.4124L50.5166 37.9749L50.8375 37.4791L51.0125 37.1582L51.3041 36.6624L51.5375 36.1957L51.8291 35.5832L52.2375 34.5916L52.5 33.8624L52.7041 33.1916L52.9375 32.3166L53.1125 31.5874L53.3166 30.3916L53.4625 29.9249L53.6375 29.6624L53.8708 29.4874L54.0458 29.4291H54.6875L55.0375 29.5749L55.2708 29.7499L55.3875 29.9832L55.4166 30.4499L55.3583 31.0041L55.125 32.2291L54.95 33.0166L54.7166 33.8041L54.425 34.7374L54.1041 35.5832L53.725 36.4582L53.2291 37.4791L52.9958 37.8874L52.8208 38.2374L52.4708 38.8207L51.9458 39.6082L51.5958 40.1041L51.3333 40.4249L51.1 40.7457L50.7791 41.1249L50.5166 41.4457L50.1958 41.7957L49.9916 42.0291L49.6708 42.3791L49.4375 42.5832L49.175 42.8457L48.9708 42.9916L48.5916 43.3707L47.95 43.8957L47.425 44.3041L47.0166 44.5957L46.375 45.0624L45.9375 45.3541L45.5875 45.6166L45.2666 45.8791L44.8291 46.3166L44.4791 46.7832L44.2458 47.1624L44.0125 47.6291L43.8666 48.0082L43.75 48.5332L43.7208 48.7957L43.6916 49.4957L43.6625 51.9166V53.8124L43.7791 53.9291L44.3041 54.2207L44.6833 54.5416L44.9166 54.8041L45.15 55.2124L45.325 55.6499L45.4125 56.1166L45.4416 56.5832V57.5749L45.3833 58.3041L45.2958 58.7707L45.15 59.0624L44.9458 59.2374L44.8875 59.3249V59.4999L45.2083 60.0249L45.325 60.3166L45.4125 60.7541L45.4416 61.1332V62.4457L45.3541 63.0874L45.2083 63.5832L44.9458 64.0499L44.6833 64.3707L44.45 64.6332L44.0708 64.8957L43.6333 65.0707L43.1958 65.1582L42.35 65.2166L39.8125 65.2749H39.5208L39.55 65.4499L39.5208 67.7541L39.4625 68.1624L39.3166 68.5999L38.9666 69.0957L38.6458 69.4166L38.2375 69.6499L38.0625 69.7666L37.8875 69.9416H37.8291V69.9999H32.025L31.9083 69.7957L31.4416 69.4749L31.1208 69.2124L30.8583 68.9499L30.5958 68.5124L30.4791 68.1332L30.4208 67.5499V65.2457H27.1541L26.6875 65.2166L26.3083 65.1291L25.9583 64.9541L25.55 64.6332L25.2 64.2832L24.9375 63.9041L24.7333 63.4957L24.5875 62.9707L24.5291 62.4749V61.4249L24.5583 60.8707L24.675 60.2874L24.7625 60.0249L24.9666 59.7041L25.025 59.5874V59.3541L24.6458 58.6541L24.5291 58.0707V56.3791L24.5875 55.9416L24.7333 55.3874L24.9666 54.9499L25.2583 54.5707L25.4916 54.3374L25.8708 54.1041L26.1625 53.9291H26.2208L26.2791 53.5207V49.4082L26.25 48.7666L26.1625 48.2416L26.0166 47.7457L25.8125 47.2791L25.5208 46.7832L25.2291 46.4041L24.9666 46.1124L24.7625 45.9082L24.4125 45.6457L23.9166 45.2957L22.9833 44.6541L22.5166 44.3041L22.2541 44.0999L21.875 43.8082L21.5833 43.5457L21.2916 43.3124L20.9125 42.9624L20.6791 42.7582L20.3 42.3791L20.0666 42.1749V42.1166H20.0083L19.8041 41.8832L19.425 41.4749L19.1041 41.0666L18.6958 40.5416L18.4041 40.1624L18.0541 39.6666L17.5 38.8207L17.2375 38.3832L16.8291 37.6541L16.5666 37.1582L16.1875 36.3416L15.8375 35.5249L15.3708 34.2999L15.1083 33.4249L14.875 32.5207L14.6708 31.4416L14.4375 29.8374L14.35 28.7874V27.3874L14.4083 26.3957L14.525 25.3457L14.7291 23.9749L15.0208 22.7499L15.1958 22.0791L15.6041 20.9124L15.925 20.1249L16.1875 19.5124L16.3916 19.0457L16.6833 18.4916L17.0041 17.9082L17.1791 17.5874L17.5 17.0332L18.2583 15.8957L18.6375 15.3707L18.9291 14.9916L19.1916 14.6707L19.5125 14.3207L19.8333 13.9416L19.9791 13.8249L20.1833 13.5916L20.8833 12.8916H20.9416L20.9708 12.8041L21.2041 12.5999L21.5833 12.2791L21.9041 11.9874L22.225 11.7249L22.6916 11.3457L23.275 10.9374L23.7416 10.6166L24.3541 10.2374L25.025 9.85822L25.7833 9.44989L26.5416 9.07072L27.6208 8.63322L28.7 8.25405L29.75 7.96239L30.975 7.67072L31.8791 7.52489L32.4041 7.46655ZM27.3 55.7374L26.8625 55.7666L26.7166 55.8832L26.6583 56.1166L26.6 56.7582V57.3707L26.6875 58.0999L26.775 58.3332L27.0083 58.4207L30.5083 58.4499H36.6333L42.4958 58.4207L42.9625 58.3916L43.1958 58.3332L43.2833 58.2166L43.3125 57.8957L43.3416 57.2249V56.7582L43.3125 56.0582L43.2541 55.8541L43.1375 55.7957L42.9625 55.7666L42.35 55.7374H27.3ZM30.7708 60.4916L26.8333 60.5207L26.7166 60.5791L26.6875 60.6666L26.6 61.5999V62.3291L26.6875 62.9707L26.8333 63.1166L27.2125 63.1749H42.5541L43.0791 63.1166L43.2541 63.0582L43.3125 62.7957L43.3416 62.1541V61.3374L43.3125 60.7249L43.2541 60.5791L43.0791 60.5207L42.0583 60.4916H30.7708ZM32.55 65.2457L32.5208 65.3624V67.5791L32.55 67.8707L32.5791 67.8999L32.8708 67.9291H37.275L37.3625 67.8707L37.3916 67.7249L37.45 66.3541L37.4791 65.2749L37.2458 65.2457H32.55Z" fill="white"/>
<path d="M33.6291 13.0376H36.6333L37.2166 13.0959L37.4791 13.1834L37.7708 13.4168L37.975 13.6209L38.15 13.9126L38.2375 14.3793L38.2666 14.8459V16.9751L38.2958 17.4418L38.3833 17.5876L39.8416 18.1709H40.1041L40.25 18.0834L40.6 17.6751L40.7166 17.5584H40.775L40.8333 17.4418L41.2125 17.0626L41.2416 17.0043H41.3L41.3583 16.8876L41.7958 16.4793L42.0875 16.2168L42.525 15.8959L42.8458 15.7501L43.1375 15.6918L43.4291 15.7209L43.8083 15.8668L44.275 16.1584L44.625 16.4793L44.8 16.6251V16.6834H44.8583V16.7418H44.9166L45.1208 16.9751L45.2666 17.0918L45.4708 17.3251L45.675 17.5293L45.9083 17.7334V17.7918H45.9666L46.1416 17.9959L46.3166 18.1418L46.5208 18.3751L46.7833 18.6376L47.075 19.0459L47.25 19.3959L47.3083 19.6584V19.8626L47.2208 20.1834L47.0166 20.5334L46.7541 20.8543L46.55 21.1168H46.4916L46.4333 21.2334L46.1125 21.5834L45.8791 21.7876L45.4708 22.1959H45.4125L45.3833 22.2834L45.15 22.4876L44.8 22.8376L44.7416 22.9251L44.7708 23.1293L45.0916 23.8584L45.325 24.6168L45.3833 24.6459L48.1541 24.6751L48.6791 24.7334L49.0291 24.8209L49.35 25.0251L49.4958 25.1709L49.7 25.4043L49.8166 25.6376L49.875 25.9001L49.9333 26.6001V29.6334L49.875 30.1001L49.7583 30.4209L49.5833 30.7126L49.525 30.8001H49.4666V30.8584H49.4083V30.9168L49.1458 31.1209L48.6791 31.2376L48.3 31.2668L47.5416 31.2959H45.3833L45.2375 31.7334L45.1208 32.0251L44.8291 32.5793L44.7708 32.7251V33.0459L44.8875 33.2209L45.5583 33.8918L45.6166 33.9209V33.9793L45.7333 34.0376L46.3166 34.6209L46.4916 34.8251L46.6375 34.9709L46.8708 35.2334L47.0458 35.4668L47.25 35.8751L47.3083 36.1084V36.3126L47.1916 36.6918L46.9875 37.0709L46.6083 37.5376L46.3458 37.8293L45.9083 38.2668L45.675 38.4709L45.4416 38.7334L45.2083 38.9376L44.5375 39.6084L44.2166 39.8709L43.9541 40.0459L43.6041 40.2209L43.4 40.2793H43.1375L42.875 40.2209L42.4083 39.9876L42.0583 39.7251L41.7666 39.4626L41.5333 39.2584L40.8333 38.5584V38.5001H40.775L40.5708 38.2668L40.2791 37.9459L40.0166 37.7709H39.7541L39.55 37.8293L39.1708 38.0626L38.85 38.1793L38.4708 38.2959L38.325 38.3834L38.2958 38.5001L38.2666 41.0376L38.2083 41.7668L38.1208 42.0876L37.9166 42.4084L37.5375 42.7584L37.3041 42.8459L37.1583 42.8751L36.6333 42.9043L35.4083 42.9334H34.125L33.1041 42.9043L32.6375 42.8459L32.4041 42.7584L32.1708 42.5543L31.9083 42.2334L31.7625 41.9418L31.7041 41.6209L31.675 38.4418L31.5 38.3251L30.5958 37.9751L30.1291 37.7709H29.8375L29.75 37.8001L29.6916 37.9168L29.5458 38.1501H29.4875L29.4291 38.2668L29.1958 38.4709L28.9333 38.7334L28.7583 38.8793L28.5541 39.1126L28.2333 39.4334L28 39.6376L27.5916 39.9584L27.125 40.1918L26.95 40.2501L26.6291 40.2793L26.25 40.1626L25.9291 39.9876L25.5791 39.7251L25.1416 39.3168L24.4708 38.6459L24.2375 38.4418L23.6833 37.8876L23.4791 37.6543L23.1875 37.3334L22.8958 36.9251L22.7208 36.5751L22.6625 36.3126L22.6916 36.0209L22.8958 35.4959L23.1291 35.2043L23.2166 35.0584H23.275L23.3333 34.9418L24.4708 33.8043L24.7041 33.6001L24.9083 33.3959H24.9666L25.025 33.2793L25.1416 33.1334L25.2291 32.8709L25.1125 32.5793L24.7916 31.8793L24.6166 31.3834L24.5875 31.2959H21.875L21.2333 31.2376L20.8833 31.1501L20.6208 30.9751L20.3583 30.7126L20.125 30.2459L20.0375 29.8668L20.0083 29.6334V27.0668L20.0375 26.3376L20.0958 25.8418L20.2125 25.5209L20.4166 25.2001L20.6791 24.9668L21.0875 24.7626L21.4958 24.7043L22.1083 24.6751H24.2083L24.5 24.6459L24.6458 24.5584L24.85 23.8876L25.1708 23.2751L25.2291 23.0709L25.2 22.9251L24.9375 22.6043L24.4125 22.0793L24.1791 21.8751L23.3625 21.0584L23.0416 20.6501L22.8375 20.3584L22.6916 19.9501L22.6625 19.8334V19.5418L22.8375 19.1043L23.0416 18.8126L23.3041 18.4918L24.3541 17.4418L24.4416 17.3251H24.5L24.5583 17.2084H24.6166V17.1501L24.85 16.9459L24.9083 16.8584H24.9666L24.9958 16.7709L25.2291 16.5668L25.4916 16.3043L25.9 15.9834L26.3083 15.7793L26.4833 15.7209H26.8625L27.2708 15.8376L27.65 16.0418L27.9416 16.2751L28.2625 16.5959L28.4958 16.8001L29.05 17.3543L29.2541 17.5876L29.7791 18.1126L29.9541 18.2293L30.1 18.2001L30.5666 17.9959L31.0333 17.8209L31.5875 17.6459L31.675 17.6168L31.7041 14.4959L31.7625 14.0293L31.9666 13.6209L32.1416 13.4168L32.55 13.1543L32.6958 13.0959L32.9 13.0668L33.6291 13.0376ZM36.1375 15.0501L35.5541 15.0793L33.775 15.1084L33.7458 18.3459L33.7166 18.6668L33.5416 19.0168L33.3958 19.1334L32.9583 19.3376L32.2583 19.5709L31.7625 19.7459L31.0041 20.0959L30.5375 20.3293L29.8958 20.5918L29.6625 20.6501L29.4291 20.5626L29.1083 20.3584L28.6125 19.8918L27.4458 18.7251L27.4166 18.6668H27.3583L27.3 18.5501L27.0083 18.2584L26.8333 18.1418L26.6875 18.1126L26.4833 18.2001L26.2208 18.5209L25.55 19.1918V19.2501H25.4916L25.3458 19.3959L25.3166 19.4834L25.2 19.5418L25.1125 19.6293L25.0541 19.7459L25.2291 19.9793L25.6666 20.3876L27.2125 21.9334L27.5041 22.3126L27.5916 22.5168V22.8376L27.4458 23.3043L27.0666 24.1209L26.7458 24.9668L26.3958 25.8709L26.1625 26.3376L25.9875 26.5709L25.8125 26.6584L25.5791 26.6876L25.025 26.7168H22.1375L22.1083 26.8043L22.0791 29.1959L22.1958 29.2251L25.1125 29.2543L25.6666 29.2834L25.9291 29.3709L26.1041 29.4876L26.3083 29.8959L26.5125 30.4793L26.775 31.2376L27.0958 31.9376L27.475 32.6668L27.5916 33.0459V33.4251L27.4166 33.7751L27.3 33.8918V33.9501H27.2416L26.8333 34.4168V34.4751H26.775V34.5334L26.6583 34.5918L25.4916 35.7584L25.3166 35.8751V35.9334L25.2 35.9918L25.0833 36.1376L25.1125 36.3126L25.375 36.5751H25.4333L25.4916 36.6918H25.55V36.7501H25.6083V36.8084H25.6666L25.725 36.9251H25.7833L25.8416 37.0418L26.2208 37.3918L26.425 37.6251L26.6583 37.8293L26.8041 37.8876L26.8625 37.8584V37.8001L26.9791 37.7418L27.3875 37.3043L28.1458 36.5459L28.35 36.3126L28.5833 36.1084L28.7875 35.9043L29.0208 35.7001L29.2833 35.4668L29.5458 35.3209L29.8375 35.3501L30.3916 35.5543L31.0333 35.8459L31.7041 36.1376L32.55 36.4584L33.2791 36.7501L33.5416 36.9251L33.6583 37.0709L33.7166 37.2459L33.7458 37.5084V40.8626L33.9791 40.8918H36.0791L36.1666 40.8626L36.1958 40.8043L36.225 37.9459L36.2541 37.3334L36.3708 36.9834L36.575 36.8084L37.1583 36.5459L38.15 36.1959L38.7041 35.9626L39.6375 35.4959L40.1041 35.3501L40.3958 35.3793L40.7458 35.5543L41.0375 35.7876L41.2416 35.9918H41.3V36.0501L41.5333 36.2543L42.7291 37.4501L42.9333 37.6834L43.1083 37.8584L43.2833 37.8293L43.5458 37.6543L43.6916 37.5084V37.4501H43.75L43.925 37.2459L44.1583 37.0418L44.275 36.8959L44.5083 36.6918L44.7416 36.4293L44.8583 36.2543V36.1084L44.625 35.8751L44.3916 35.6709L42.9625 34.2418L42.7583 34.0084L42.4666 33.6293L42.3791 33.4543V33.1043L42.5541 32.5793L42.7875 32.1126L42.9625 31.7334L43.2541 31.0626L43.575 30.1293L43.8666 29.5168L43.9833 29.3709L44.3333 29.2834L44.7125 29.2543L47.7458 29.2251L47.8333 29.1959L47.8916 26.7168H44.275L44.0125 26.6293L43.8375 26.3959L43.5166 25.7251L43.1958 24.8209L42.7291 23.7418L42.4666 23.1584L42.3791 22.8376V22.4876L42.525 22.2251L42.7583 21.9626V21.9043H42.8166L43.0208 21.6709L44.1875 20.5043L44.4208 20.3001L44.8291 19.8918L44.8583 19.6876L44.6541 19.4543L44.3625 19.1334L44.1875 18.9876L43.9833 18.7543L43.7791 18.5501L43.575 18.3168L43.4583 18.2001L43.2541 18.1126L43.05 18.1418L42.9041 18.2584L42.7291 18.5209L41.2125 20.0376L40.9791 20.2418L40.6583 20.4751L40.425 20.6209L40.2791 20.6501L40.1333 20.5918L39.9 20.5334L39.55 20.3876L38.2083 19.7751L37.0708 19.3668L36.7208 19.2209L36.3708 19.0168L36.2541 18.7251L36.225 18.6084V15.0501H36.1375Z" fill="white"/>
<path d="M34.825 22.5166L35.7 22.5458L36.3125 22.6333L36.8667 22.7791L37.3917 23.0124L37.9167 23.3041L38.4417 23.6833L38.8792 24.0916L39.1125 24.3249L39.4625 24.7916L39.7834 25.3166L40.075 25.9291L40.3375 26.7166L40.4542 27.2999L40.4834 27.7374V28.3208L40.425 28.9041L40.25 29.6333L40.0167 30.2166L39.7834 30.6833L39.5209 31.0916L39.2875 31.3833L39.025 31.7041L38.7625 31.9666L38.5292 32.1708L38.1209 32.4916L37.5667 32.8416L37.0417 33.0749L36.3125 33.3083L35.7584 33.4249L35.0292 33.4833L34.3584 33.4541L33.8917 33.3958L33.3084 33.2499L32.5792 32.9583L32.0542 32.6666L31.6459 32.3749L31.3542 32.1124L31.1209 31.9083L30.9167 31.7041L30.5959 31.2958L30.3334 30.9166L29.925 30.1583L29.7209 29.6041L29.6042 29.1666L29.5167 28.6416L29.4875 28.4083V27.4458L29.6042 26.7458L29.8667 25.9583L30.1584 25.3458L30.4792 24.8208L30.8 24.4124L31.15 24.0333L31.3834 23.7999L31.9375 23.3916L32.375 23.1291L32.725 22.9541L33.1625 22.7791L33.7167 22.6333L34.3 22.5458L34.825 22.5166ZM34.5917 24.5874L33.9792 24.6749L33.6 24.8208L33.1042 25.0833L32.725 25.3749L32.4334 25.6666L32.1417 26.0458L31.9667 26.3374L31.7334 26.8916L31.5875 27.5333L31.5584 27.7958V28.1458L31.6167 28.7291L31.7625 29.2249L31.9667 29.6333L32.2 29.9541L32.4625 30.2749L32.8125 30.6249L33.3084 30.9749L33.6 31.1208L34.0959 31.2958L34.65 31.3833H35.35L35.875 31.2666L36.3125 31.1208L36.8084 30.8583L37.2167 30.5666L37.5959 30.1874L37.8 29.9541L38.0625 29.4874L38.2084 29.1958L38.3542 28.5833L38.4125 28.1166V27.6499L38.2959 27.0666L38.15 26.6291L37.9167 26.1624L37.625 25.7541L37.3334 25.4624L36.9542 25.1708L36.5167 24.9083L35.9917 24.7041L35.5834 24.6166L35.2917 24.5874H34.5917Z" fill="white"/>
<path d="M36.9833 7.4375L37.45 7.46667L38.4125 7.58333L39.2875 7.72917L40.1333 7.93333L40.8625 8.1375L41.4458 8.3125L42.2625 8.60417L42.875 8.8375L43.8667 9.275L44.5375 9.625L44.8875 9.8L45.5875 10.2083L46.025 10.4708L46.3458 10.675L47.1625 11.2583L47.5708 11.5792L48.0375 11.9583L48.3583 12.2208L48.65 12.4833L48.8833 12.6875L49.5833 13.3292V13.3875H49.6417L49.8458 13.6208L50.1667 13.9417L50.3708 14.175L50.6625 14.4958L50.9833 14.9042L51.2167 15.1667L51.625 15.7208L51.975 16.2167L52.5292 17.0625L52.8208 17.5583L53.0833 17.9958L53.2875 18.4042L53.55 18.9L53.9583 19.8333L54.3958 20.9708L54.8042 22.225L55.0375 23.1L55.2708 24.2083L55.3875 24.9083L55.4458 25.6667L55.3875 25.9875L55.2125 26.25L54.9792 26.4542L54.7458 26.5708L54.6 26.6H54.3083L53.9875 26.5125L53.725 26.3375L53.4917 26.0167L53.375 25.6375L53.1417 24.325L52.9667 23.5667L52.7333 22.6625L52.5 21.9042L52.1208 20.8542L51.6833 19.8625L51.45 19.3958L51.1 18.725L50.6625 17.9958L50.1958 17.2958L49.8458 16.8292L49.4375 16.275L49.175 15.9542L48.8542 15.575L48.5333 15.225L48.4167 15.1083V15.05H48.3583L48.1542 14.8167L47.8333 14.4958L47.6 14.2917L47.2208 13.9417L46.4042 13.3L45.85 12.8917L45.2958 12.5125L44.7125 12.1333L44.275 11.8708L43.75 11.5792L43.0792 11.2292L42.3792 10.9083L41.5917 10.5875L40.6875 10.2667L39.8708 10.0333L38.7625 9.77083L37.7125 9.56667L36.9833 9.42083L36.7208 9.24583L36.4583 8.95417L36.3417 8.75L36.3125 8.63333V8.42917L36.4583 8.05L36.6625 7.72917L36.8083 7.55417L36.9833 7.4375Z" fill="white"/>
<path d="M53.7833 7.90405H54.1333L54.4541 8.02072L54.7749 8.22489L55.0083 8.42905L55.1249 8.63322V8.95405L55.0374 9.18739L54.8624 9.47905L54.5999 9.79989H54.5416L54.4833 9.91655L54.0458 10.3832L52.4416 11.9874L52.1208 12.2207L51.8874 12.3666L51.6833 12.4541L51.5374 12.4249L51.1583 12.1916L50.8666 11.9291L50.5749 11.4916L50.5458 11.4332V11.2582L50.7791 10.7916L50.9833 10.5291L51.3333 10.1207L51.4499 10.0624V10.0041H51.5083L51.5666 9.88739L53.1999 8.25405L53.6083 7.96239L53.7833 7.90405Z" fill="white"/>
<path d="M18.1708 43.6042H18.4625L18.8708 43.8084L19.0458 43.9542L19.3083 44.3626L19.3667 44.5376V44.8292L19.1917 45.1209L18.9583 45.4126L18.6958 45.7334L18.1125 46.3167L18.0833 46.3751H18.025L17.9667 46.4917L17.7917 46.6667H17.7333V46.7251H17.675L17.6167 46.8417L17.2667 47.1917H17.2083V47.2501H17.15V47.3084H17.0917V47.3667L16.8583 47.5709L16.5667 47.8334L16.3625 47.9792L16.0708 48.0667H15.7792L15.4 47.9209L15.1083 47.6584L14.9042 47.3667L14.8458 47.1626L14.875 46.9001L14.9917 46.5792L15.2542 46.2292L15.4 46.0542H15.4583V45.9959H15.5167V45.9376H15.575L15.6333 45.8209L17.2083 44.2459L17.5292 43.9834L17.7625 43.8084L18.1708 43.6042Z" fill="white"/>
<path d="M34.5041 0H35.4666L35.6416 0.2625L35.8749 0.525L35.9624 0.7875L35.9916 0.933333L36.0208 1.45833V4.22917L35.9624 4.66667L35.8458 4.95833L35.6708 5.19167L35.4083 5.36667L35.1458 5.45417H34.9124L34.6499 5.39583L34.3583 5.22083L34.1249 4.95833L34.0083 4.725L33.9499 4.4625L33.9208 4.2V3.47083L33.9499 1.98333V1.07917L34.0374 0.729167L34.2124 0.379167L34.4749 0.0875L34.5041 0Z" fill="white"/>
<path d="M15.75 7.875L16.1 7.90417L16.5083 8.10833L16.9167 8.45833L17.15 8.69167L17.3833 8.89583L18.8708 10.3833L19.1917 10.7917L19.3083 11.025L19.3667 11.2583L19.3375 11.5208L19.1917 11.8125L18.9875 12.075L18.7542 12.2792L18.4333 12.4542L18.3167 12.425L17.9958 12.2792L17.675 12.075L17.2958 11.7542L15.6917 10.15L15.4875 9.91667L15.1083 9.50833L14.875 9.1875L14.8167 9.04167V8.8375L14.9333 8.51667L15.05 8.34167L15.1958 8.19583L15.4 8.02083L15.6333 7.90417L15.75 7.875Z" fill="white"/>
<path d="M9.91667 26.95H10.3542L11.375 26.9791L11.8417 27.0375L12.1333 27.1833L12.3083 27.3875L12.3958 27.5916L12.425 27.7375V28.0583L12.3083 28.4375L12.1042 28.7875L11.9583 28.9333L11.8417 28.9625L11.4333 28.9916H7.99167L7.55417 28.9333L7.37917 28.8458L7.175 28.6125L7.02917 28.3208L7 28.2041V27.7666L7.11667 27.4166L7.29167 27.1833L7.4375 27.0666L7.58333 27.0083L7.99167 26.9791L9.91667 26.95Z" fill="white"/>
<path d="M51.5374 43.575L51.7999 43.6041L52.0916 43.75L52.4416 44.0125L52.8208 44.3625L53.5499 45.0916L53.7249 45.2375V45.2958H53.7833L53.9874 45.5291L54.7166 46.2583L54.9791 46.5791L55.1249 46.8416L55.1541 47.0166L55.0083 47.3958L54.7166 47.775L54.4249 48.0083L54.1916 48.125L53.9583 48.0958L53.5499 47.9208L53.1708 47.6L52.7916 47.25L52.5874 47.0458L52.3833 46.8708V46.8125L52.2666 46.7541L52.0333 46.5208L51.8291 46.2875L51.4791 45.9375L51.2749 45.7041L50.9833 45.3833L50.7208 45.0041L50.5749 44.7125L50.5458 44.5375L50.6916 44.275L50.8374 44.1L50.9833 43.8958L51.2749 43.6916L51.5374 43.575Z" fill="white"/>
<path d="M59.6459 26.95H61.4834L62.0375 26.9791L62.3875 27.0666L62.6792 27.2125L62.8834 27.4458L62.9417 27.6208V28.1458L62.825 28.4666L62.65 28.7291L62.475 28.875L62.2709 28.9625L62.0084 28.9916H58.4792L58.1 28.9333L57.8667 28.8166L57.575 28.3208L57.4875 28.0875L57.5167 27.825L57.7209 27.4166L57.9542 27.125L58.1 27.0375L58.625 26.9791L59.6459 26.95Z" fill="white"/>
<path d="M37.8874 69.9417H38.0916V70H37.8583L37.8874 69.9417Z" fill="white"/>
</g>
<defs>
<clipPath id="clip0_33_114">
<rect width="70" height="70" fill="white"/>
</clipPath>
</defs>
</svg>
