 <svg  version="1.0" xmlns="http://www.w3.org/2000/svg"  width="900.000000pt" height="711.000000pt" viewBox="0 0 900.000000 711.000000"  preserveAspectRatio="xMidYMid meet">  <g transform="translate(0.000000,711.000000) scale(0.100000,-0.100000)" fill="#263849" stroke="none"> <path d="M570 6332 c-121 -46 -194 -112 -251 -227 l-34 -70 -3 -2034 c-1 -1314 1 -2054 8 -2089 25 -138 129 -258 275 -316 49 -20 75 -21 1073 -24 l1022 -3 0 -32 c0 -18 -9 -60 -21 -92 -48 -140 -130 -264 -242 -373 l-65 -62 -132 0 c-142 0 -171 -8 -209 -56 -16 -20 -21 -41 -21 -84 0 -50 4 -61 34 -96 l34 -39 905 0 906 0 31 30 c70 67 56 189 -27 229 -30 14 -99 16 -568 16 -355 0 -536 3 -540 10 -4 6 10 35 29 65 81 121 145 279 162 400 13 93 -28 85 432 85 224 1 426 5 450 9 109 21 146 153 67 237 l-32 34 -1584 0 c-1535 0 -1585 1 -1626 19 -30 14 -48 31 -63 60 -20 39 -20 54 -18 398 l3 358 1630 5 c1359 4 1634 7 1655 19 72 39 96 121 60 196 -13 27 -33 51 -49 58 -19 9 -437 13 -1661 17 l-1635 5 -2 1490 c-3 1472 -3 1490 17 1523 11 18 34 41 52 52 33 20 56 20 2738 20 2665 0 2705 0 2737 -20 38 -23 63 -67 63 -112 0 -113 130 -186 221 -125 52 35 61 60 55 159 -4 74 -10 97 -37 149 -43 79 -115 149 -198 191 l-66 33 -2765 2 c-2588 2 -2768 1 -2810 -15z"/> <path d="M4504 5490 c-152 -54 -254 -169 -285 -321 -6 -28 -8 -848 -7 -2085 l3 -2039 33 -68 c48 -96 105 -155 199 -202 l78 -40 907 -3 c1001 -3 957 -6 998 60 17 27 20 44 17 91 -4 37 -12 66 -24 79 -45 50 -12 48 -950 48 -858 0 -879 1 -911 20 -18 11 -41 34 -52 52 -19 32 -20 49 -18 398 l3 365 930 5 c852 5 933 6 961 22 72 39 86 161 25 221 l-31 32 -933 5 c-512 3 -938 9 -944 13 -10 6 -13 270 -13 1262 0 1133 2 1253 16 1259 9 3 636 6 1394 6 1111 0 1380 -2 1388 -13 7 -8 12 -99 14 -242 3 -212 5 -232 23 -257 21 -28 80 -58 116 -58 40 0 98 39 119 80 19 38 20 58 20 492 0 409 -2 460 -18 519 -42 149 -143 256 -285 301 -56 17 -129 18 -1390 17 -1263 0 -1335 -1 -1383 -19z m2697 -271 c72 -25 99 -76 99 -192 0 -55 -3 -68 -19 -77 -13 -7 -463 -10 -1386 -10 -923 0 -1373 3 -1386 10 -16 9 -19 22 -19 94 0 70 4 88 23 117 49 74 -57 69 1373 69 931 0 1290 -3 1315 -11z"/> <path d="M921 5212 c-70 -35 -76 -52 -79 -252 -3 -164 -2 -182 17 -219 26 -50 64 -71 129 -71 35 0 57 6 77 22 48 37 55 71 55 261 0 170 0 174 -26 213 -40 62 -108 80 -173 46z"/> <path d="M935 4378 c-42 -15 -54 -26 -76 -69 -18 -36 -19 -64 -19 -491 0 -434 1 -454 20 -486 57 -94 182 -94 240 0 20 32 20 48 18 500 -3 455 -3 467 -24 495 -36 49 -105 71 -159 51z"/> <path d="M4865 4378 c-82 -29 -95 -68 -95 -277 0 -138 3 -172 18 -200 26 -52 61 -73 121 -73 59 0 93 18 121 65 18 29 20 51 20 213 0 172 -1 183 -23 215 -36 54 -105 78 -162 57z"/> <path d="M7040 3805 c-68 -19 -105 -42 -169 -101 -38 -35 -70 -77 -92 -121 l-34 -68 -3 -1219 c-2 -1113 -1 -1224 14 -1270 39 -116 112 -199 224 -254 l75 -37 665 0 665 0 75 38 c91 46 153 110 201 204 l34 68 0 1230 0 1230 -34 70 c-39 79 -128 175 -188 201 -95 43 -103 43 -758 43 -486 -1 -640 -4 -675 -14z m1330 -300 c39 -38 52 -83 48 -170 l-3 -70 -694 -3 c-549 -2 -696 0 -703 10 -11 18 -10 116 3 160 12 46 48 86 86 98 15 5 299 8 630 7 l602 -2 31 -30z m45 -547 c3 -13 4 -327 3 -698 l-3 -675 -700 0 -700 0 -3 678 c-1 456 1 684 8 698 10 19 27 19 700 19 l690 0 5 -22z m-11 -1674 c13 -5 16 -22 16 -83 0 -89 -19 -133 -70 -169 l-34 -22 -607 2 -608 3 -36 35 c-19 19 -40 50 -45 70 -14 49 -12 144 2 158 9 9 176 12 689 12 373 0 684 -3 693 -6z"/> <path d="M4860 3532 c-37 -17 -61 -41 -75 -75 -13 -31 -15 -106 -15 -482 0 -427 1 -447 20 -485 24 -48 64 -70 125 -70 53 0 86 19 115 65 19 31 20 48 20 488 0 497 0 499 -57 541 -27 20 -107 31 -133 18z"/> <path d="M3158 2400 c-79 -42 -101 -135 -49 -208 40 -55 89 -65 286 -60 172 4 197 12 232 73 29 50 29 89 0 139 -39 68 -67 76 -262 76 -148 -1 -175 -3 -207 -20z"/> <path d="M5712 1566 c-122 -40 -132 -213 -15 -262 23 -10 81 -14 198 -14 143 0 171 3 203 19 49 25 72 67 72 129 0 56 -22 92 -73 119 -43 23 -321 30 -385 9z"/> </g> </svg> 