<?xml version="1.0" standalone="no"?>
<!DOCTYPE svg PUBLIC "-//W3C//DTD SVG 20010904//EN"
 "http://www.w3.org/TR/2001/REC-SVG-20010904/DTD/svg10.dtd">
<svg version="1.0" xmlns="http://www.w3.org/2000/svg"
 width="900.000000pt" height="900.000000pt" viewBox="0 0 900.000000 900.000000"
 preserveAspectRatio="xMidYMid meet">
<metadata>
Created by potrace 1.10, written by Peter Selinger 2001-2011
</metadata>
<g transform="translate(0.000000,900.000000) scale(0.100000,-0.100000)"
fill="#263849" stroke="none">
<path d="M4690 8145 c-8 -2 -60 -8 -115 -15 -185 -22 -430 -77 -523 -116 -18
-8 -39 -14 -47 -14 -8 0 -29 -6 -47 -14 -18 -8 -71 -30 -118 -49 -85 -35 -201
-90 -230 -107 -8 -5 -55 -33 -105 -61 -120 -69 -280 -180 -355 -245 -14 -12
-52 -45 -84 -73 l-59 -51 -619 0 c-682 0 -663 2 -712 -62 -47 -63 -29 -145 43
-189 30 -18 56 -19 526 -19 358 0 495 -3 495 -11 0 -6 -24 -43 -53 -83 -30
-39 -69 -93 -87 -121 -19 -27 -38 -53 -44 -57 -6 -4 -520 -8 -1142 -8 -954 0
-1133 2 -1143 14 -8 9 -11 55 -9 137 l3 124 470 5 c500 5 494 5 534 56 45 58
31 141 -31 186 l-33 23 -520 0 c-517 0 -520 0 -561 -22 -23 -12 -53 -36 -68
-54 -60 -71 -56 126 -56 -2600 l0 -2499 21 -45 c25 -54 80 -102 131 -115 23
-7 377 -9 972 -8 l936 3 32 33 c29 29 33 39 33 87 0 50 -3 58 -38 92 l-37 38
-893 5 -892 5 -3 2115 c-1 1163 0 2125 3 2138 l5 22 1054 0 c835 0 1056 -3
1064 -13 11 -13 10 -13 -59 -182 -16 -38 -42 -115 -59 -170 -17 -55 -36 -118
-43 -140 l-12 -40 -675 -5 c-736 -5 -710 -3 -754 -63 -21 -28 -21 -36 -21
-595 l0 -567 23 -37 c12 -20 30 -40 40 -45 9 -4 325 -10 702 -13 l684 -5 12
-25 c7 -14 20 -52 29 -85 10 -33 29 -91 42 -130 14 -38 26 -79 26 -90 2 -20
-6 -20 -740 -25 -729 -5 -742 -5 -770 -26 -15 -11 -36 -37 -47 -58 -16 -32
-17 -44 -7 -76 6 -21 27 -52 46 -69 l36 -31 802 0 c441 0 807 -4 813 -8 5 -4
34 -47 64 -97 29 -49 73 -118 97 -153 44 -64 53 -92 31 -92 -7 0 -416 -1 -908
-2 -1013 -3 -933 4 -972 -84 -17 -39 -18 -50 -7 -82 15 -49 45 -80 88 -92 23
-6 409 -10 1047 -10 l1010 0 80 -76 c209 -200 450 -368 709 -493 160 -78 208
-97 395 -155 209 -66 278 -79 585 -115 303 -36 717 12 1050 121 66 21 134 43
150 47 36 10 169 70 283 128 46 24 89 43 96 43 8 0 76 -62 152 -139 77 -76
158 -148 181 -160 57 -29 167 -29 223 -1 22 11 45 20 52 20 17 0 378 -361 378
-378 0 -9 -479 -12 -2312 -12 -1565 0 -2325 -3 -2350 -10 -73 -21 -114 -108
-82 -175 34 -73 42 -75 370 -75 319 0 321 0 309 -57 -4 -15 -13 -48 -20 -73
-7 -25 -20 -74 -30 -110 -30 -114 -49 -165 -64 -178 -10 -8 -55 -12 -140 -12
-178 0 -238 -11 -338 -61 -137 -68 -252 -198 -296 -335 -29 -87 -42 -217 -28
-278 13 -59 28 -78 84 -101 32 -13 235 -15 1797 -15 1931 0 1806 -4 1857 58
20 24 22 39 23 137 0 123 -21 209 -75 301 -32 55 -145 177 -185 199 -140 79
-208 95 -406 95 -146 0 -156 4 -169 70 -7 37 -18 78 -60 221 -29 99 -31 125
-10 133 9 3 557 3 1218 0 l1202 -7 325 -321 c208 -206 341 -330 370 -345 158
-81 331 -82 491 0 102 51 212 196 243 319 7 25 17 44 24 42 9 -1 12 21 12 78
0 62 -3 80 -14 80 -9 0 -18 19 -25 51 -26 119 -46 145 -373 474 l-308 311 -2
2259 -3 2260 -23 36 c-12 20 -38 49 -58 64 -72 55 -74 55 -768 55 l-641 0 -45
43 c-120 114 -279 228 -500 357 -43 25 -219 109 -325 154 -64 28 -305 106
-326 106 -8 0 -35 6 -60 14 -24 8 -87 21 -139 30 -52 9 -124 21 -160 27 -60
10 -506 22 -540 14z m575 -284 c182 -36 215 -43 270 -58 97 -26 176 -50 235
-73 30 -12 66 -25 80 -29 39 -13 276 -130 316 -157 19 -13 37 -24 41 -24 10 0
196 -133 273 -195 135 -108 307 -288 421 -440 151 -200 293 -475 364 -705 10
-30 21 -64 25 -76 11 -30 46 -175 66 -278 19 -99 43 -134 107 -155 30 -10 42
-10 72 5 19 9 47 30 61 48 25 29 26 35 21 106 -11 144 -84 405 -168 605 -23
55 -42 111 -43 125 l-1 25 290 2 c172 2 296 -1 305 -7 13 -8 15 -217 15 -1782
0 -1766 0 -1773 -20 -1774 -14 -1 -83 63 -217 200 l-197 201 25 54 c22 45 25
65 22 120 -2 40 -11 81 -23 104 -11 20 -82 100 -157 176 -76 77 -138 146 -138
154 0 8 24 63 54 123 29 60 63 132 74 159 54 133 80 205 97 265 9 36 23 85 30
110 40 136 75 356 75 465 -1 78 -4 93 -23 116 -49 59 -121 67 -179 19 -39 -32
-52 -71 -63 -185 -14 -145 -45 -289 -101 -465 -50 -159 -61 -185 -125 -318
-137 -283 -330 -547 -539 -739 -41 -37 -86 -78 -100 -91 -61 -57 -223 -174
-325 -235 -190 -113 -479 -239 -615 -268 -19 -4 -71 -16 -115 -28 -396 -105
-966 -74 -1379 76 -39 14 -89 32 -111 40 -111 39 -340 163 -485 262 -240 163
-517 450 -682 706 -24 39 -48 77 -51 85 -4 8 -17 31 -28 50 -67 112 -155 307
-178 395 -5 17 -13 41 -19 55 -16 39 -42 131 -42 148 0 8 -6 38 -14 66 -34
120 -65 382 -66 546 0 226 61 606 123 760 5 14 13 39 18 55 32 122 150 364
257 530 363 560 918 948 1562 1092 203 45 277 51 565 49 165 -2 305 -8 340
-15z m2745 -750 c5 -11 10 -67 10 -125 0 -82 -3 -108 -16 -120 -13 -14 -62
-16 -379 -16 -200 0 -370 3 -379 6 -9 3 -26 22 -38 42 -12 21 -47 71 -78 112
-70 93 -73 98 -65 110 4 6 172 10 470 10 449 0 465 -1 475 -19z m-5858 -1349
c4 -4 3 -73 -3 -152 -11 -152 -5 -486 11 -554 5 -25 5 -47 -1 -58 -9 -17 -39
-18 -559 -18 -485 0 -550 2 -564 16 -14 13 -16 62 -16 380 0 333 1 365 18 382
16 16 54 17 561 15 300 -2 548 -6 553 -11z m5104 -2064 c52 -50 94 -99 94
-108 0 -17 -633 -655 -650 -655 -12 0 -200 185 -200 197 0 9 0 9 120 104 160
127 382 359 500 522 13 17 28 32 33 32 5 0 52 -41 103 -92z m781 -1105 c672
-674 683 -686 683 -775 0 -81 -60 -180 -133 -218 -59 -32 -156 -32 -217 -1
-61 32 -1300 1267 -1300 1297 0 14 53 74 157 177 87 87 161 157 166 157 4 0
294 -287 644 -637z m-3220 -574 c7 -14 19 -50 27 -80 9 -30 25 -85 36 -124 33
-115 41 -166 29 -181 -9 -12 -146 -14 -779 -14 -856 0 -790 -6 -766 72 7 24
20 68 29 98 8 30 22 80 30 110 9 30 19 69 22 85 4 17 14 38 22 48 15 16 57 17
677 15 l661 -3 12 -26z m698 -673 c71 -20 104 -39 151 -88 46 -47 91 -135 77
-149 -5 -5 -693 -8 -1609 -7 l-1599 3 3 29 c4 36 24 69 76 124 46 49 80 69
146 88 70 19 2685 19 2755 0z"/>
<path d="M4655 7611 c-146 -15 -297 -49 -471 -107 -596 -198 -1101 -666 -1339
-1240 -59 -143 -63 -154 -94 -264 -52 -187 -79 -357 -88 -546 -8 -174 22 -429
73 -610 8 -28 14 -56 14 -63 0 -29 98 -278 152 -386 114 -229 259 -426 444
-606 146 -142 264 -229 310 -229 99 0 164 103 119 189 -7 15 -35 46 -61 67
-151 124 -225 194 -320 307 -159 187 -277 397 -360 640 -69 200 -95 347 -101
577 -7 237 13 392 79 615 67 225 204 488 347 665 117 145 288 301 449 409 93
63 290 167 367 194 51 18 161 55 200 67 119 36 366 70 520 69 162 0 417 -33
530 -70 248 -79 340 -121 537 -243 213 -133 443 -361 592 -590 44 -66 140
-248 160 -304 74 -200 95 -275 131 -466 25 -133 23 -454 -4 -607 -41 -236
-129 -491 -221 -640 -16 -27 -30 -52 -30 -55 0 -3 -23 -40 -52 -82 -152 -226
-346 -417 -569 -562 -90 -58 -292 -163 -348 -180 -14 -5 -51 -18 -81 -29 -168
-64 -444 -111 -648 -111 -183 0 -447 43 -601 98 -61 22 -131 20 -163 -4 -65
-48 -77 -126 -28 -185 25 -31 45 -41 127 -67 261 -81 372 -97 668 -97 267 0
344 9 545 61 170 44 246 70 375 129 28 12 57 25 65 29 8 3 33 17 55 29 22 13
62 35 88 50 157 88 376 264 505 404 96 104 220 269 283 373 55 91 145 275 171
350 48 140 88 266 88 283 0 9 6 43 14 75 47 186 61 515 31 715 -24 157 -63
337 -87 397 -5 14 -20 58 -34 98 -28 88 -119 277 -186 386 -340 559 -888 933
-1533 1047 -124 22 -481 33 -620 20z"/>
<path d="M3595 5991 c-110 -18 -220 -98 -270 -197 -38 -77 -47 -194 -19 -257
52 -119 112 -159 412 -272 80 -30 132 -73 132 -111 0 -14 -15 -40 -34 -62
l-34 -37 -89 1 c-99 1 -145 19 -226 87 -39 33 -52 38 -97 39 -63 0 -96 -20
-121 -76 -15 -35 -17 -49 -8 -81 21 -74 157 -176 293 -219 70 -22 245 -22 311
1 183 63 298 237 265 400 -31 149 -129 244 -327 317 -220 81 -243 97 -223 151
23 62 173 73 262 21 24 -15 63 -36 87 -47 41 -20 45 -20 85 -5 59 23 81 58 81
128 0 51 -3 60 -34 92 -19 20 -39 36 -45 36 -5 0 -17 6 -25 14 -9 7 -50 27
-91 44 -83 34 -197 47 -285 33z"/>
<path d="M5890 5991 c-114 -17 -226 -77 -325 -176 -126 -126 -175 -245 -175
-426 0 -139 26 -227 102 -340 34 -52 152 -169 169 -169 5 0 30 -13 56 -28 82
-47 148 -62 274 -62 84 0 130 5 175 19 190 60 342 209 405 400 33 98 31 279
-4 373 -68 186 -204 321 -390 386 -66 23 -206 34 -287 23z m258 -296 c65 -35
111 -81 147 -147 28 -49 30 -60 30 -158 0 -98 -2 -109 -30 -159 -32 -58 -98
-122 -160 -154 -57 -29 -211 -30 -275 -2 -72 31 -133 88 -171 157 -31 59 -33
69 -33 158 0 89 2 99 34 158 48 89 127 155 210 173 19 5 72 6 116 5 66 -3 92
-9 132 -31z"/>
<path d="M4488 5970 c-58 -45 -58 -44 -58 -579 0 -464 1 -494 19 -529 36 -69
49 -72 320 -72 l240 0 41 38 c36 35 40 44 40 86 0 32 -7 57 -21 77 -36 51 -65
59 -211 59 -73 0 -139 4 -146 8 -9 6 -12 34 -10 103 l3 94 144 5 143 5 34 39
c28 33 34 47 34 86 0 39 -6 53 -34 86 l-34 39 -143 5 -144 5 0 100 0 100 150
5 c83 3 158 9 167 14 37 17 68 73 68 122 0 41 -5 51 -39 85 l-39 39 -249 0
c-234 0 -252 -1 -275 -20z"/>
<path d="M823 3110 c-43 -26 -68 -66 -68 -110 0 -44 25 -84 68 -110 31 -19 55
-20 642 -20 l610 0 37 30 c78 64 66 169 -24 216 -22 12 -133 14 -630 14 -580
0 -604 -1 -635 -20z"/>
</g>
</svg>
