<?xml version="1.0" standalone="no"?>
<!DOCTYPE svg PUBLIC "-//W3C//DTD SVG 20010904//EN"
 "http://www.w3.org/TR/2001/REC-SVG-20010904/DTD/svg10.dtd">
<svg version="1.0" xmlns="http://www.w3.org/2000/svg"
 width="900.000000pt" height="900.000000pt" viewBox="0 0 900.000000 900.000000"
 preserveAspectRatio="xMidYMid meet">
<metadata>
Created by potrace 1.10, written by Peter Selinger 2001-2011
</metadata>
<g transform="translate(0.000000,900.000000) scale(0.100000,-0.100000)"
fill="#263849" stroke="none">
<path d="M5262 8820 c-59 -36 -72 -71 -72 -195 0 -60 -4 -115 -8 -121 -4 -6
-32 -21 -62 -34 -30 -12 -74 -30 -98 -41 -23 -10 -47 -19 -53 -19 -7 0 -48 35
-93 79 -51 49 -95 83 -118 91 -72 22 -93 7 -326 -224 l-212 -211 -543 -5
c-352 -4 -553 -9 -572 -16 -129 -47 -225 -137 -273 -258 -15 -35 -18 -104 -22
-511 l-5 -470 -1280 -5 c-964 -4 -1287 -8 -1307 -17 -15 -7 -38 -29 -52 -50
l-26 -38 0 -878 c0 -967 -4 -912 62 -959 l33 -23 1285 -5 1285 -5 3 -124 c2
-82 -1 -128 -9 -137 -9 -11 -45 -14 -156 -14 -161 0 -197 -9 -232 -59 -22 -30
-22 -36 -21 -381 0 -324 2 -354 20 -400 54 -136 162 -234 295 -267 39 -9 676
-12 2907 -13 3074 0 2905 -3 3007 50 93 47 168 139 201 248 18 58 20 94 20
388 0 299 -1 328 -19 362 -31 60 -68 72 -231 72 -76 0 -145 3 -154 6 -15 6
-16 153 -16 1573 0 1699 3 1607 -52 1713 -43 82 -144 166 -243 202 -20 7 -220
12 -575 16 l-545 5 -210 211 c-171 173 -218 214 -251 224 -63 19 -102 1 -196
-91 -45 -43 -85 -79 -91 -79 -5 0 -45 16 -90 35 -44 19 -86 35 -92 35 -7 0
-19 8 -28 18 -14 15 -17 40 -17 126 0 125 -12 164 -63 194 -33 21 -44 22 -353
22 -301 0 -321 -1 -352 -20z m488 -371 c5 -95 8 -109 32 -141 28 -37 34 -40
168 -83 82 -26 216 -87 262 -119 13 -10 44 -16 75 -16 51 0 54 1 132 75 44 41
84 75 88 75 15 0 183 -175 183 -191 0 -8 -27 -41 -61 -74 -62 -61 -89 -105
-89 -148 0 -13 24 -71 54 -129 30 -58 68 -149 85 -204 57 -179 66 -187 219
-194 l107 -5 3 -137 c2 -107 0 -138 -10 -139 -7 0 -39 0 -70 1 -101 3 -143 -8
-182 -48 -20 -19 -36 -42 -36 -50 0 -28 -61 -196 -97 -266 -69 -135 -73 -145
-73 -174 0 -35 44 -104 104 -162 25 -24 46 -49 46 -56 0 -15 -168 -184 -184
-184 -6 0 -36 25 -66 56 -61 62 -115 94 -157 94 -15 0 -80 -26 -143 -58 -63
-32 -142 -67 -175 -77 -194 -58 -207 -72 -215 -235 l-5 -105 -125 -3 c-153 -3
-150 -5 -150 122 0 124 -26 166 -120 195 -19 6 -65 20 -101 31 -36 11 -113 45
-172 75 -152 78 -164 76 -284 -37 -34 -32 -68 -58 -75 -58 -15 0 -188 171
-188 187 0 5 27 35 61 68 33 33 67 72 75 87 19 36 18 96 -2 133 -85 160 -143
304 -144 356 0 9 -15 32 -32 53 -39 44 -81 57 -186 55 -54 -2 -76 2 -83 12
-10 17 -12 239 -1 256 4 7 47 12 112 15 147 4 165 19 205 165 13 45 51 138 84
206 76 154 79 183 22 254 -21 26 -55 64 -75 82 -20 19 -36 38 -36 42 0 9 179
189 188 189 4 0 28 -21 52 -46 121 -125 156 -131 316 -49 59 31 149 68 199 84
50 16 105 36 123 45 44 22 62 71 62 165 0 130 -9 122 144 119 l131 -3 5 -106z
m-1416 -610 c14 -11 26 -26 26 -34 0 -7 -20 -60 -44 -117 l-44 -103 -404 -5
c-279 -3 -409 -9 -423 -17 -11 -6 -31 -23 -45 -38 l-25 -27 -3 -296 c-2 -193
-7 -301 -14 -309 -16 -19 -251 -18 -267 1 -9 10 -11 127 -9 438 l3 425 29 37
c51 67 32 65 642 66 543 0 552 0 578 -21z m3739 -2 c15 -9 36 -35 47 -57 20
-39 20 -56 20 -1584 0 -1518 0 -1545 -19 -1556 -21 -11 -201 -14 -238 -4 l-23
6 -2 1422 -3 1421 -23 30 c-49 62 -30 60 -472 65 l-404 5 -13 25 c-7 14 -28
63 -47 109 -34 80 -35 84 -18 107 9 12 24 25 32 27 8 3 267 4 575 3 518 -1
563 -2 588 -19z m-4153 -556 c6 -12 10 -103 10 -226 0 -222 3 -236 55 -285 25
-23 35 -25 157 -30 l130 -5 20 -50 c17 -46 37 -92 59 -137 16 -32 10 -43 -75
-130 -88 -91 -99 -116 -88 -187 4 -27 44 -73 220 -250 118 -119 226 -224 241
-233 32 -22 92 -23 132 -2 17 8 62 47 99 85 79 80 90 83 178 39 34 -16 68 -30
76 -30 9 0 25 -9 36 -20 18 -18 20 -33 20 -129 0 -96 3 -112 23 -141 48 -72
36 -70 400 -70 l329 -1 35 27 c46 35 53 58 53 183 0 90 3 110 18 123 24 21
181 88 207 88 12 0 48 -28 90 -71 39 -39 82 -77 97 -85 35 -18 91 -18 126 0
15 8 127 115 250 239 l222 224 0 47 c0 62 -15 88 -95 166 -37 36 -71 73 -76
82 -7 13 -1 36 21 85 17 37 40 87 50 110 l19 41 130 4 c126 3 130 4 159 31 45
43 52 84 52 300 0 107 3 202 6 211 5 13 27 16 134 16 107 0 129 -3 134 -16 3
-9 6 -605 6 -1324 0 -1284 0 -1309 -19 -1320 -21 -11 -3866 -15 -3895 -4 -13
5 -16 27 -16 138 l0 131 43 18 c25 10 52 31 67 54 l25 37 3 868 c2 843 2 871
-17 913 -16 36 -29 49 -68 67 l-48 23 -3 195 c-1 107 0 200 2 207 4 10 38 13
130 13 114 0 126 -2 136 -19z m-422 -1388 l-3 -698 -1524 -3 c-1118 -1 -1527
1 -1537 9 -12 9 -14 132 -14 694 0 375 3 685 7 688 3 4 696 7 1540 7 l1533 0
-2 -697z m-130 -1113 c2 -109 0 -126 -15 -137 -21 -16 -225 -18 -254 -3 -17
10 -19 22 -19 134 0 67 3 126 7 130 4 3 68 5 142 4 l136 -3 3 -125z m5176
-436 c14 -5 16 -34 16 -223 -1 -237 -6 -263 -63 -305 l-28 -21 -2859 0 -2859
0 -32 30 c-55 52 -59 74 -59 298 0 144 3 206 12 215 9 9 675 12 2934 12 1607
0 2929 -3 2938 -6z"/>
<path d="M5435 7980 c-146 -34 -258 -89 -364 -180 -260 -224 -363 -577 -261
-895 12 -39 69 -160 93 -200 42 -69 151 -183 227 -236 194 -135 447 -183 679
-129 236 56 449 227 555 444 70 143 80 192 80 376 0 180 -9 229 -71 356 -171
355 -563 549 -938 464z m289 -275 c262 -50 446 -276 446 -548 0 -159 -52 -280
-169 -398 -198 -198 -510 -213 -740 -36 -85 65 -140 147 -182 266 -31 91 -29
249 4 348 60 180 224 327 409 367 85 19 138 19 232 1z"/>
<path d="M2112 6498 c-20 -25 -542 -1076 -542 -1092 0 -18 214 -130 235 -123
14 6 555 1081 555 1103 0 12 -207 124 -230 124 -4 0 -12 -6 -18 -12z"/>
<path d="M2671 6322 c-50 -49 -91 -96 -91 -103 0 -8 65 -79 145 -159 91 -91
145 -152 145 -165 0 -12 -55 -75 -145 -165 -80 -80 -145 -151 -145 -158 0 -19
167 -182 186 -182 9 0 112 96 230 214 168 170 215 223 225 254 21 73 6 95
-215 316 -111 110 -212 209 -223 219 -20 18 -22 16 -112 -71z"/>
<path d="M933 6188 c-307 -306 -307 -276 -5 -580 119 -120 224 -218 233 -218
18 0 189 167 189 184 0 6 -67 78 -149 160 -103 103 -147 154 -144 166 2 9 69
82 149 161 79 79 144 149 144 156 0 17 -171 183 -189 183 -8 0 -111 -96 -228
-212z"/>
<path d="M236 3500 c-15 -5 -37 -17 -48 -27 -50 -46 -48 40 -48 -1648 0 -1749
-6 -1610 67 -1660 l38 -25 595 0 c576 0 596 1 628 20 53 33 72 74 72 161 0 45
5 80 12 87 9 9 103 12 360 12 373 0 390 2 434 51 31 35 44 83 44 160 l0 69
470 0 470 0 393 -262 c216 -145 407 -271 424 -281 38 -21 65 -21 151 -1 73 17
156 35 272 59 41 9 102 22 135 30 33 7 96 21 140 30 88 18 138 30 410 91 33 7
94 20 135 29 76 16 165 36 275 61 33 7 94 20 135 29 41 9 107 23 145 32 39 8
97 21 130 28 33 8 96 21 140 30 44 9 105 22 135 30 30 7 80 19 110 25 30 7 84
18 120 26 36 8 85 19 110 24 25 5 88 19 140 30 52 12 145 32 205 45 61 13 153
33 205 45 52 11 115 25 140 30 25 5 77 16 115 25 39 9 99 22 135 29 36 8 108
24 160 36 52 12 116 26 141 30 25 5 64 13 85 18 21 6 72 17 112 26 39 9 102
23 140 31 37 8 101 22 142 30 353 74 374 82 410 140 17 28 20 49 20 159 0 155
-18 240 -73 355 -81 169 -230 301 -405 361 -113 38 -205 40 -1846 40 -877 0
-1601 3 -1610 6 -9 3 -19 18 -23 33 -11 48 -65 120 -214 291 -26 30 -183 213
-347 405 -215 251 -310 355 -336 368 -34 16 -94 17 -815 17 l-778 0 -5 88 c-7
103 -19 135 -67 165 l-36 22 -1010 2 c-556 1 -1023 -2 -1039 -7z m1012 -282
c9 -9 12 -332 12 -1393 0 -759 -4 -1386 -8 -1393 -7 -10 -97 -12 -418 -10
l-409 3 -3 1394 c-2 1109 0 1396 10 1403 22 13 802 10 816 -4z m850 -1242 c1
-830 -1 -1253 -8 -1261 -12 -14 -516 -16 -537 -2 -17 11 -19 2467 -3 2498 10
19 22 19 278 17 l267 -3 3 -1249z m1769 959 c12 -9 57 -57 100 -108 42 -50 87
-103 99 -117 12 -14 60 -68 105 -121 46 -52 102 -117 124 -144 22 -26 66 -78
97 -114 175 -204 212 -249 224 -278 17 -40 19 -226 3 -274 -15 -43 -52 -77
-94 -85 -18 -3 -85 -4 -149 -2 l-116 3 -319 319 c-202 202 -324 317 -334 315
-21 -5 -187 -168 -187 -183 0 -22 652 -661 702 -688 73 -40 161 -58 284 -58
216 0 338 56 436 197 35 52 68 143 68 190 l0 33 1653 0 c1620 0 1655 0 1711
-20 100 -34 193 -115 240 -208 30 -61 54 -178 40 -200 -11 -16 -82 -38 -224
-67 -47 -10 -110 -23 -140 -30 -30 -7 -89 -20 -130 -29 -177 -37 -228 -48
-287 -62 -108 -24 -185 -42 -268 -59 -80 -17 -149 -32 -267 -59 -35 -8 -99
-22 -143 -31 -44 -10 -107 -23 -140 -31 -98 -21 -196 -43 -270 -58 -122 -26
-218 -47 -280 -61 -33 -8 -94 -21 -135 -30 -188 -40 -219 -47 -275 -60 -33 -8
-91 -21 -130 -29 -98 -21 -209 -45 -280 -61 -33 -7 -96 -21 -140 -30 -44 -10
-107 -23 -140 -30 -33 -8 -94 -21 -135 -30 -41 -9 -102 -22 -135 -30 -78 -18
-180 -40 -280 -60 -44 -9 -105 -23 -135 -30 -30 -7 -91 -21 -135 -30 -44 -9
-106 -23 -137 -31 -73 -18 -127 -18 -147 0 -19 16 -668 450 -741 495 l-50 31
-508 2 -507 3 -3 970 c-1 534 0 976 3 983 3 9 158 12 727 12 632 0 726 -2 745
-15z"/>
</g>
</svg>
